<?xml version="1.0" encoding="UTF-8" standalone="no"?>
<!DOCTYPE svg PUBLIC "-//W3C//DTD SVG 1.1//EN" "http://www.w3.org/Graphics/SVG/1.1/DTD/svg11.dtd">
<svg width="100%" height="100%" viewBox="0 0 41 39" version="1.1" xmlns="http://www.w3.org/2000/svg" xmlns:xlink="http://www.w3.org/1999/xlink" xml:space="preserve" xmlns:serif="http://www.serif.com/" style="fill-rule:evenodd;clip-rule:evenodd;stroke-linecap:round;stroke-linejoin:round;">
    <g transform="matrix(1,0,0,1,-6565.54,-7769.88)">
        <path d="M6598.15,7790.08L6572.95,7775.68L6572.95,7804.48L6598.15,7790.08Z" style="fill:rgb(255,255,194);fill-opacity:0.6;"/>
        <path d="M6598.15,7790.08L6572.95,7775.68L6572.95,7804.48L6598.15,7790.08Z" style="fill:none;fill-rule:nonzero;stroke:rgb(132,0,0);stroke-width:0.72px;"/>
        <path d="M6598.15,7790.08L6572.95,7775.68L6572.95,7804.48L6598.15,7790.08Z" style="fill:none;fill-rule:nonzero;stroke:rgb(132,0,0);stroke-width:0.72px;"/>
        <path d="M6572.95,7782.88L6565.75,7782.88" style="fill:none;fill-rule:nonzero;stroke:rgb(132,0,0);stroke-width:0.43px;"/>
        <g>
            <path d="M6574.39,7783.13L6577.13,7783.13" style="fill:none;fill-rule:nonzero;stroke:rgb(0,100,100);stroke-width:0.43px;"/>
        </g>
        <g>
            <path d="M6568.32,7778.72L6568.49,7778.56L6568.83,7778.38L6569.69,7778.38L6570.04,7778.56L6570.21,7778.72L6570.37,7779.07L6570.37,7779.41L6570.21,7779.92L6568.15,7781.98L6570.37,7781.98" style="fill:rgb(169,0,0);fill-opacity:0;fill-rule:nonzero;stroke:rgb(169,0,0);stroke-width:0.43px;"/>
        </g>
        <path d="M6572.95,7797.28L6565.75,7797.28" style="fill:none;fill-rule:nonzero;stroke:rgb(132,0,0);stroke-width:0.43px;"/>
        <g>
            <path d="M6574.39,7797.53L6577.13,7797.53" style="fill:none;fill-rule:nonzero;stroke:rgb(0,100,100);stroke-width:0.43px;"/>
            <path d="M6575.75,7798.9L6575.75,7796.16" style="fill:none;fill-rule:nonzero;stroke:rgb(0,100,100);stroke-width:0.43px;"/>
        </g>
        <g>
            <path d="M6568.15,7792.78L6570.37,7792.78L6569.18,7794.15L6569.69,7794.15L6570.04,7794.32L6570.21,7794.5L6570.37,7794.84L6570.37,7795.69L6570.21,7796.04L6570.04,7796.21L6569.69,7796.38L6568.66,7796.38L6568.32,7796.21L6568.15,7796.04" style="fill:rgb(169,0,0);fill-opacity:0;fill-rule:nonzero;stroke:rgb(169,0,0);stroke-width:0.43px;"/>
        </g>
        <path d="M6583.75,7798.29L6583.75,7808.08" style="fill:none;fill-rule:nonzero;stroke:rgb(132,0,0);stroke-width:0.43px;"/>
        <g>
            <path d="M6582.59,7797.51L6584.71,7796.81L6582.59,7796.1" style="fill:rgb(0,100,100);fill-opacity:0;fill-rule:nonzero;stroke:rgb(0,100,100);stroke-width:0.43px;"/>
            <path d="M6584.61,7795.49L6584.71,7795.19L6584.71,7794.68L6584.61,7794.48L6584.51,7794.37L6584.31,7794.27L6584.11,7794.27L6583.9,7794.37L6583.8,7794.48L6583.69,7794.68L6583.59,7795.09L6583.49,7795.29L6583.39,7795.39L6583.19,7795.49L6582.99,7795.49L6582.79,7795.39L6582.69,7795.29L6582.59,7795.09L6582.59,7794.58L6582.69,7794.27" style="fill:rgb(0,100,100);fill-opacity:0;fill-rule:nonzero;stroke:rgb(0,100,100);stroke-width:0.43px;"/>
            <path d="M6583.9,7793.37L6583.9,7791.75" style="fill:none;fill-rule:nonzero;stroke:rgb(0,100,100);stroke-width:0.43px;"/>
        </g>
        <g>
            <path d="M6580.45,7802.5L6582.86,7802.5" style="fill:none;fill-rule:nonzero;stroke:rgb(169,0,0);stroke-width:0.43px;"/>
            <path d="M6579.09,7803.35L6581.66,7804.21L6581.66,7801.99" style="fill:rgb(169,0,0);fill-opacity:0;fill-rule:nonzero;stroke:rgb(169,0,0);stroke-width:0.43px;"/>
        </g>
        <path d="M6598.15,7790.08L6605.35,7790.08" style="fill:none;fill-rule:nonzero;stroke:rgb(132,0,0);stroke-width:0.43px;"/>
        <g>
            <path d="M6602.44,7785.58L6601.75,7785.58L6601.41,7785.76L6601.23,7785.92L6600.89,7786.44L6600.72,7787.12L6600.72,7788.49L6600.89,7788.84L6601.06,7789.01L6601.41,7789.18L6602.09,7789.18L6602.44,7789.01L6602.61,7788.84L6602.77,7788.49L6602.77,7787.64L6602.61,7787.3L6602.44,7787.12L6602.09,7786.95L6601.41,7786.95L6601.06,7787.12L6600.89,7787.3L6600.72,7787.64" style="fill:rgb(169,0,0);fill-opacity:0;fill-rule:nonzero;stroke:rgb(169,0,0);stroke-width:0.43px;"/>
        </g>
        <path d="M6583.75,7781.85L6583.75,7772.08" style="fill:none;fill-rule:nonzero;stroke:rgb(132,0,0);stroke-width:0.43px;"/>
        <g>
            <path d="M6582.59,7788.71L6584.71,7787.99L6582.59,7787.29" style="fill:rgb(0,100,100);fill-opacity:0;fill-rule:nonzero;stroke:rgb(0,100,100);stroke-width:0.43px;"/>
            <path d="M6584.61,7786.68L6584.71,7786.38L6584.71,7785.87L6584.61,7785.67L6584.51,7785.57L6584.31,7785.47L6584.11,7785.47L6583.9,7785.57L6583.8,7785.67L6583.69,7785.87L6583.59,7786.27L6583.49,7786.48L6583.39,7786.58L6583.19,7786.68L6582.99,7786.68L6582.79,7786.58L6582.69,7786.48L6582.59,7786.27L6582.59,7785.77L6582.69,7785.47" style="fill:rgb(0,100,100);fill-opacity:0;fill-rule:nonzero;stroke:rgb(0,100,100);stroke-width:0.43px;"/>
            <path d="M6583.9,7784.55L6583.9,7782.93" style="fill:none;fill-rule:nonzero;stroke:rgb(0,100,100);stroke-width:0.43px;"/>
            <path d="M6584.71,7783.75L6583.09,7783.75" style="fill:none;fill-rule:nonzero;stroke:rgb(0,100,100);stroke-width:0.43px;"/>
        </g>
        <g>
            <path d="M6579.26,7778.16L6579.26,7775.76L6582.86,7777.3" style="fill:rgb(169,0,0);fill-opacity:0;fill-rule:nonzero;stroke:rgb(169,0,0);stroke-width:0.43px;"/>
        </g>
        <g>
            <path d="M6588.43,7770.1L6588.43,7773.01L6588.61,7773.36L6588.77,7773.53L6589.12,7773.7L6589.8,7773.7L6590.15,7773.53L6590.32,7773.36L6590.48,7773.01L6590.48,7770.1" style="fill:rgb(0,100,100);fill-opacity:0;fill-rule:nonzero;stroke:rgb(0,100,100);stroke-width:0.45px;"/>
            <path d="M6592.72,7773.36L6592.89,7773.53L6592.72,7773.7L6592.54,7773.53L6592.72,7773.36L6592.72,7773.7" style="fill:rgb(0,100,100);fill-opacity:0;fill-rule:nonzero;stroke:rgb(0,100,100);stroke-width:0.45px;"/>
            <path d="M6592.03,7770.28L6592.37,7770.1L6593.23,7770.1L6593.57,7770.28L6593.75,7770.61L6593.75,7770.96L6593.57,7771.3L6593.4,7771.47L6593.06,7771.64L6592.89,7771.82L6592.72,7772.15L6592.72,7772.33" style="fill:rgb(0,100,100);fill-opacity:0;fill-rule:nonzero;stroke:rgb(0,100,100);stroke-width:0.45px;"/>
        </g>
        <g>
            <path d="M6588.26,7779.87L6589.97,7779.87" style="fill:none;fill-rule:nonzero;stroke:rgb(0,100,100);stroke-width:0.45px;"/>
            <path d="M6587.91,7780.9L6589.12,7777.3L6590.32,7780.9" style="fill:rgb(0,100,100);fill-opacity:0;fill-rule:nonzero;stroke:rgb(0,100,100);stroke-width:0.45px;"/>
            <path d="M6591.51,7780.9L6591.51,7777.3L6592.37,7777.3L6592.89,7777.48L6593.23,7777.81L6593.4,7778.16L6593.57,7778.84L6593.57,7779.36L6593.4,7780.05L6593.23,7780.39L6592.89,7780.73L6592.37,7780.9L6591.51,7780.9" style="fill:rgb(0,100,100);fill-opacity:0;fill-rule:nonzero;stroke:rgb(0,100,100);stroke-width:0.45px;"/>
            <path d="M6595.63,7778.84L6595.29,7778.67L6595.11,7778.5L6594.95,7778.16L6594.95,7777.99L6595.11,7777.64L6595.29,7777.48L6595.63,7777.3L6596.32,7777.3L6596.66,7777.48L6596.83,7777.64L6597,7777.99L6597,7778.16L6596.83,7778.5L6596.66,7778.67L6596.32,7778.84L6595.63,7778.84L6595.29,7779.02L6595.11,7779.19L6594.95,7779.53L6594.95,7780.21L6595.11,7780.56L6595.29,7780.73L6595.63,7780.9L6596.32,7780.9L6596.66,7780.73L6596.83,7780.56L6597,7780.21L6597,7779.53L6596.83,7779.19L6596.66,7779.02L6596.32,7778.84" style="fill:rgb(0,100,100);fill-opacity:0;fill-rule:nonzero;stroke:rgb(0,100,100);stroke-width:0.45px;"/>
            <path d="M6600.43,7780.9L6598.38,7780.9" style="fill:none;fill-rule:nonzero;stroke:rgb(0,100,100);stroke-width:0.45px;"/>
            <path d="M6599.4,7780.9L6599.4,7777.3L6599.06,7777.81L6598.71,7778.16L6598.38,7778.33" style="fill:rgb(0,100,100);fill-opacity:0;fill-rule:nonzero;stroke:rgb(0,100,100);stroke-width:0.45px;"/>
            <path d="M6601.63,7777.3L6604.03,7777.3L6602.49,7780.9" style="fill:rgb(0,100,100);fill-opacity:0;fill-rule:nonzero;stroke:rgb(0,100,100);stroke-width:0.45px;"/>
        </g>
    </g>
</svg>
