<?xml version="1.0" encoding="UTF-8" standalone="no"?>
<!DOCTYPE svg PUBLIC "-//W3C//DTD SVG 1.1//EN" "http://www.w3.org/Graphics/SVG/1.1/DTD/svg11.dtd">
<svg width="100%" height="100%" viewBox="0 0 87 223" version="1.1" xmlns="http://www.w3.org/2000/svg" xmlns:xlink="http://www.w3.org/1999/xlink" xml:space="preserve" xmlns:serif="http://www.serif.com/" style="fill-rule:evenodd;clip-rule:evenodd;stroke-linecap:round;stroke-linejoin:round;">
    <g transform="matrix(1,0,0,1,-8.424,-32.1661)">
        <g transform="matrix(1,0,0,1,0,25.5651)">
            <path d="M8.64,30.744" style="fill:rgb(255,255,194);fill-opacity:0.6;fill-rule:nonzero;"/>
        </g>
        <g transform="matrix(1,0,0,1,0,25.5651)">
            <path d="M8.64,30.744" style="fill:rgb(132,0,0);fill-opacity:0;fill-rule:nonzero;stroke:rgb(132,0,0);stroke-width:0.43px;"/>
        </g>
        <g transform="matrix(1,0,0,1,0,25.5651)">
            <rect x="19.44" y="34.344" width="64.8" height="183.6" style="fill:rgb(255,255,194);fill-opacity:0.6;"/>
        </g>
        <g transform="matrix(1,0,0,1,0,25.5651)">
            <rect x="19.44" y="34.344" width="64.8" height="183.6" style="fill:rgb(132,0,0);fill-opacity:0;stroke:rgb(132,0,0);stroke-width:0.43px;"/>
        </g>
        <g transform="matrix(1,0,0,1,0,25.5651)">
            <path d="M8.64,30.744" style="fill:rgb(132,0,0);fill-opacity:0;fill-rule:nonzero;stroke:rgb(132,0,0);stroke-width:0.43px;"/>
        </g>
        <g transform="matrix(1,0,0,1,0,25.5651)">
            <path d="M19.44,124.344" style="fill:rgb(132,0,0);fill-opacity:0;fill-rule:nonzero;stroke:rgb(132,0,0);stroke-width:0.43px;"/>
        </g>
        <g transform="matrix(1,0,0,1,0,25.5651)">
            <rect x="19.44" y="34.344" width="64.8" height="183.6" style="fill:rgb(132,0,0);fill-opacity:0;stroke:rgb(132,0,0);stroke-width:0.43px;"/>
        </g>
        <g transform="matrix(1,0,0,1,0,25.5651)">
            <path d="M19.44,167.544L44.64,167.544L44.64,189.144L19.44,189.144" style="fill:none;fill-rule:nonzero;stroke:rgb(132,0,0);stroke-width:0.43px;"/>
        </g>
        <g transform="matrix(1,0,0,1,0,25.5651)">
            <path d="M19.44,142.344L44.64,142.344L44.64,163.944L19.44,163.944" style="fill:none;fill-rule:nonzero;stroke:rgb(132,0,0);stroke-width:0.43px;"/>
        </g>
        <g transform="matrix(1,0,0,1,0,25.5651)">
            <path d="M19.44,106.344L44.64,106.344L44.64,138.744L19.44,138.744" style="fill:none;fill-rule:nonzero;stroke:rgb(132,0,0);stroke-width:0.43px;"/>
        </g>
        <g transform="matrix(1,0,0,1,0,25.5651)">
            <path d="M19.44,52.344L44.64,52.344L44.64,102.744L19.44,102.744" style="fill:none;fill-rule:nonzero;stroke:rgb(132,0,0);stroke-width:0.43px;"/>
        </g>
        <g transform="matrix(1,0,0,1,0,25.5651)">
            <path d="M84.24,149.544L59.04,149.544L59.04,192.744L84.24,192.744" style="fill:none;fill-rule:nonzero;stroke:rgb(132,0,0);stroke-width:0.43px;"/>
        </g>
        <g transform="matrix(1,0,0,1,0,25.5651)">
            <path d="M84.24,81.144L59.04,81.144L59.04,145.944L84.24,145.944" style="fill:none;fill-rule:nonzero;stroke:rgb(132,0,0);stroke-width:0.43px;"/>
        </g>
        <g transform="matrix(1,0,0,1,0,25.5651)">
            <path d="M19.44,174.744L8.64,174.744" style="fill:none;fill-rule:nonzero;stroke:rgb(132,0,0);stroke-width:0.43px;"/>
        </g>
        <g transform="matrix(1,0,0,1,0,25.5651)">
            <path d="M21.953,176.371L21.953,172.771L22.81,172.771L23.321,172.944L23.666,173.282L23.832,173.628L24.005,174.312L24.005,174.823L23.832,175.514L23.666,175.853L23.321,176.198L22.81,176.371L21.953,176.371" style="fill:rgb(0,100,100);fill-opacity:0;fill-rule:nonzero;stroke:rgb(0,100,100);stroke-width:0.43px;"/>
            <path d="M25.553,176.371L25.553,172.771L27.605,176.371L27.605,172.771" style="fill:rgb(0,100,100);fill-opacity:0;fill-rule:nonzero;stroke:rgb(0,100,100);stroke-width:0.43px;"/>
            <path d="M31.378,176.026L31.205,176.198L30.694,176.371L30.348,176.371L29.837,176.198L29.491,175.853L29.318,175.514L29.153,174.823L29.153,174.312L29.318,173.628L29.491,173.282L29.837,172.944L30.348,172.771L30.694,172.771L31.205,172.944L31.378,173.11" style="fill:rgb(0,100,100);fill-opacity:0;fill-rule:nonzero;stroke:rgb(0,100,100);stroke-width:0.43px;"/>
        </g>
        <g transform="matrix(1,0,0,1,0,25.5651)">
            <path d="M11.462,172.822L13.176,172.822" style="fill:none;fill-rule:nonzero;stroke:rgb(169,0,0);stroke-width:0.43px;"/>
            <path d="M11.124,173.851L12.319,170.251L13.522,173.851" style="fill:rgb(169,0,0);fill-opacity:0;fill-rule:nonzero;stroke:rgb(169,0,0);stroke-width:0.43px;"/>
            <path d="M16.61,173.851L14.551,173.851" style="fill:none;fill-rule:nonzero;stroke:rgb(169,0,0);stroke-width:0.43px;"/>
            <path d="M15.581,173.851L15.581,170.251L15.235,170.762L14.897,171.108L14.551,171.281" style="fill:rgb(169,0,0);fill-opacity:0;fill-rule:nonzero;stroke:rgb(169,0,0);stroke-width:0.43px;"/>
        </g>
        <g transform="matrix(1,0,0,1,0,25.5651)">
            <path d="M84.24,109.944L95.04,109.944" style="fill:none;fill-rule:nonzero;stroke:rgb(132,0,0);stroke-width:0.43px;"/>
        </g>
        <g transform="matrix(1,0,0,1,0,25.5651)">
            <path d="M72.806,111.571L72.806,107.971L73.663,107.971L74.182,108.144L74.52,108.482L74.693,108.828L74.866,109.512L74.866,110.023L74.693,110.714L74.52,111.053L74.182,111.398L73.663,111.571L72.806,111.571" style="fill:rgb(0,100,100);fill-opacity:0;fill-rule:nonzero;stroke:rgb(0,100,100);stroke-width:0.43px;"/>
            <path d="M77.609,109.685L78.12,109.858L78.293,110.023L78.466,110.369L78.466,110.88L78.293,111.226L78.12,111.398L77.782,111.571L76.406,111.571L76.406,107.971L77.609,107.971L77.954,108.144L78.12,108.31L78.293,108.655L78.293,109.001L78.12,109.339L77.954,109.512L77.609,109.685L76.406,109.685" style="fill:rgb(0,100,100);fill-opacity:0;fill-rule:nonzero;stroke:rgb(0,100,100);stroke-width:0.43px;"/>
            <path d="M79.668,107.971L81.893,107.971L80.698,109.339L81.209,109.339L81.554,109.512L81.72,109.685L81.893,110.023L81.893,110.88L81.72,111.226L81.554,111.398L81.209,111.571L80.179,111.571L79.841,111.398L79.668,111.226" style="fill:rgb(0,100,100);fill-opacity:0;fill-rule:nonzero;stroke:rgb(0,100,100);stroke-width:0.43px;"/>
        </g>
        <g transform="matrix(1,0,0,1,0,25.5651)">
            <path d="M85.349,108.022L87.062,108.022" style="fill:none;fill-rule:nonzero;stroke:rgb(169,0,0);stroke-width:0.43px;"/>
            <path d="M85.01,109.051L86.206,105.451L87.408,109.051" style="fill:rgb(169,0,0);fill-opacity:0;fill-rule:nonzero;stroke:rgb(169,0,0);stroke-width:0.43px;"/>
            <path d="M90.497,109.051L88.438,109.051" style="fill:none;fill-rule:nonzero;stroke:rgb(169,0,0);stroke-width:0.43px;"/>
            <path d="M89.467,109.051L89.467,105.451L89.122,105.962L88.776,106.308L88.438,106.481" style="fill:rgb(169,0,0);fill-opacity:0;fill-rule:nonzero;stroke:rgb(169,0,0);stroke-width:0.43px;"/>
            <path d="M92.722,105.451L93.067,105.451L93.406,105.624L93.578,105.79L93.751,106.135L93.924,106.819L93.924,107.676L93.751,108.36L93.578,108.706L93.406,108.878L93.067,109.051L92.722,109.051L92.376,108.878L92.21,108.706L92.038,108.36L91.865,107.676L91.865,106.819L92.038,106.135L92.21,105.79L92.376,105.624L92.722,105.451" style="fill:rgb(169,0,0);fill-opacity:0;fill-rule:nonzero;stroke:rgb(169,0,0);stroke-width:0.43px;"/>
        </g>
        <g transform="matrix(1,0,0,1,0,25.5651)">
            <path d="M84.24,117.144L95.04,117.144" style="fill:none;fill-rule:nonzero;stroke:rgb(132,0,0);stroke-width:0.43px;"/>
        </g>
        <g transform="matrix(1,0,0,1,0,25.5651)">
            <path d="M72.806,118.771L72.806,115.171L73.663,115.171L74.182,115.344L74.52,115.682L74.693,116.028L74.866,116.712L74.866,117.223L74.693,117.914L74.52,118.253L74.182,118.598L73.663,118.771L72.806,118.771" style="fill:rgb(0,100,100);fill-opacity:0;fill-rule:nonzero;stroke:rgb(0,100,100);stroke-width:0.43px;"/>
            <path d="M77.609,116.885L78.12,117.058L78.293,117.223L78.466,117.569L78.466,118.08L78.293,118.426L78.12,118.598L77.782,118.771L76.406,118.771L76.406,115.171L77.609,115.171L77.954,115.344L78.12,115.51L78.293,115.855L78.293,116.201L78.12,116.539L77.954,116.712L77.609,116.885L76.406,116.885" style="fill:rgb(0,100,100);fill-opacity:0;fill-rule:nonzero;stroke:rgb(0,100,100);stroke-width:0.43px;"/>
            <path d="M81.554,116.366L81.554,118.771" style="fill:none;fill-rule:nonzero;stroke:rgb(0,100,100);stroke-width:0.43px;"/>
            <path d="M80.698,114.998L79.841,117.569L82.066,117.569" style="fill:rgb(0,100,100);fill-opacity:0;fill-rule:nonzero;stroke:rgb(0,100,100);stroke-width:0.43px;"/>
        </g>
        <g transform="matrix(1,0,0,1,0,25.5651)">
            <path d="M85.349,115.222L87.062,115.222" style="fill:none;fill-rule:nonzero;stroke:rgb(169,0,0);stroke-width:0.43px;"/>
            <path d="M85.01,116.251L86.206,112.651L87.408,116.251" style="fill:rgb(169,0,0);fill-opacity:0;fill-rule:nonzero;stroke:rgb(169,0,0);stroke-width:0.43px;"/>
            <path d="M90.497,116.251L88.438,116.251" style="fill:none;fill-rule:nonzero;stroke:rgb(169,0,0);stroke-width:0.43px;"/>
            <path d="M89.467,116.251L89.467,112.651L89.122,113.162L88.776,113.508L88.438,113.681" style="fill:rgb(169,0,0);fill-opacity:0;fill-rule:nonzero;stroke:rgb(169,0,0);stroke-width:0.43px;"/>
            <path d="M93.924,116.251L91.865,116.251" style="fill:none;fill-rule:nonzero;stroke:rgb(169,0,0);stroke-width:0.43px;"/>
            <path d="M92.894,116.251L92.894,112.651L92.549,113.162L92.21,113.508L91.865,113.681" style="fill:rgb(169,0,0);fill-opacity:0;fill-rule:nonzero;stroke:rgb(169,0,0);stroke-width:0.43px;"/>
        </g>
        <g transform="matrix(1,0,0,1,0,25.5651)">
            <path d="M84.24,124.344L95.04,124.344" style="fill:none;fill-rule:nonzero;stroke:rgb(132,0,0);stroke-width:0.43px;"/>
        </g>
        <g transform="matrix(1,0,0,1,0,25.5651)">
            <path d="M72.806,125.971L72.806,122.371L73.663,122.371L74.182,122.544L74.52,122.882L74.693,123.228L74.866,123.912L74.866,124.423L74.693,125.114L74.52,125.453L74.182,125.798L73.663,125.971L72.806,125.971" style="fill:rgb(0,100,100);fill-opacity:0;fill-rule:nonzero;stroke:rgb(0,100,100);stroke-width:0.43px;"/>
            <path d="M77.609,124.085L78.12,124.258L78.293,124.423L78.466,124.769L78.466,125.28L78.293,125.626L78.12,125.798L77.782,125.971L76.406,125.971L76.406,122.371L77.609,122.371L77.954,122.544L78.12,122.71L78.293,123.055L78.293,123.401L78.12,123.739L77.954,123.912L77.609,124.085L76.406,124.085" style="fill:rgb(0,100,100);fill-opacity:0;fill-rule:nonzero;stroke:rgb(0,100,100);stroke-width:0.43px;"/>
            <path d="M81.72,122.371L80.006,122.371L79.841,124.085L80.006,123.912L80.352,123.739L81.209,123.739L81.554,123.912L81.72,124.085L81.893,124.423L81.893,125.28L81.72,125.626L81.554,125.798L81.209,125.971L80.352,125.971L80.006,125.798L79.841,125.626" style="fill:rgb(0,100,100);fill-opacity:0;fill-rule:nonzero;stroke:rgb(0,100,100);stroke-width:0.43px;"/>
        </g>
        <g transform="matrix(1,0,0,1,0,25.5651)">
            <path d="M85.349,122.422L87.062,122.422" style="fill:none;fill-rule:nonzero;stroke:rgb(169,0,0);stroke-width:0.43px;"/>
            <path d="M85.01,123.451L86.206,119.851L87.408,123.451" style="fill:rgb(169,0,0);fill-opacity:0;fill-rule:nonzero;stroke:rgb(169,0,0);stroke-width:0.43px;"/>
            <path d="M90.497,123.451L88.438,123.451" style="fill:none;fill-rule:nonzero;stroke:rgb(169,0,0);stroke-width:0.43px;"/>
            <path d="M89.467,123.451L89.467,119.851L89.122,120.362L88.776,120.708L88.438,120.881" style="fill:rgb(169,0,0);fill-opacity:0;fill-rule:nonzero;stroke:rgb(169,0,0);stroke-width:0.43px;"/>
            <path d="M91.865,120.19L92.038,120.024L92.376,119.851L93.24,119.851L93.578,120.024L93.751,120.19L93.924,120.535L93.924,120.881L93.751,121.392L91.692,123.451L93.924,123.451" style="fill:rgb(169,0,0);fill-opacity:0;fill-rule:nonzero;stroke:rgb(169,0,0);stroke-width:0.43px;"/>
        </g>
        <g transform="matrix(1,0,0,1,0,25.5651)">
            <path d="M84.24,131.544L95.04,131.544" style="fill:none;fill-rule:nonzero;stroke:rgb(132,0,0);stroke-width:0.43px;"/>
        </g>
        <g transform="matrix(1,0,0,1,0,25.5651)">
            <path d="M72.806,133.171L72.806,129.571L73.663,129.571L74.182,129.744L74.52,130.082L74.693,130.428L74.866,131.112L74.866,131.623L74.693,132.314L74.52,132.653L74.182,132.998L73.663,133.171L72.806,133.171" style="fill:rgb(0,100,100);fill-opacity:0;fill-rule:nonzero;stroke:rgb(0,100,100);stroke-width:0.43px;"/>
            <path d="M77.609,131.285L78.12,131.458L78.293,131.623L78.466,131.969L78.466,132.48L78.293,132.826L78.12,132.998L77.782,133.171L76.406,133.171L76.406,129.571L77.609,129.571L77.954,129.744L78.12,129.91L78.293,130.255L78.293,130.601L78.12,130.939L77.954,131.112L77.609,131.285L76.406,131.285" style="fill:rgb(0,100,100);fill-opacity:0;fill-rule:nonzero;stroke:rgb(0,100,100);stroke-width:0.43px;"/>
            <path d="M81.554,129.571L80.863,129.571L80.525,129.744L80.352,129.91L80.006,130.428L79.841,131.112L79.841,132.48L80.006,132.826L80.179,132.998L80.525,133.171L81.209,133.171L81.554,132.998L81.72,132.826L81.893,132.48L81.893,131.623L81.72,131.285L81.554,131.112L81.209,130.939L80.525,130.939L80.179,131.112L80.006,131.285L79.841,131.623" style="fill:rgb(0,100,100);fill-opacity:0;fill-rule:nonzero;stroke:rgb(0,100,100);stroke-width:0.43px;"/>
        </g>
        <g transform="matrix(1,0,0,1,0,25.5651)">
            <path d="M85.349,129.622L87.062,129.622" style="fill:none;fill-rule:nonzero;stroke:rgb(169,0,0);stroke-width:0.43px;"/>
            <path d="M85.01,130.651L86.206,127.051L87.408,130.651" style="fill:rgb(169,0,0);fill-opacity:0;fill-rule:nonzero;stroke:rgb(169,0,0);stroke-width:0.43px;"/>
            <path d="M90.497,130.651L88.438,130.651" style="fill:none;fill-rule:nonzero;stroke:rgb(169,0,0);stroke-width:0.43px;"/>
            <path d="M89.467,130.651L89.467,127.051L89.122,127.562L88.776,127.908L88.438,128.081" style="fill:rgb(169,0,0);fill-opacity:0;fill-rule:nonzero;stroke:rgb(169,0,0);stroke-width:0.43px;"/>
            <path d="M91.692,127.051L93.924,127.051L92.722,128.419L93.24,128.419L93.578,128.592L93.751,128.765L93.924,129.103L93.924,129.96L93.751,130.306L93.578,130.478L93.24,130.651L92.21,130.651L91.865,130.478L91.692,130.306" style="fill:rgb(169,0,0);fill-opacity:0;fill-rule:nonzero;stroke:rgb(169,0,0);stroke-width:0.43px;"/>
        </g>
        <g transform="matrix(1,0,0,1,0,25.5651)">
            <path d="M84.24,138.744L95.04,138.744" style="fill:none;fill-rule:nonzero;stroke:rgb(132,0,0);stroke-width:0.43px;"/>
        </g>
        <g transform="matrix(1,0,0,1,0,25.5651)">
            <path d="M72.806,140.371L72.806,136.771L73.663,136.771L74.182,136.944L74.52,137.282L74.693,137.628L74.866,138.312L74.866,138.823L74.693,139.514L74.52,139.853L74.182,140.198L73.663,140.371L72.806,140.371" style="fill:rgb(0,100,100);fill-opacity:0;fill-rule:nonzero;stroke:rgb(0,100,100);stroke-width:0.43px;"/>
            <path d="M77.609,138.485L78.12,138.658L78.293,138.823L78.466,139.169L78.466,139.68L78.293,140.026L78.12,140.198L77.782,140.371L76.406,140.371L76.406,136.771L77.609,136.771L77.954,136.944L78.12,137.11L78.293,137.455L78.293,137.801L78.12,138.139L77.954,138.312L77.609,138.485L76.406,138.485" style="fill:rgb(0,100,100);fill-opacity:0;fill-rule:nonzero;stroke:rgb(0,100,100);stroke-width:0.43px;"/>
            <path d="M79.668,136.771L82.066,136.771L80.525,140.371" style="fill:rgb(0,100,100);fill-opacity:0;fill-rule:nonzero;stroke:rgb(0,100,100);stroke-width:0.43px;"/>
        </g>
        <g transform="matrix(1,0,0,1,0,25.5651)">
            <path d="M85.349,136.822L87.062,136.822" style="fill:none;fill-rule:nonzero;stroke:rgb(169,0,0);stroke-width:0.43px;"/>
            <path d="M85.01,137.851L86.206,134.251L87.408,137.851" style="fill:rgb(169,0,0);fill-opacity:0;fill-rule:nonzero;stroke:rgb(169,0,0);stroke-width:0.43px;"/>
            <path d="M90.497,137.851L88.438,137.851" style="fill:none;fill-rule:nonzero;stroke:rgb(169,0,0);stroke-width:0.43px;"/>
            <path d="M89.467,137.851L89.467,134.251L89.122,134.762L88.776,135.108L88.438,135.281" style="fill:rgb(169,0,0);fill-opacity:0;fill-rule:nonzero;stroke:rgb(169,0,0);stroke-width:0.43px;"/>
            <path d="M93.578,135.446L93.578,137.851" style="fill:none;fill-rule:nonzero;stroke:rgb(169,0,0);stroke-width:0.43px;"/>
            <path d="M92.722,134.078L91.865,136.649L94.097,136.649" style="fill:rgb(169,0,0);fill-opacity:0;fill-rule:nonzero;stroke:rgb(169,0,0);stroke-width:0.43px;"/>
        </g>
        <g transform="matrix(1,0,0,1,0,25.5651)">
            <path d="M51.84,34.344L51.84,23.544" style="fill:none;fill-rule:nonzero;stroke:rgb(132,0,0);stroke-width:0.43px;"/>
        </g>
        <g transform="matrix(1,0,0,1,0,25.5651)">
            <path d="M49.867,45.936L53.467,44.741L49.867,43.538" style="fill:rgb(0,100,100);fill-opacity:0;fill-rule:nonzero;stroke:rgb(0,100,100);stroke-width:0.43px;"/>
            <path d="M53.467,42.336L49.867,42.336L49.867,41.479L50.04,40.968L50.378,40.622L50.724,40.457L51.408,40.284L51.919,40.284L52.61,40.457L52.949,40.622L53.294,40.968L53.467,41.479L53.467,42.336" style="fill:rgb(0,100,100);fill-opacity:0;fill-rule:nonzero;stroke:rgb(0,100,100);stroke-width:0.43px;"/>
            <path d="M53.467,38.736L49.867,38.736L49.867,37.879L50.04,37.368L50.378,37.022L50.724,36.857L51.408,36.684L51.919,36.684L52.61,36.857L52.949,37.022L53.294,37.368L53.467,37.879L53.467,38.736" style="fill:rgb(0,100,100);fill-opacity:0;fill-rule:nonzero;stroke:rgb(0,100,100);stroke-width:0.43px;"/>
        </g>
        <g transform="matrix(1,0,0,1,0,25.5651)">
            <path d="M49.918,33.228L49.918,31.514" style="fill:none;fill-rule:nonzero;stroke:rgb(169,0,0);stroke-width:0.43px;"/>
            <path d="M50.947,33.566L47.347,32.371L50.947,31.169" style="fill:rgb(169,0,0);fill-opacity:0;fill-rule:nonzero;stroke:rgb(169,0,0);stroke-width:0.43px;"/>
            <path d="M50.947,28.08L50.947,30.139" style="fill:none;fill-rule:nonzero;stroke:rgb(169,0,0);stroke-width:0.43px;"/>
            <path d="M50.947,29.11L47.347,29.11L47.858,29.455L48.204,29.801L48.377,30.139" style="fill:rgb(169,0,0);fill-opacity:0;fill-rule:nonzero;stroke:rgb(169,0,0);stroke-width:0.43px;"/>
            <path d="M47.347,24.826L47.347,26.539L49.061,26.712L48.888,26.539L48.715,26.201L48.715,25.344L48.888,24.998L49.061,24.826L49.399,24.653L50.256,24.653L50.602,24.826L50.774,24.998L50.947,25.344L50.947,26.201L50.774,26.539L50.602,26.712" style="fill:rgb(169,0,0);fill-opacity:0;fill-rule:nonzero;stroke:rgb(169,0,0);stroke-width:0.43px;"/>
        </g>
        <g transform="matrix(1,0,0,1,0,25.5651)">
            <path d="M62.64,217.944L62.64,228.744" style="fill:none;fill-rule:nonzero;stroke:rgb(132,0,0);stroke-width:0.43px;"/>
        </g>
        <g transform="matrix(1,0,0,1,0,25.5651)">
            <path d="M60.84,213.545L60.667,213.883L60.667,214.402L60.84,214.913L61.178,215.258L61.524,215.424L62.208,215.597L62.719,215.597L63.41,215.424L63.749,215.258L64.094,214.913L64.267,214.402L64.267,214.056L64.094,213.545L63.922,213.372L62.719,213.372L62.719,214.056" style="fill:rgb(0,100,100);fill-opacity:0;fill-rule:nonzero;stroke:rgb(0,100,100);stroke-width:0.43px;"/>
            <path d="M64.267,211.824L60.667,211.824L64.267,209.772L60.667,209.772" style="fill:rgb(0,100,100);fill-opacity:0;fill-rule:nonzero;stroke:rgb(0,100,100);stroke-width:0.43px;"/>
            <path d="M64.267,208.058L60.667,208.058L60.667,207.202L60.84,206.683L61.178,206.345L61.524,206.172L62.208,205.999L62.719,205.999L63.41,206.172L63.749,206.345L64.094,206.683L64.267,207.202L64.267,208.058" style="fill:rgb(0,100,100);fill-opacity:0;fill-rule:nonzero;stroke:rgb(0,100,100);stroke-width:0.43px;"/>
        </g>
        <g transform="matrix(1,0,0,1,0,25.5651)">
            <path d="M19.44,45.144L8.64,45.144" style="fill:none;fill-rule:nonzero;stroke:rgb(132,0,0);stroke-width:0.43px;"/>
        </g>
        <g transform="matrix(1,0,0,1,0,25.5651)">
            <path d="M21.434,43.171L22.637,46.771L23.832,43.171" style="fill:rgb(0,100,100);fill-opacity:0;fill-rule:nonzero;stroke:rgb(0,100,100);stroke-width:0.43px;"/>
            <path d="M24.178,47.11L26.921,47.11" style="fill:none;fill-rule:nonzero;stroke:rgb(0,100,100);stroke-width:0.43px;"/>
            <path d="M28.462,43.171L29.153,43.171L29.491,43.344L29.837,43.682L30.01,44.366L30.01,45.569L29.837,46.253L29.491,46.598L29.153,46.771L28.462,46.771L28.123,46.598L27.778,46.253L27.605,45.569L27.605,44.366L27.778,43.682L28.123,43.344L28.462,43.171" style="fill:rgb(0,100,100);fill-opacity:0;fill-rule:nonzero;stroke:rgb(0,100,100);stroke-width:0.43px;"/>
            <path d="M31.55,43.171L31.55,46.08L31.723,46.426L31.896,46.598L32.234,46.771L32.918,46.771L33.264,46.598L33.437,46.426L33.61,46.08L33.61,43.171" style="fill:rgb(0,100,100);fill-opacity:0;fill-rule:nonzero;stroke:rgb(0,100,100);stroke-width:0.43px;"/>
            <path d="M34.805,43.171L36.864,43.171" style="fill:none;fill-rule:nonzero;stroke:rgb(0,100,100);stroke-width:0.43px;"/>
            <path d="M35.834,46.771L35.834,43.171" style="fill:none;fill-rule:nonzero;stroke:rgb(0,100,100);stroke-width:0.43px;"/>
        </g>
        <g transform="matrix(1,0,0,1,0,25.5651)">
            <path d="M9.749,43.222L11.462,43.222" style="fill:none;fill-rule:nonzero;stroke:rgb(169,0,0);stroke-width:0.43px;"/>
            <path d="M9.41,44.251L10.606,40.651L11.808,44.251" style="fill:rgb(169,0,0);fill-opacity:0;fill-rule:nonzero;stroke:rgb(169,0,0);stroke-width:0.43px;"/>
            <path d="M14.897,44.251L12.838,44.251" style="fill:none;fill-rule:nonzero;stroke:rgb(169,0,0);stroke-width:0.43px;"/>
            <path d="M13.867,44.251L13.867,40.651L13.522,41.162L13.176,41.508L12.838,41.681" style="fill:rgb(169,0,0);fill-opacity:0;fill-rule:nonzero;stroke:rgb(169,0,0);stroke-width:0.43px;"/>
            <path d="M16.092,40.651L18.497,40.651L16.949,44.251" style="fill:rgb(169,0,0);fill-opacity:0;fill-rule:nonzero;stroke:rgb(169,0,0);stroke-width:0.43px;"/>
        </g>
        <g transform="matrix(1,0,0,1,0,25.5651)">
            <path d="M19.44,59.544L8.64,59.544" style="fill:none;fill-rule:nonzero;stroke:rgb(132,0,0);stroke-width:0.43px;"/>
        </g>
        <g transform="matrix(1,0,0,1,0,25.5651)">
            <path d="M24.005,60.826L23.832,60.998L23.321,61.171L22.975,61.171L22.464,60.998L22.118,60.653L21.953,60.314L21.78,59.623L21.78,59.112L21.953,58.428L22.118,58.082L22.464,57.744L22.975,57.571L23.321,57.571L23.832,57.744L24.005,57.91" style="fill:rgb(0,100,100);fill-opacity:0;fill-rule:nonzero;stroke:rgb(0,100,100);stroke-width:0.43px;"/>
            <path d="M25.38,60.142L27.094,60.142" style="fill:none;fill-rule:nonzero;stroke:rgb(0,100,100);stroke-width:0.43px;"/>
            <path d="M25.034,61.171L26.237,57.571L27.432,61.171" style="fill:rgb(0,100,100);fill-opacity:0;fill-rule:nonzero;stroke:rgb(0,100,100);stroke-width:0.43px;"/>
            <path d="M28.634,61.171L28.634,57.571L30.01,57.571L30.348,57.744L30.521,57.91L30.694,58.255L30.694,58.766L30.521,59.112L30.348,59.285L30.01,59.458L28.634,59.458" style="fill:rgb(0,100,100);fill-opacity:0;fill-rule:nonzero;stroke:rgb(0,100,100);stroke-width:0.43px;"/>
            <path d="M31.378,61.51L34.121,61.51" style="fill:none;fill-rule:nonzero;stroke:rgb(0,100,100);stroke-width:0.43px;"/>
            <path d="M34.632,57.571L36.864,57.571L35.662,58.939L36.18,58.939L36.518,59.112L36.691,59.285L36.864,59.623L36.864,60.48L36.691,60.826L36.518,60.998L36.18,61.171L35.15,61.171L34.805,60.998L34.632,60.826" style="fill:rgb(0,100,100);fill-opacity:0;fill-rule:nonzero;stroke:rgb(0,100,100);stroke-width:0.43px;"/>
            <path d="M38.405,61.171L38.405,57.571L40.464,61.171L40.464,57.571" style="fill:rgb(0,100,100);fill-opacity:0;fill-rule:nonzero;stroke:rgb(0,100,100);stroke-width:0.43px;"/>
        </g>
        <g transform="matrix(1,0,0,1,0,25.5651)">
            <path d="M9.749,57.622L11.462,57.622" style="fill:none;fill-rule:nonzero;stroke:rgb(169,0,0);stroke-width:0.43px;"/>
            <path d="M9.41,58.651L10.606,55.051L11.808,58.651" style="fill:rgb(169,0,0);fill-opacity:0;fill-rule:nonzero;stroke:rgb(169,0,0);stroke-width:0.43px;"/>
            <path d="M14.897,58.651L12.838,58.651" style="fill:none;fill-rule:nonzero;stroke:rgb(169,0,0);stroke-width:0.43px;"/>
            <path d="M13.867,58.651L13.867,55.051L13.522,55.562L13.176,55.908L12.838,56.081" style="fill:rgb(169,0,0);fill-opacity:0;fill-rule:nonzero;stroke:rgb(169,0,0);stroke-width:0.43px;"/>
            <path d="M16.949,56.592L16.61,56.419L16.438,56.246L16.265,55.908L16.265,55.735L16.438,55.39L16.61,55.224L16.949,55.051L17.64,55.051L17.978,55.224L18.151,55.39L18.324,55.735L18.324,55.908L18.151,56.246L17.978,56.419L17.64,56.592L16.949,56.592L16.61,56.765L16.438,56.938L16.265,57.276L16.265,57.96L16.438,58.306L16.61,58.478L16.949,58.651L17.64,58.651L17.978,58.478L18.151,58.306L18.324,57.96L18.324,57.276L18.151,56.938L17.978,56.765L17.64,56.592" style="fill:rgb(169,0,0);fill-opacity:0;fill-rule:nonzero;stroke:rgb(169,0,0);stroke-width:0.43px;"/>
        </g>
        <g transform="matrix(1,0,0,1,0,25.5651)">
            <path d="M19.44,77.544L8.64,77.544" style="fill:none;fill-rule:nonzero;stroke:rgb(132,0,0);stroke-width:0.43px;"/>
        </g>
        <g transform="matrix(1,0,0,1,0,25.5651)">
            <path d="M24.005,78.826L23.832,78.998L23.321,79.171L22.975,79.171L22.464,78.998L22.118,78.653L21.953,78.314L21.78,77.623L21.78,77.112L21.953,76.428L22.118,76.082L22.464,75.744L22.975,75.571L23.321,75.571L23.832,75.744L24.005,75.91" style="fill:rgb(0,100,100);fill-opacity:0;fill-rule:nonzero;stroke:rgb(0,100,100);stroke-width:0.43px;"/>
            <path d="M25.38,78.142L27.094,78.142" style="fill:none;fill-rule:nonzero;stroke:rgb(0,100,100);stroke-width:0.43px;"/>
            <path d="M25.034,79.171L26.237,75.571L27.432,79.171" style="fill:rgb(0,100,100);fill-opacity:0;fill-rule:nonzero;stroke:rgb(0,100,100);stroke-width:0.43px;"/>
            <path d="M28.634,79.171L28.634,75.571L30.01,75.571L30.348,75.744L30.521,75.91L30.694,76.255L30.694,76.766L30.521,77.112L30.348,77.285L30.01,77.458L28.634,77.458" style="fill:rgb(0,100,100);fill-opacity:0;fill-rule:nonzero;stroke:rgb(0,100,100);stroke-width:0.43px;"/>
            <path d="M31.378,79.51L34.121,79.51" style="fill:none;fill-rule:nonzero;stroke:rgb(0,100,100);stroke-width:0.43px;"/>
            <path d="M36.864,79.171L34.805,79.171" style="fill:none;fill-rule:nonzero;stroke:rgb(0,100,100);stroke-width:0.43px;"/>
            <path d="M35.834,79.171L35.834,75.571L35.496,76.082L35.15,76.428L34.805,76.601" style="fill:rgb(0,100,100);fill-opacity:0;fill-rule:nonzero;stroke:rgb(0,100,100);stroke-width:0.43px;"/>
            <path d="M38.405,79.171L38.405,75.571L39.78,75.571L40.118,75.744L40.291,75.91L40.464,76.255L40.464,76.766L40.291,77.112L40.118,77.285L39.78,77.458L38.405,77.458" style="fill:rgb(0,100,100);fill-opacity:0;fill-rule:nonzero;stroke:rgb(0,100,100);stroke-width:0.43px;"/>
        </g>
        <g transform="matrix(1,0,0,1,0,25.5651)">
            <path d="M9.749,75.622L11.462,75.622" style="fill:none;fill-rule:nonzero;stroke:rgb(169,0,0);stroke-width:0.43px;"/>
            <path d="M9.41,76.651L10.606,73.051L11.808,76.651" style="fill:rgb(169,0,0);fill-opacity:0;fill-rule:nonzero;stroke:rgb(169,0,0);stroke-width:0.43px;"/>
            <path d="M14.897,76.651L12.838,76.651" style="fill:none;fill-rule:nonzero;stroke:rgb(169,0,0);stroke-width:0.43px;"/>
            <path d="M13.867,76.651L13.867,73.051L13.522,73.562L13.176,73.908L12.838,74.081" style="fill:rgb(169,0,0);fill-opacity:0;fill-rule:nonzero;stroke:rgb(169,0,0);stroke-width:0.43px;"/>
            <path d="M16.61,76.651L17.294,76.651L17.64,76.478L17.806,76.306L18.151,75.794L18.324,75.103L18.324,73.735L18.151,73.39L17.978,73.224L17.64,73.051L16.949,73.051L16.61,73.224L16.438,73.39L16.265,73.735L16.265,74.592L16.438,74.938L16.61,75.103L16.949,75.276L17.64,75.276L17.978,75.103L18.151,74.938L18.324,74.592" style="fill:rgb(169,0,0);fill-opacity:0;fill-rule:nonzero;stroke:rgb(169,0,0);stroke-width:0.43px;"/>
        </g>
        <g transform="matrix(1,0,0,1,0,25.5651)">
            <path d="M84.24,45.144L95.04,45.144" style="fill:none;fill-rule:nonzero;stroke:rgb(132,0,0);stroke-width:0.43px;"/>
        </g>
        <g transform="matrix(1,0,0,1,0,25.5651)">
            <path d="M73.325,45.396L73.498,45.223L73.836,45.058L74.52,45.396L74.866,45.223L75.038,45.058" style="fill:rgb(0,100,100);fill-opacity:0;fill-rule:nonzero;stroke:rgb(0,100,100);stroke-width:0.43px;"/>
            <path d="M78.466,46.426L78.293,46.598L77.782,46.771L77.436,46.771L76.925,46.598L76.579,46.253L76.406,45.914L76.241,45.223L76.241,44.712L76.406,44.028L76.579,43.682L76.925,43.344L77.436,43.171L77.782,43.171L78.293,43.344L78.466,43.51" style="fill:rgb(0,100,100);fill-opacity:0;fill-rule:nonzero;stroke:rgb(0,100,100);stroke-width:0.43px;"/>
            <path d="M79.841,46.598L80.352,46.771L81.209,46.771L81.554,46.598L81.72,46.426L81.893,46.08L81.893,45.742L81.72,45.396L81.554,45.223L81.209,45.058L80.525,44.885L80.179,44.712L80.006,44.539L79.841,44.201L79.841,43.855L80.006,43.51L80.179,43.344L80.525,43.171L81.382,43.171L81.893,43.344" style="fill:rgb(0,100,100);fill-opacity:0;fill-rule:nonzero;stroke:rgb(0,100,100);stroke-width:0.43px;"/>
        </g>
        <g transform="matrix(1,0,0,1,0,25.5651)">
            <path d="M87.062,43.222L88.776,43.222" style="fill:none;fill-rule:nonzero;stroke:rgb(169,0,0);stroke-width:0.43px;"/>
            <path d="M86.724,44.251L87.919,40.651L89.122,44.251" style="fill:rgb(169,0,0);fill-opacity:0;fill-rule:nonzero;stroke:rgb(169,0,0);stroke-width:0.43px;"/>
            <path d="M90.151,40.99L90.324,40.824L90.662,40.651L91.519,40.651L91.865,40.824L92.038,40.99L92.21,41.335L92.21,41.681L92.038,42.192L89.978,44.251L92.21,44.251" style="fill:rgb(169,0,0);fill-opacity:0;fill-rule:nonzero;stroke:rgb(169,0,0);stroke-width:0.43px;"/>
        </g>
        <g transform="matrix(1,0,0,1,0,25.5651)">
            <path d="M19.44,95.544L8.64,95.544" style="fill:none;fill-rule:nonzero;stroke:rgb(132,0,0);stroke-width:0.43px;"/>
        </g>
        <g transform="matrix(1,0,0,1,0,25.5651)">
            <path d="M24.005,96.826L23.832,96.998L23.321,97.171L22.975,97.171L22.464,96.998L22.118,96.653L21.953,96.314L21.78,95.623L21.78,95.112L21.953,94.428L22.118,94.082L22.464,93.744L22.975,93.571L23.321,93.571L23.832,93.744L24.005,93.91" style="fill:rgb(0,100,100);fill-opacity:0;fill-rule:nonzero;stroke:rgb(0,100,100);stroke-width:0.43px;"/>
            <path d="M25.38,96.142L27.094,96.142" style="fill:none;fill-rule:nonzero;stroke:rgb(0,100,100);stroke-width:0.43px;"/>
            <path d="M25.034,97.171L26.237,93.571L27.432,97.171" style="fill:rgb(0,100,100);fill-opacity:0;fill-rule:nonzero;stroke:rgb(0,100,100);stroke-width:0.43px;"/>
            <path d="M28.634,97.171L28.634,93.571L30.01,93.571L30.348,93.744L30.521,93.91L30.694,94.255L30.694,94.766L30.521,95.112L30.348,95.285L30.01,95.458L28.634,95.458" style="fill:rgb(0,100,100);fill-opacity:0;fill-rule:nonzero;stroke:rgb(0,100,100);stroke-width:0.43px;"/>
            <path d="M31.378,97.51L34.121,97.51" style="fill:none;fill-rule:nonzero;stroke:rgb(0,100,100);stroke-width:0.43px;"/>
            <path d="M36.864,97.171L34.805,97.171" style="fill:none;fill-rule:nonzero;stroke:rgb(0,100,100);stroke-width:0.43px;"/>
            <path d="M35.834,97.171L35.834,93.571L35.496,94.082L35.15,94.428L34.805,94.601" style="fill:rgb(0,100,100);fill-opacity:0;fill-rule:nonzero;stroke:rgb(0,100,100);stroke-width:0.43px;"/>
            <path d="M38.405,97.171L38.405,93.571L40.464,97.171L40.464,93.571" style="fill:rgb(0,100,100);fill-opacity:0;fill-rule:nonzero;stroke:rgb(0,100,100);stroke-width:0.43px;"/>
        </g>
        <g transform="matrix(1,0,0,1,0,25.5651)">
            <path d="M9.749,93.622L11.462,93.622" style="fill:none;fill-rule:nonzero;stroke:rgb(169,0,0);stroke-width:0.43px;"/>
            <path d="M9.41,94.651L10.606,91.051L11.808,94.651" style="fill:rgb(169,0,0);fill-opacity:0;fill-rule:nonzero;stroke:rgb(169,0,0);stroke-width:0.43px;"/>
            <path d="M12.838,91.39L13.01,91.224L13.349,91.051L14.206,91.051L14.551,91.224L14.724,91.39L14.897,91.735L14.897,92.081L14.724,92.592L12.665,94.651L14.897,94.651" style="fill:rgb(169,0,0);fill-opacity:0;fill-rule:nonzero;stroke:rgb(169,0,0);stroke-width:0.43px;"/>
            <path d="M17.122,91.051L17.467,91.051L17.806,91.224L17.978,91.39L18.151,91.735L18.324,92.419L18.324,93.276L18.151,93.96L17.978,94.306L17.806,94.478L17.467,94.651L17.122,94.651L16.776,94.478L16.61,94.306L16.438,93.96L16.265,93.276L16.265,92.419L16.438,91.735L16.61,91.39L16.776,91.224L17.122,91.051" style="fill:rgb(169,0,0);fill-opacity:0;fill-rule:nonzero;stroke:rgb(169,0,0);stroke-width:0.43px;"/>
        </g>
        <g transform="matrix(1,0,0,1,0,25.5651)">
            <path d="M19.44,113.544L8.64,113.544" style="fill:none;fill-rule:nonzero;stroke:rgb(132,0,0);stroke-width:0.43px;"/>
        </g>
        <g transform="matrix(1,0,0,1,0,25.5651)">
            <path d="M24.005,114.826L23.832,114.998L23.321,115.171L22.975,115.171L22.464,114.998L22.118,114.653L21.953,114.314L21.78,113.623L21.78,113.112L21.953,112.428L22.118,112.082L22.464,111.744L22.975,111.571L23.321,111.571L23.832,111.744L24.005,111.91" style="fill:rgb(0,100,100);fill-opacity:0;fill-rule:nonzero;stroke:rgb(0,100,100);stroke-width:0.43px;"/>
            <path d="M25.38,114.142L27.094,114.142" style="fill:none;fill-rule:nonzero;stroke:rgb(0,100,100);stroke-width:0.43px;"/>
            <path d="M25.034,115.171L26.237,111.571L27.432,115.171" style="fill:rgb(0,100,100);fill-opacity:0;fill-rule:nonzero;stroke:rgb(0,100,100);stroke-width:0.43px;"/>
            <path d="M28.634,115.171L28.634,111.571L30.01,111.571L30.348,111.744L30.521,111.91L30.694,112.255L30.694,112.766L30.521,113.112L30.348,113.285L30.01,113.458L28.634,113.458" style="fill:rgb(0,100,100);fill-opacity:0;fill-rule:nonzero;stroke:rgb(0,100,100);stroke-width:0.43px;"/>
            <path d="M31.378,115.51L34.121,115.51" style="fill:none;fill-rule:nonzero;stroke:rgb(0,100,100);stroke-width:0.43px;"/>
            <path d="M34.805,111.91L34.978,111.744L35.323,111.571L36.18,111.571L36.518,111.744L36.691,111.91L36.864,112.255L36.864,112.601L36.691,113.112L34.632,115.171L36.864,115.171" style="fill:rgb(0,100,100);fill-opacity:0;fill-rule:nonzero;stroke:rgb(0,100,100);stroke-width:0.43px;"/>
            <path d="M38.405,115.171L38.405,111.571L40.464,115.171L40.464,111.571" style="fill:rgb(0,100,100);fill-opacity:0;fill-rule:nonzero;stroke:rgb(0,100,100);stroke-width:0.43px;"/>
        </g>
        <g transform="matrix(1,0,0,1,0,25.5651)">
            <path d="M9.749,111.622L11.462,111.622" style="fill:none;fill-rule:nonzero;stroke:rgb(169,0,0);stroke-width:0.43px;"/>
            <path d="M9.41,112.651L10.606,109.051L11.808,112.651" style="fill:rgb(169,0,0);fill-opacity:0;fill-rule:nonzero;stroke:rgb(169,0,0);stroke-width:0.43px;"/>
            <path d="M12.838,109.39L13.01,109.224L13.349,109.051L14.206,109.051L14.551,109.224L14.724,109.39L14.897,109.735L14.897,110.081L14.724,110.592L12.665,112.651L14.897,112.651" style="fill:rgb(169,0,0);fill-opacity:0;fill-rule:nonzero;stroke:rgb(169,0,0);stroke-width:0.43px;"/>
            <path d="M18.324,112.651L16.265,112.651" style="fill:none;fill-rule:nonzero;stroke:rgb(169,0,0);stroke-width:0.43px;"/>
            <path d="M17.294,112.651L17.294,109.051L16.949,109.562L16.61,109.908L16.265,110.081" style="fill:rgb(169,0,0);fill-opacity:0;fill-rule:nonzero;stroke:rgb(169,0,0);stroke-width:0.43px;"/>
        </g>
        <g transform="matrix(1,0,0,1,0,25.5651)">
            <path d="M19.44,131.544L8.64,131.544" style="fill:none;fill-rule:nonzero;stroke:rgb(132,0,0);stroke-width:0.43px;"/>
        </g>
        <g transform="matrix(1,0,0,1,0,25.5651)">
            <path d="M24.005,132.826L23.832,132.998L23.321,133.171L22.975,133.171L22.464,132.998L22.118,132.653L21.953,132.314L21.78,131.623L21.78,131.112L21.953,130.428L22.118,130.082L22.464,129.744L22.975,129.571L23.321,129.571L23.832,129.744L24.005,129.91" style="fill:rgb(0,100,100);fill-opacity:0;fill-rule:nonzero;stroke:rgb(0,100,100);stroke-width:0.43px;"/>
            <path d="M25.38,132.142L27.094,132.142" style="fill:none;fill-rule:nonzero;stroke:rgb(0,100,100);stroke-width:0.43px;"/>
            <path d="M25.034,133.171L26.237,129.571L27.432,133.171" style="fill:rgb(0,100,100);fill-opacity:0;fill-rule:nonzero;stroke:rgb(0,100,100);stroke-width:0.43px;"/>
            <path d="M28.634,133.171L28.634,129.571L30.01,129.571L30.348,129.744L30.521,129.91L30.694,130.255L30.694,130.766L30.521,131.112L30.348,131.285L30.01,131.458L28.634,131.458" style="fill:rgb(0,100,100);fill-opacity:0;fill-rule:nonzero;stroke:rgb(0,100,100);stroke-width:0.43px;"/>
            <path d="M31.378,133.51L34.121,133.51" style="fill:none;fill-rule:nonzero;stroke:rgb(0,100,100);stroke-width:0.43px;"/>
            <path d="M34.805,129.91L34.978,129.744L35.323,129.571L36.18,129.571L36.518,129.744L36.691,129.91L36.864,130.255L36.864,130.601L36.691,131.112L34.632,133.171L36.864,133.171" style="fill:rgb(0,100,100);fill-opacity:0;fill-rule:nonzero;stroke:rgb(0,100,100);stroke-width:0.43px;"/>
            <path d="M38.405,133.171L38.405,129.571L39.78,129.571L40.118,129.744L40.291,129.91L40.464,130.255L40.464,130.766L40.291,131.112L40.118,131.285L39.78,131.458L38.405,131.458" style="fill:rgb(0,100,100);fill-opacity:0;fill-rule:nonzero;stroke:rgb(0,100,100);stroke-width:0.43px;"/>
        </g>
        <g transform="matrix(1,0,0,1,0,25.5651)">
            <path d="M9.749,129.622L11.462,129.622" style="fill:none;fill-rule:nonzero;stroke:rgb(169,0,0);stroke-width:0.43px;"/>
            <path d="M9.41,130.651L10.606,127.051L11.808,130.651" style="fill:rgb(169,0,0);fill-opacity:0;fill-rule:nonzero;stroke:rgb(169,0,0);stroke-width:0.43px;"/>
            <path d="M12.838,127.39L13.01,127.224L13.349,127.051L14.206,127.051L14.551,127.224L14.724,127.39L14.897,127.735L14.897,128.081L14.724,128.592L12.665,130.651L14.897,130.651" style="fill:rgb(169,0,0);fill-opacity:0;fill-rule:nonzero;stroke:rgb(169,0,0);stroke-width:0.43px;"/>
            <path d="M16.265,127.39L16.438,127.224L16.776,127.051L17.64,127.051L17.978,127.224L18.151,127.39L18.324,127.735L18.324,128.081L18.151,128.592L16.092,130.651L18.324,130.651" style="fill:rgb(169,0,0);fill-opacity:0;fill-rule:nonzero;stroke:rgb(169,0,0);stroke-width:0.43px;"/>
        </g>
        <g transform="matrix(1,0,0,1,0,25.5651)">
            <path d="M84.24,156.744L95.04,156.744" style="fill:none;fill-rule:nonzero;stroke:rgb(132,0,0);stroke-width:0.43px;"/>
        </g>
        <g transform="matrix(1,0,0,1,0,25.5651)">
            <path d="M76.406,154.771L77.609,158.371L78.811,154.771" style="fill:rgb(0,100,100);fill-opacity:0;fill-rule:nonzero;stroke:rgb(0,100,100);stroke-width:0.43px;"/>
            <path d="M81.554,155.966L81.554,158.371" style="fill:none;fill-rule:nonzero;stroke:rgb(0,100,100);stroke-width:0.43px;"/>
            <path d="M80.698,154.598L79.841,157.169L82.066,157.169" style="fill:rgb(0,100,100);fill-opacity:0;fill-rule:nonzero;stroke:rgb(0,100,100);stroke-width:0.43px;"/>
        </g>
        <g transform="matrix(1,0,0,1,0,25.5651)">
            <path d="M85.349,154.822L87.062,154.822" style="fill:none;fill-rule:nonzero;stroke:rgb(169,0,0);stroke-width:0.43px;"/>
            <path d="M85.01,155.851L86.206,152.251L87.408,155.851" style="fill:rgb(169,0,0);fill-opacity:0;fill-rule:nonzero;stroke:rgb(169,0,0);stroke-width:0.43px;"/>
            <path d="M88.438,152.59L88.61,152.424L88.949,152.251L89.806,152.251L90.151,152.424L90.324,152.59L90.497,152.935L90.497,153.281L90.324,153.792L88.265,155.851L90.497,155.851" style="fill:rgb(169,0,0);fill-opacity:0;fill-rule:nonzero;stroke:rgb(169,0,0);stroke-width:0.43px;"/>
            <path d="M91.692,152.251L93.924,152.251L92.722,153.619L93.24,153.619L93.578,153.792L93.751,153.965L93.924,154.303L93.924,155.16L93.751,155.506L93.578,155.678L93.24,155.851L92.21,155.851L91.865,155.678L91.692,155.506" style="fill:rgb(169,0,0);fill-opacity:0;fill-rule:nonzero;stroke:rgb(169,0,0);stroke-width:0.43px;"/>
        </g>
        <g transform="matrix(1,0,0,1,0,25.5651)">
            <path d="M84.24,163.944L95.04,163.944" style="fill:none;fill-rule:nonzero;stroke:rgb(132,0,0);stroke-width:0.43px;"/>
        </g>
        <g transform="matrix(1,0,0,1,0,25.5651)">
            <path d="M76.406,161.971L77.609,165.571L78.811,161.971" style="fill:rgb(0,100,100);fill-opacity:0;fill-rule:nonzero;stroke:rgb(0,100,100);stroke-width:0.43px;"/>
            <path d="M79.668,161.971L81.893,161.971L80.698,163.339L81.209,163.339L81.554,163.512L81.72,163.685L81.893,164.023L81.893,164.88L81.72,165.226L81.554,165.398L81.209,165.571L80.179,165.571L79.841,165.398L79.668,165.226" style="fill:rgb(0,100,100);fill-opacity:0;fill-rule:nonzero;stroke:rgb(0,100,100);stroke-width:0.43px;"/>
        </g>
        <g transform="matrix(1,0,0,1,0,25.5651)">
            <path d="M85.349,162.022L87.062,162.022" style="fill:none;fill-rule:nonzero;stroke:rgb(169,0,0);stroke-width:0.43px;"/>
            <path d="M85.01,163.051L86.206,159.451L87.408,163.051" style="fill:rgb(169,0,0);fill-opacity:0;fill-rule:nonzero;stroke:rgb(169,0,0);stroke-width:0.43px;"/>
            <path d="M88.438,159.79L88.61,159.624L88.949,159.451L89.806,159.451L90.151,159.624L90.324,159.79L90.497,160.135L90.497,160.481L90.324,160.992L88.265,163.051L90.497,163.051" style="fill:rgb(169,0,0);fill-opacity:0;fill-rule:nonzero;stroke:rgb(169,0,0);stroke-width:0.43px;"/>
            <path d="M93.578,160.646L93.578,163.051" style="fill:none;fill-rule:nonzero;stroke:rgb(169,0,0);stroke-width:0.43px;"/>
            <path d="M92.722,159.278L91.865,161.849L94.097,161.849" style="fill:rgb(169,0,0);fill-opacity:0;fill-rule:nonzero;stroke:rgb(169,0,0);stroke-width:0.43px;"/>
        </g>
        <g transform="matrix(1,0,0,1,0,25.5651)">
            <path d="M84.24,171.144L95.04,171.144" style="fill:none;fill-rule:nonzero;stroke:rgb(132,0,0);stroke-width:0.43px;"/>
        </g>
        <g transform="matrix(1,0,0,1,0,25.5651)">
            <path d="M76.406,169.171L77.609,172.771L78.811,169.171" style="fill:rgb(0,100,100);fill-opacity:0;fill-rule:nonzero;stroke:rgb(0,100,100);stroke-width:0.43px;"/>
            <path d="M79.841,169.51L80.006,169.344L80.352,169.171L81.209,169.171L81.554,169.344L81.72,169.51L81.893,169.855L81.893,170.201L81.72,170.712L79.668,172.771L81.893,172.771" style="fill:rgb(0,100,100);fill-opacity:0;fill-rule:nonzero;stroke:rgb(0,100,100);stroke-width:0.43px;"/>
        </g>
        <g transform="matrix(1,0,0,1,0,25.5651)">
            <path d="M85.349,169.222L87.062,169.222" style="fill:none;fill-rule:nonzero;stroke:rgb(169,0,0);stroke-width:0.43px;"/>
            <path d="M85.01,170.251L86.206,166.651L87.408,170.251" style="fill:rgb(169,0,0);fill-opacity:0;fill-rule:nonzero;stroke:rgb(169,0,0);stroke-width:0.43px;"/>
            <path d="M88.438,166.99L88.61,166.824L88.949,166.651L89.806,166.651L90.151,166.824L90.324,166.99L90.497,167.335L90.497,167.681L90.324,168.192L88.265,170.251L90.497,170.251" style="fill:rgb(169,0,0);fill-opacity:0;fill-rule:nonzero;stroke:rgb(169,0,0);stroke-width:0.43px;"/>
            <path d="M93.751,166.651L92.038,166.651L91.865,168.365L92.038,168.192L92.376,168.019L93.24,168.019L93.578,168.192L93.751,168.365L93.924,168.703L93.924,169.56L93.751,169.906L93.578,170.078L93.24,170.251L92.376,170.251L92.038,170.078L91.865,169.906" style="fill:rgb(169,0,0);fill-opacity:0;fill-rule:nonzero;stroke:rgb(169,0,0);stroke-width:0.43px;"/>
        </g>
        <g transform="matrix(1,0,0,1,0,25.5651)">
            <path d="M84.24,178.344L95.04,178.344" style="fill:none;fill-rule:nonzero;stroke:rgb(132,0,0);stroke-width:0.43px;"/>
        </g>
        <g transform="matrix(1,0,0,1,0,25.5651)">
            <path d="M76.406,176.371L77.609,179.971L78.811,176.371" style="fill:rgb(0,100,100);fill-opacity:0;fill-rule:nonzero;stroke:rgb(0,100,100);stroke-width:0.43px;"/>
            <path d="M81.893,179.971L79.841,179.971" style="fill:none;fill-rule:nonzero;stroke:rgb(0,100,100);stroke-width:0.43px;"/>
            <path d="M80.863,179.971L80.863,176.371L80.525,176.882L80.179,177.228L79.841,177.401" style="fill:rgb(0,100,100);fill-opacity:0;fill-rule:nonzero;stroke:rgb(0,100,100);stroke-width:0.43px;"/>
        </g>
        <g transform="matrix(1,0,0,1,0,25.5651)">
            <path d="M85.349,176.422L87.062,176.422" style="fill:none;fill-rule:nonzero;stroke:rgb(169,0,0);stroke-width:0.43px;"/>
            <path d="M85.01,177.451L86.206,173.851L87.408,177.451" style="fill:rgb(169,0,0);fill-opacity:0;fill-rule:nonzero;stroke:rgb(169,0,0);stroke-width:0.43px;"/>
            <path d="M88.438,174.19L88.61,174.024L88.949,173.851L89.806,173.851L90.151,174.024L90.324,174.19L90.497,174.535L90.497,174.881L90.324,175.392L88.265,177.451L90.497,177.451" style="fill:rgb(169,0,0);fill-opacity:0;fill-rule:nonzero;stroke:rgb(169,0,0);stroke-width:0.43px;"/>
            <path d="M93.578,173.851L92.894,173.851L92.549,174.024L92.376,174.19L92.038,174.708L91.865,175.392L91.865,176.76L92.038,177.106L92.21,177.278L92.549,177.451L93.24,177.451L93.578,177.278L93.751,177.106L93.924,176.76L93.924,175.903L93.751,175.565L93.578,175.392L93.24,175.219L92.549,175.219L92.21,175.392L92.038,175.565L91.865,175.903" style="fill:rgb(169,0,0);fill-opacity:0;fill-rule:nonzero;stroke:rgb(169,0,0);stroke-width:0.43px;"/>
        </g>
        <g transform="matrix(1,0,0,1,0,25.5651)">
            <path d="M84.24,185.544L95.04,185.544" style="fill:none;fill-rule:nonzero;stroke:rgb(132,0,0);stroke-width:0.43px;"/>
        </g>
        <g transform="matrix(1,0,0,1,0,25.5651)">
            <path d="M76.406,183.571L77.609,187.171L78.811,183.571" style="fill:rgb(0,100,100);fill-opacity:0;fill-rule:nonzero;stroke:rgb(0,100,100);stroke-width:0.43px;"/>
            <path d="M80.698,183.571L81.036,183.571L81.382,183.744L81.554,183.91L81.72,184.255L81.893,184.939L81.893,185.796L81.72,186.48L81.554,186.826L81.382,186.998L81.036,187.171L80.698,187.171L80.352,186.998L80.179,186.826L80.006,186.48L79.841,185.796L79.841,184.939L80.006,184.255L80.179,183.91L80.352,183.744L80.698,183.571" style="fill:rgb(0,100,100);fill-opacity:0;fill-rule:nonzero;stroke:rgb(0,100,100);stroke-width:0.43px;"/>
        </g>
        <g transform="matrix(1,0,0,1,0,25.5651)">
            <path d="M85.349,183.622L87.062,183.622" style="fill:none;fill-rule:nonzero;stroke:rgb(169,0,0);stroke-width:0.43px;"/>
            <path d="M85.01,184.651L86.206,181.051L87.408,184.651" style="fill:rgb(169,0,0);fill-opacity:0;fill-rule:nonzero;stroke:rgb(169,0,0);stroke-width:0.43px;"/>
            <path d="M88.438,181.39L88.61,181.224L88.949,181.051L89.806,181.051L90.151,181.224L90.324,181.39L90.497,181.735L90.497,182.081L90.324,182.592L88.265,184.651L90.497,184.651" style="fill:rgb(169,0,0);fill-opacity:0;fill-rule:nonzero;stroke:rgb(169,0,0);stroke-width:0.43px;"/>
            <path d="M91.692,181.051L94.097,181.051L92.549,184.651" style="fill:rgb(169,0,0);fill-opacity:0;fill-rule:nonzero;stroke:rgb(169,0,0);stroke-width:0.43px;"/>
        </g>
        <g transform="matrix(1,0,0,1,0,25.5651)">
            <path d="M19.44,149.544L8.64,149.544" style="fill:none;fill-rule:nonzero;stroke:rgb(132,0,0);stroke-width:0.43px;"/>
        </g>
        <g transform="matrix(1,0,0,1,0,25.5651)">
            <path d="M24.005,150.826L23.832,150.998L23.321,151.171L22.975,151.171L22.464,150.998L22.118,150.653L21.953,150.314L21.78,149.623L21.78,149.112L21.953,148.428L22.118,148.082L22.464,147.744L22.975,147.571L23.321,147.571L23.832,147.744L24.005,147.91" style="fill:rgb(0,100,100);fill-opacity:0;fill-rule:nonzero;stroke:rgb(0,100,100);stroke-width:0.43px;"/>
            <path d="M26.064,149.112L25.718,148.939L25.553,148.766L25.38,148.428L25.38,148.255L25.553,147.91L25.718,147.744L26.064,147.571L26.748,147.571L27.094,147.744L27.266,147.91L27.432,148.255L27.432,148.428L27.266,148.766L27.094,148.939L26.748,149.112L26.064,149.112L25.718,149.285L25.553,149.458L25.38,149.796L25.38,150.48L25.553,150.826L25.718,150.998L26.064,151.171L26.748,151.171L27.094,150.998L27.266,150.826L27.432,150.48L27.432,149.796L27.266,149.458L27.094,149.285L26.748,149.112" style="fill:rgb(0,100,100);fill-opacity:0;fill-rule:nonzero;stroke:rgb(0,100,100);stroke-width:0.43px;"/>
            <path d="M30.521,147.571L29.837,147.571L29.491,147.744L29.318,147.91L28.98,148.428L28.807,149.112L28.807,150.48L28.98,150.826L29.153,150.998L29.491,151.171L30.175,151.171L30.521,150.998L30.694,150.826L30.866,150.48L30.866,149.623L30.694,149.285L30.521,149.112L30.175,148.939L29.491,148.939L29.153,149.112L28.98,149.285L28.807,149.623" style="fill:rgb(0,100,100);fill-opacity:0;fill-rule:nonzero;stroke:rgb(0,100,100);stroke-width:0.43px;"/>
        </g>
        <g transform="matrix(1,0,0,1,0,25.5651)">
            <path d="M9.749,147.622L11.462,147.622" style="fill:none;fill-rule:nonzero;stroke:rgb(169,0,0);stroke-width:0.43px;"/>
            <path d="M9.41,148.651L10.606,145.051L11.808,148.651" style="fill:rgb(169,0,0);fill-opacity:0;fill-rule:nonzero;stroke:rgb(169,0,0);stroke-width:0.43px;"/>
            <path d="M12.838,145.39L13.01,145.224L13.349,145.051L14.206,145.051L14.551,145.224L14.724,145.39L14.897,145.735L14.897,146.081L14.724,146.592L12.665,148.651L14.897,148.651" style="fill:rgb(169,0,0);fill-opacity:0;fill-rule:nonzero;stroke:rgb(169,0,0);stroke-width:0.43px;"/>
            <path d="M16.949,146.592L16.61,146.419L16.438,146.246L16.265,145.908L16.265,145.735L16.438,145.39L16.61,145.224L16.949,145.051L17.64,145.051L17.978,145.224L18.151,145.39L18.324,145.735L18.324,145.908L18.151,146.246L17.978,146.419L17.64,146.592L16.949,146.592L16.61,146.765L16.438,146.938L16.265,147.276L16.265,147.96L16.438,148.306L16.61,148.478L16.949,148.651L17.64,148.651L17.978,148.478L18.151,148.306L18.324,147.96L18.324,147.276L18.151,146.938L17.978,146.765L17.64,146.592" style="fill:rgb(169,0,0);fill-opacity:0;fill-rule:nonzero;stroke:rgb(169,0,0);stroke-width:0.43px;"/>
        </g>
        <g transform="matrix(1,0,0,1,0,25.5651)">
            <path d="M19.44,156.744L8.64,156.744" style="fill:none;fill-rule:nonzero;stroke:rgb(132,0,0);stroke-width:0.43px;"/>
        </g>
        <g transform="matrix(1,0,0,1,0,25.5651)">
            <path d="M21.953,158.371L21.953,154.771L23.321,154.771L23.666,154.944L23.832,155.11L24.005,155.455L24.005,155.966L23.832,156.312L23.666,156.485L23.321,156.658L21.953,156.658" style="fill:rgb(0,100,100);fill-opacity:0;fill-rule:nonzero;stroke:rgb(0,100,100);stroke-width:0.43px;"/>
            <path d="M28.123,154.598L25.034,159.228" style="fill:none;fill-rule:nonzero;stroke:rgb(0,100,100);stroke-width:0.43px;"/>
            <path d="M29.153,158.198L29.664,158.371L30.521,158.371L30.866,158.198L31.032,158.026L31.205,157.68L31.205,157.342L31.032,156.996L30.866,156.823L30.521,156.658L29.837,156.485L29.491,156.312L29.318,156.139L29.153,155.801L29.153,155.455L29.318,155.11L29.491,154.944L29.837,154.771L30.694,154.771L31.205,154.944" style="fill:rgb(0,100,100);fill-opacity:0;fill-rule:nonzero;stroke:rgb(0,100,100);stroke-width:0.43px;"/>
        </g>
        <g transform="matrix(1,0,0,1,0,25.5651)">
            <path d="M9.749,154.822L11.462,154.822" style="fill:none;fill-rule:nonzero;stroke:rgb(169,0,0);stroke-width:0.43px;"/>
            <path d="M9.41,155.851L10.606,152.251L11.808,155.851" style="fill:rgb(169,0,0);fill-opacity:0;fill-rule:nonzero;stroke:rgb(169,0,0);stroke-width:0.43px;"/>
            <path d="M12.838,152.59L13.01,152.424L13.349,152.251L14.206,152.251L14.551,152.424L14.724,152.59L14.897,152.935L14.897,153.281L14.724,153.792L12.665,155.851L14.897,155.851" style="fill:rgb(169,0,0);fill-opacity:0;fill-rule:nonzero;stroke:rgb(169,0,0);stroke-width:0.43px;"/>
            <path d="M16.61,155.851L17.294,155.851L17.64,155.678L17.806,155.506L18.151,154.994L18.324,154.303L18.324,152.935L18.151,152.59L17.978,152.424L17.64,152.251L16.949,152.251L16.61,152.424L16.438,152.59L16.265,152.935L16.265,153.792L16.438,154.138L16.61,154.303L16.949,154.476L17.64,154.476L17.978,154.303L18.151,154.138L18.324,153.792" style="fill:rgb(169,0,0);fill-opacity:0;fill-rule:nonzero;stroke:rgb(169,0,0);stroke-width:0.43px;"/>
        </g>
        <g transform="matrix(1,0,0,1,0,25.5651)">
            <path d="M84.24,52.344L95.04,52.344" style="fill:none;fill-rule:nonzero;stroke:rgb(132,0,0);stroke-width:0.43px;"/>
        </g>
        <g transform="matrix(1,0,0,1,0,25.5651)">
            <path d="M70.063,52.596L70.236,52.423L70.582,52.258L71.266,52.596L71.611,52.423L71.784,52.258" style="fill:rgb(0,100,100);fill-opacity:0;fill-rule:nonzero;stroke:rgb(0,100,100);stroke-width:0.43px;"/>
            <path d="M75.211,53.971L74.009,52.258" style="fill:none;fill-rule:nonzero;stroke:rgb(0,100,100);stroke-width:0.43px;"/>
            <path d="M73.152,53.971L73.152,50.371L74.52,50.371L74.866,50.544L75.038,50.71L75.211,51.055L75.211,51.566L75.038,51.912L74.866,52.085L74.52,52.258L73.152,52.258" style="fill:rgb(0,100,100);fill-opacity:0;fill-rule:nonzero;stroke:rgb(0,100,100);stroke-width:0.43px;"/>
            <path d="M76.752,52.085L77.954,52.085" style="fill:none;fill-rule:nonzero;stroke:rgb(0,100,100);stroke-width:0.43px;"/>
            <path d="M78.466,53.971L76.752,53.971L76.752,50.371L78.466,50.371" style="fill:rgb(0,100,100);fill-opacity:0;fill-rule:nonzero;stroke:rgb(0,100,100);stroke-width:0.43px;"/>
            <path d="M79.841,53.798L80.352,53.971L81.209,53.971L81.554,53.798L81.72,53.626L81.893,53.28L81.893,52.942L81.72,52.596L81.554,52.423L81.209,52.258L80.525,52.085L80.179,51.912L80.006,51.739L79.841,51.401L79.841,51.055L80.006,50.71L80.179,50.544L80.525,50.371L81.382,50.371L81.893,50.544" style="fill:rgb(0,100,100);fill-opacity:0;fill-rule:nonzero;stroke:rgb(0,100,100);stroke-width:0.43px;"/>
        </g>
        <g transform="matrix(1,0,0,1,0,25.5651)">
            <path d="M87.062,50.422L88.776,50.422" style="fill:none;fill-rule:nonzero;stroke:rgb(169,0,0);stroke-width:0.43px;"/>
            <path d="M86.724,51.451L87.919,47.851L89.122,51.451" style="fill:rgb(169,0,0);fill-opacity:0;fill-rule:nonzero;stroke:rgb(169,0,0);stroke-width:0.43px;"/>
            <path d="M89.978,47.851L92.21,47.851L91.008,49.219L91.519,49.219L91.865,49.392L92.038,49.565L92.21,49.903L92.21,50.76L92.038,51.106L91.865,51.278L91.519,51.451L90.497,51.451L90.151,51.278L89.978,51.106" style="fill:rgb(169,0,0);fill-opacity:0;fill-rule:nonzero;stroke:rgb(169,0,0);stroke-width:0.43px;"/>
        </g>
        <g transform="matrix(1,0,0,1,0,25.5651)">
            <path d="M19.44,181.944L8.64,181.944" style="fill:none;fill-rule:nonzero;stroke:rgb(132,0,0);stroke-width:0.43px;"/>
        </g>
        <g transform="matrix(1,0,0,1,0,25.5651)">
            <path d="M21.953,183.571L21.953,179.971L22.81,179.971L23.321,180.144L23.666,180.482L23.832,180.828L24.005,181.512L24.005,182.023L23.832,182.714L23.666,183.053L23.321,183.398L22.81,183.571L21.953,183.571" style="fill:rgb(0,100,100);fill-opacity:0;fill-rule:nonzero;stroke:rgb(0,100,100);stroke-width:0.43px;"/>
            <path d="M25.553,183.571L25.553,179.971L27.605,183.571L27.605,179.971" style="fill:rgb(0,100,100);fill-opacity:0;fill-rule:nonzero;stroke:rgb(0,100,100);stroke-width:0.43px;"/>
            <path d="M31.378,183.226L31.205,183.398L30.694,183.571L30.348,183.571L29.837,183.398L29.491,183.053L29.318,182.714L29.153,182.023L29.153,181.512L29.318,180.828L29.491,180.482L29.837,180.144L30.348,179.971L30.694,179.971L31.205,180.144L31.378,180.31" style="fill:rgb(0,100,100);fill-opacity:0;fill-rule:nonzero;stroke:rgb(0,100,100);stroke-width:0.43px;"/>
        </g>
        <g transform="matrix(1,0,0,1,0,25.5651)">
            <path d="M9.749,180.022L11.462,180.022" style="fill:none;fill-rule:nonzero;stroke:rgb(169,0,0);stroke-width:0.43px;"/>
            <path d="M9.41,181.051L10.606,177.451L11.808,181.051" style="fill:rgb(169,0,0);fill-opacity:0;fill-rule:nonzero;stroke:rgb(169,0,0);stroke-width:0.43px;"/>
            <path d="M12.665,177.451L14.897,177.451L13.694,178.819L14.206,178.819L14.551,178.992L14.724,179.165L14.897,179.503L14.897,180.36L14.724,180.706L14.551,180.878L14.206,181.051L13.176,181.051L12.838,180.878L12.665,180.706" style="fill:rgb(169,0,0);fill-opacity:0;fill-rule:nonzero;stroke:rgb(169,0,0);stroke-width:0.43px;"/>
            <path d="M17.122,177.451L17.467,177.451L17.806,177.624L17.978,177.79L18.151,178.135L18.324,178.819L18.324,179.676L18.151,180.36L17.978,180.706L17.806,180.878L17.467,181.051L17.122,181.051L16.776,180.878L16.61,180.706L16.438,180.36L16.265,179.676L16.265,178.819L16.438,178.135L16.61,177.79L16.776,177.624L17.122,177.451" style="fill:rgb(169,0,0);fill-opacity:0;fill-rule:nonzero;stroke:rgb(169,0,0);stroke-width:0.43px;"/>
        </g>
        <g transform="matrix(1,0,0,1,0,25.5651)">
            <path d="M84.24,59.544L95.04,59.544" style="fill:none;fill-rule:nonzero;stroke:rgb(132,0,0);stroke-width:0.43px;"/>
        </g>
        <g transform="matrix(1,0,0,1,0,25.5651)">
            <path d="M76.752,60.142L78.466,60.142" style="fill:none;fill-rule:nonzero;stroke:rgb(0,100,100);stroke-width:0.43px;"/>
            <path d="M76.406,61.171L77.609,57.571L78.811,61.171" style="fill:rgb(0,100,100);fill-opacity:0;fill-rule:nonzero;stroke:rgb(0,100,100);stroke-width:0.43px;"/>
            <path d="M80.698,57.571L81.036,57.571L81.382,57.744L81.554,57.91L81.72,58.255L81.893,58.939L81.893,59.796L81.72,60.48L81.554,60.826L81.382,60.998L81.036,61.171L80.698,61.171L80.352,60.998L80.179,60.826L80.006,60.48L79.841,59.796L79.841,58.939L80.006,58.255L80.179,57.91L80.352,57.744L80.698,57.571" style="fill:rgb(0,100,100);fill-opacity:0;fill-rule:nonzero;stroke:rgb(0,100,100);stroke-width:0.43px;"/>
        </g>
        <g transform="matrix(1,0,0,1,0,25.5651)">
            <path d="M87.062,57.622L88.776,57.622" style="fill:none;fill-rule:nonzero;stroke:rgb(169,0,0);stroke-width:0.43px;"/>
            <path d="M86.724,58.651L87.919,55.051L89.122,58.651" style="fill:rgb(169,0,0);fill-opacity:0;fill-rule:nonzero;stroke:rgb(169,0,0);stroke-width:0.43px;"/>
            <path d="M91.865,56.246L91.865,58.651" style="fill:none;fill-rule:nonzero;stroke:rgb(169,0,0);stroke-width:0.43px;"/>
            <path d="M91.008,54.878L90.151,57.449L92.376,57.449" style="fill:rgb(169,0,0);fill-opacity:0;fill-rule:nonzero;stroke:rgb(169,0,0);stroke-width:0.43px;"/>
        </g>
        <g transform="matrix(1,0,0,1,0,25.5651)">
            <path d="M84.24,66.744L95.04,66.744" style="fill:none;fill-rule:nonzero;stroke:rgb(132,0,0);stroke-width:0.43px;"/>
        </g>
        <g transform="matrix(1,0,0,1,0,25.5651)">
            <path d="M74.009,68.371L72.806,66.658" style="fill:none;fill-rule:nonzero;stroke:rgb(0,100,100);stroke-width:0.43px;"/>
            <path d="M71.95,68.371L71.95,64.771L73.325,64.771L73.663,64.944L73.836,65.11L74.009,65.455L74.009,65.966L73.836,66.312L73.663,66.485L73.325,66.658L71.95,66.658" style="fill:rgb(0,100,100);fill-opacity:0;fill-rule:nonzero;stroke:rgb(0,100,100);stroke-width:0.43px;"/>
            <path d="M78.12,64.598L75.038,69.228" style="fill:none;fill-rule:nonzero;stroke:rgb(0,100,100);stroke-width:0.43px;"/>
            <path d="M78.984,64.771L79.841,68.371L80.525,65.801L81.209,68.371L82.066,64.771" style="fill:rgb(0,100,100);fill-opacity:0;fill-rule:nonzero;stroke:rgb(0,100,100);stroke-width:0.43px;"/>
        </g>
        <g transform="matrix(1,0,0,1,0,25.5651)">
            <path d="M87.062,64.822L88.776,64.822" style="fill:none;fill-rule:nonzero;stroke:rgb(169,0,0);stroke-width:0.43px;"/>
            <path d="M86.724,65.851L87.919,62.251L89.122,65.851" style="fill:rgb(169,0,0);fill-opacity:0;fill-rule:nonzero;stroke:rgb(169,0,0);stroke-width:0.43px;"/>
            <path d="M92.038,62.251L90.324,62.251L90.151,63.965L90.324,63.792L90.662,63.619L91.519,63.619L91.865,63.792L92.038,63.965L92.21,64.303L92.21,65.16L92.038,65.506L91.865,65.678L91.519,65.851L90.662,65.851L90.324,65.678L90.151,65.506" style="fill:rgb(169,0,0);fill-opacity:0;fill-rule:nonzero;stroke:rgb(169,0,0);stroke-width:0.43px;"/>
        </g>
        <g transform="matrix(1,0,0,1,0,25.5651)">
            <path d="M84.24,73.944L95.04,73.944" style="fill:none;fill-rule:nonzero;stroke:rgb(132,0,0);stroke-width:0.43px;"/>
        </g>
        <g transform="matrix(1,0,0,1,0,25.5651)">
            <path d="M78.293,75.571L77.098,73.858" style="fill:none;fill-rule:nonzero;stroke:rgb(0,100,100);stroke-width:0.43px;"/>
            <path d="M76.241,75.571L76.241,71.971L77.609,71.971L77.954,72.144L78.12,72.31L78.293,72.655L78.293,73.166L78.12,73.512L77.954,73.685L77.609,73.858L76.241,73.858" style="fill:rgb(0,100,100);fill-opacity:0;fill-rule:nonzero;stroke:rgb(0,100,100);stroke-width:0.43px;"/>
            <path d="M79.841,75.571L79.841,71.971L80.698,71.971L81.209,72.144L81.554,72.482L81.72,72.828L81.893,73.512L81.893,74.023L81.72,74.714L81.554,75.053L81.209,75.398L80.698,75.571L79.841,75.571" style="fill:rgb(0,100,100);fill-opacity:0;fill-rule:nonzero;stroke:rgb(0,100,100);stroke-width:0.43px;"/>
        </g>
        <g transform="matrix(1,0,0,1,0,25.5651)">
            <path d="M87.062,72.022L88.776,72.022" style="fill:none;fill-rule:nonzero;stroke:rgb(169,0,0);stroke-width:0.43px;"/>
            <path d="M86.724,73.051L87.919,69.451L89.122,73.051" style="fill:rgb(169,0,0);fill-opacity:0;fill-rule:nonzero;stroke:rgb(169,0,0);stroke-width:0.43px;"/>
            <path d="M91.865,69.451L91.181,69.451L90.835,69.624L90.662,69.79L90.324,70.308L90.151,70.992L90.151,72.36L90.324,72.706L90.497,72.878L90.835,73.051L91.519,73.051L91.865,72.878L92.038,72.706L92.21,72.36L92.21,71.503L92.038,71.165L91.865,70.992L91.519,70.819L90.835,70.819L90.497,70.992L90.324,71.165L90.151,71.503" style="fill:rgb(169,0,0);fill-opacity:0;fill-rule:nonzero;stroke:rgb(169,0,0);stroke-width:0.43px;"/>
        </g>
        <g transform="matrix(1,0,0,1,0,25.5651)">
            <path d="M84.24,88.344L95.04,88.344" style="fill:none;fill-rule:nonzero;stroke:rgb(132,0,0);stroke-width:0.43px;"/>
        </g>
        <g transform="matrix(1,0,0,1,0,25.5651)">
            <path d="M72.806,89.971L72.806,86.371L73.663,86.371L74.182,86.544L74.52,86.882L74.693,87.228L74.866,87.912L74.866,88.423L74.693,89.114L74.52,89.453L74.182,89.798L73.663,89.971L72.806,89.971" style="fill:rgb(0,100,100);fill-opacity:0;fill-rule:nonzero;stroke:rgb(0,100,100);stroke-width:0.43px;"/>
            <path d="M77.609,88.085L78.12,88.258L78.293,88.423L78.466,88.769L78.466,89.28L78.293,89.626L78.12,89.798L77.782,89.971L76.406,89.971L76.406,86.371L77.609,86.371L77.954,86.544L78.12,86.71L78.293,87.055L78.293,87.401L78.12,87.739L77.954,87.912L77.609,88.085L76.406,88.085" style="fill:rgb(0,100,100);fill-opacity:0;fill-rule:nonzero;stroke:rgb(0,100,100);stroke-width:0.43px;"/>
            <path d="M80.698,86.371L81.036,86.371L81.382,86.544L81.554,86.71L81.72,87.055L81.893,87.739L81.893,88.596L81.72,89.28L81.554,89.626L81.382,89.798L81.036,89.971L80.698,89.971L80.352,89.798L80.179,89.626L80.006,89.28L79.841,88.596L79.841,87.739L80.006,87.055L80.179,86.71L80.352,86.544L80.698,86.371" style="fill:rgb(0,100,100);fill-opacity:0;fill-rule:nonzero;stroke:rgb(0,100,100);stroke-width:0.43px;"/>
        </g>
        <g transform="matrix(1,0,0,1,0,25.5651)">
            <path d="M87.062,86.422L88.776,86.422" style="fill:none;fill-rule:nonzero;stroke:rgb(169,0,0);stroke-width:0.43px;"/>
            <path d="M86.724,87.451L87.919,83.851L89.122,87.451" style="fill:rgb(169,0,0);fill-opacity:0;fill-rule:nonzero;stroke:rgb(169,0,0);stroke-width:0.43px;"/>
            <path d="M89.978,83.851L92.376,83.851L90.835,87.451" style="fill:rgb(169,0,0);fill-opacity:0;fill-rule:nonzero;stroke:rgb(169,0,0);stroke-width:0.43px;"/>
        </g>
        <g transform="matrix(1,0,0,1,0,25.5651)">
            <path d="M84.24,95.544L95.04,95.544" style="fill:none;fill-rule:nonzero;stroke:rgb(132,0,0);stroke-width:0.43px;"/>
        </g>
        <g transform="matrix(1,0,0,1,0,25.5651)">
            <path d="M72.806,97.171L72.806,93.571L73.663,93.571L74.182,93.744L74.52,94.082L74.693,94.428L74.866,95.112L74.866,95.623L74.693,96.314L74.52,96.653L74.182,96.998L73.663,97.171L72.806,97.171" style="fill:rgb(0,100,100);fill-opacity:0;fill-rule:nonzero;stroke:rgb(0,100,100);stroke-width:0.43px;"/>
            <path d="M77.609,95.285L78.12,95.458L78.293,95.623L78.466,95.969L78.466,96.48L78.293,96.826L78.12,96.998L77.782,97.171L76.406,97.171L76.406,93.571L77.609,93.571L77.954,93.744L78.12,93.91L78.293,94.255L78.293,94.601L78.12,94.939L77.954,95.112L77.609,95.285L76.406,95.285" style="fill:rgb(0,100,100);fill-opacity:0;fill-rule:nonzero;stroke:rgb(0,100,100);stroke-width:0.43px;"/>
            <path d="M81.893,97.171L79.841,97.171" style="fill:none;fill-rule:nonzero;stroke:rgb(0,100,100);stroke-width:0.43px;"/>
            <path d="M80.863,97.171L80.863,93.571L80.525,94.082L80.179,94.428L79.841,94.601" style="fill:rgb(0,100,100);fill-opacity:0;fill-rule:nonzero;stroke:rgb(0,100,100);stroke-width:0.43px;"/>
        </g>
        <g transform="matrix(1,0,0,1,0,25.5651)">
            <path d="M87.062,93.622L88.776,93.622" style="fill:none;fill-rule:nonzero;stroke:rgb(169,0,0);stroke-width:0.43px;"/>
            <path d="M86.724,94.651L87.919,91.051L89.122,94.651" style="fill:rgb(169,0,0);fill-opacity:0;fill-rule:nonzero;stroke:rgb(169,0,0);stroke-width:0.43px;"/>
            <path d="M90.835,92.592L90.497,92.419L90.324,92.246L90.151,91.908L90.151,91.735L90.324,91.39L90.497,91.224L90.835,91.051L91.519,91.051L91.865,91.224L92.038,91.39L92.21,91.735L92.21,91.908L92.038,92.246L91.865,92.419L91.519,92.592L90.835,92.592L90.497,92.765L90.324,92.938L90.151,93.276L90.151,93.96L90.324,94.306L90.497,94.478L90.835,94.651L91.519,94.651L91.865,94.478L92.038,94.306L92.21,93.96L92.21,93.276L92.038,92.938L91.865,92.765L91.519,92.592" style="fill:rgb(169,0,0);fill-opacity:0;fill-rule:nonzero;stroke:rgb(169,0,0);stroke-width:0.43px;"/>
        </g>
        <g transform="matrix(1,0,0,1,0,25.5651)">
            <path d="M84.24,102.744L95.04,102.744" style="fill:none;fill-rule:nonzero;stroke:rgb(132,0,0);stroke-width:0.43px;"/>
        </g>
        <g transform="matrix(1,0,0,1,0,25.5651)">
            <path d="M72.806,104.371L72.806,100.771L73.663,100.771L74.182,100.944L74.52,101.282L74.693,101.628L74.866,102.312L74.866,102.823L74.693,103.514L74.52,103.853L74.182,104.198L73.663,104.371L72.806,104.371" style="fill:rgb(0,100,100);fill-opacity:0;fill-rule:nonzero;stroke:rgb(0,100,100);stroke-width:0.43px;"/>
            <path d="M77.609,102.485L78.12,102.658L78.293,102.823L78.466,103.169L78.466,103.68L78.293,104.026L78.12,104.198L77.782,104.371L76.406,104.371L76.406,100.771L77.609,100.771L77.954,100.944L78.12,101.11L78.293,101.455L78.293,101.801L78.12,102.139L77.954,102.312L77.609,102.485L76.406,102.485" style="fill:rgb(0,100,100);fill-opacity:0;fill-rule:nonzero;stroke:rgb(0,100,100);stroke-width:0.43px;"/>
            <path d="M79.841,101.11L80.006,100.944L80.352,100.771L81.209,100.771L81.554,100.944L81.72,101.11L81.893,101.455L81.893,101.801L81.72,102.312L79.668,104.371L81.893,104.371" style="fill:rgb(0,100,100);fill-opacity:0;fill-rule:nonzero;stroke:rgb(0,100,100);stroke-width:0.43px;"/>
        </g>
        <g transform="matrix(1,0,0,1,0,25.5651)">
            <path d="M87.062,100.822L88.776,100.822" style="fill:none;fill-rule:nonzero;stroke:rgb(169,0,0);stroke-width:0.43px;"/>
            <path d="M86.724,101.851L87.919,98.251L89.122,101.851" style="fill:rgb(169,0,0);fill-opacity:0;fill-rule:nonzero;stroke:rgb(169,0,0);stroke-width:0.43px;"/>
            <path d="M90.497,101.851L91.181,101.851L91.519,101.678L91.692,101.506L92.038,100.994L92.21,100.303L92.21,98.935L92.038,98.59L91.865,98.424L91.519,98.251L90.835,98.251L90.497,98.424L90.324,98.59L90.151,98.935L90.151,99.792L90.324,100.138L90.497,100.303L90.835,100.476L91.519,100.476L91.865,100.303L92.038,100.138L92.21,99.792" style="fill:rgb(169,0,0);fill-opacity:0;fill-rule:nonzero;stroke:rgb(169,0,0);stroke-width:0.43px;"/>
        </g>
        <g transform="matrix(1,0,0,1,0,25.5651)">
            <path d="M19.44,196.344L8.64,196.344" style="fill:none;fill-rule:nonzero;stroke:rgb(132,0,0);stroke-width:0.43px;"/>
        </g>
        <g transform="matrix(1,0,0,1,0,25.5651)">
            <path d="M24.005,197.971L22.81,196.258" style="fill:none;fill-rule:nonzero;stroke:rgb(0,100,100);stroke-width:0.43px;"/>
            <path d="M21.953,197.971L21.953,194.371L23.321,194.371L23.666,194.544L23.832,194.71L24.005,195.055L24.005,195.566L23.832,195.912L23.666,196.085L23.321,196.258L21.953,196.258" style="fill:rgb(0,100,100);fill-opacity:0;fill-rule:nonzero;stroke:rgb(0,100,100);stroke-width:0.43px;"/>
        </g>
        <g transform="matrix(1,0,0,1,0,25.5651)">
            <path d="M12.578,193.565L13.097,193.738L13.262,193.903L13.435,194.249L13.435,194.76L13.262,195.106L13.097,195.278L12.751,195.451L11.376,195.451L11.376,191.851L12.578,191.851L12.924,192.024L13.097,192.19L13.262,192.535L13.262,192.881L13.097,193.219L12.924,193.392L12.578,193.565L11.376,193.565" style="fill:rgb(169,0,0);fill-opacity:0;fill-rule:nonzero;stroke:rgb(169,0,0);stroke-width:0.43px;"/>
            <path d="M16.862,195.451L14.81,195.451" style="fill:none;fill-rule:nonzero;stroke:rgb(169,0,0);stroke-width:0.43px;"/>
            <path d="M15.84,195.451L15.84,191.851L15.494,192.362L15.149,192.708L14.81,192.881" style="fill:rgb(169,0,0);fill-opacity:0;fill-rule:nonzero;stroke:rgb(169,0,0);stroke-width:0.43px;"/>
        </g>
        <g transform="matrix(1,0,0,1,0,25.5651)">
            <path d="M19.44,203.544L8.64,203.544" style="fill:none;fill-rule:nonzero;stroke:rgb(132,0,0);stroke-width:0.43px;"/>
        </g>
        <g transform="matrix(1,0,0,1,0,25.5651)">
            <path d="M23.832,201.744L23.494,201.571L22.975,201.571L22.464,201.744L22.118,202.082L21.953,202.428L21.78,203.112L21.78,203.623L21.953,204.314L22.118,204.653L22.464,204.998L22.975,205.171L23.321,205.171L23.832,204.998L24.005,204.826L24.005,203.623L23.321,203.623" style="fill:rgb(0,100,100);fill-opacity:0;fill-rule:nonzero;stroke:rgb(0,100,100);stroke-width:0.43px;"/>
        </g>
        <g transform="matrix(1,0,0,1,0,25.5651)">
            <path d="M12.578,200.765L13.097,200.938L13.262,201.103L13.435,201.449L13.435,201.96L13.262,202.306L13.097,202.478L12.751,202.651L11.376,202.651L11.376,199.051L12.578,199.051L12.924,199.224L13.097,199.39L13.262,199.735L13.262,200.081L13.097,200.419L12.924,200.592L12.578,200.765L11.376,200.765" style="fill:rgb(169,0,0);fill-opacity:0;fill-rule:nonzero;stroke:rgb(169,0,0);stroke-width:0.43px;"/>
            <path d="M14.81,199.39L14.976,199.224L15.322,199.051L16.178,199.051L16.524,199.224L16.697,199.39L16.862,199.735L16.862,200.081L16.697,200.592L14.638,202.651L16.862,202.651" style="fill:rgb(169,0,0);fill-opacity:0;fill-rule:nonzero;stroke:rgb(169,0,0);stroke-width:0.43px;"/>
        </g>
        <g transform="matrix(1,0,0,1,0,25.5651)">
            <path d="M19.44,210.744L8.64,210.744" style="fill:none;fill-rule:nonzero;stroke:rgb(132,0,0);stroke-width:0.43px;"/>
        </g>
        <g transform="matrix(1,0,0,1,0,25.5651)">
            <path d="M23.148,210.485L23.666,210.658L23.832,210.823L24.005,211.169L24.005,211.68L23.832,212.026L23.666,212.198L23.321,212.371L21.953,212.371L21.953,208.771L23.148,208.771L23.494,208.944L23.666,209.11L23.832,209.455L23.832,209.801L23.666,210.139L23.494,210.312L23.148,210.485L21.953,210.485" style="fill:rgb(0,100,100);fill-opacity:0;fill-rule:nonzero;stroke:rgb(0,100,100);stroke-width:0.43px;"/>
        </g>
        <g transform="matrix(1,0,0,1,0,25.5651)">
            <path d="M12.578,207.965L13.097,208.138L13.262,208.303L13.435,208.649L13.435,209.16L13.262,209.506L13.097,209.678L12.751,209.851L11.376,209.851L11.376,206.251L12.578,206.251L12.924,206.424L13.097,206.59L13.262,206.935L13.262,207.281L13.097,207.619L12.924,207.792L12.578,207.965L11.376,207.965" style="fill:rgb(169,0,0);fill-opacity:0;fill-rule:nonzero;stroke:rgb(169,0,0);stroke-width:0.43px;"/>
            <path d="M14.638,206.251L16.862,206.251L15.667,207.619L16.178,207.619L16.524,207.792L16.697,207.965L16.862,208.303L16.862,209.16L16.697,209.506L16.524,209.678L16.178,209.851L15.149,209.851L14.81,209.678L14.638,209.506" style="fill:rgb(169,0,0);fill-opacity:0;fill-rule:nonzero;stroke:rgb(169,0,0);stroke-width:0.43px;"/>
        </g>
        <g transform="matrix(1,0,0,1,0,25.5651)">
            <path d="M41.04,217.944L41.04,228.744" style="fill:none;fill-rule:nonzero;stroke:rgb(132,0,0);stroke-width:0.43px;"/>
        </g>
        <g transform="matrix(1,0,0,1,0,25.5651)">
            <path d="M39.24,213.545L39.067,213.883L39.067,214.402L39.24,214.913L39.578,215.258L39.924,215.424L40.608,215.597L41.119,215.597L41.81,215.424L42.149,215.258L42.494,214.913L42.667,214.402L42.667,214.056L42.494,213.545L42.322,213.372L41.119,213.372L41.119,214.056" style="fill:rgb(0,100,100);fill-opacity:0;fill-rule:nonzero;stroke:rgb(0,100,100);stroke-width:0.43px;"/>
            <path d="M42.667,211.824L39.067,211.824L42.667,209.772L39.067,209.772" style="fill:rgb(0,100,100);fill-opacity:0;fill-rule:nonzero;stroke:rgb(0,100,100);stroke-width:0.43px;"/>
            <path d="M42.667,208.058L39.067,208.058L39.067,207.202L39.24,206.683L39.578,206.345L39.924,206.172L40.608,205.999L41.119,205.999L41.81,206.172L42.149,206.345L42.494,206.683L42.667,207.202L42.667,208.058" style="fill:rgb(0,100,100);fill-opacity:0;fill-rule:nonzero;stroke:rgb(0,100,100);stroke-width:0.43px;"/>
        </g>
        <g transform="matrix(1,0,0,1,0,25.5651)">
            <path d="M38.261,224.798L38.434,224.28L38.599,224.114L38.945,223.942L39.456,223.942L39.802,224.114L39.974,224.28L40.147,224.626L40.147,226.001L36.547,226.001L36.547,224.798L36.72,224.453L36.886,224.28L37.231,224.114L37.577,224.114L37.915,224.28L38.088,224.453L38.261,224.798L38.261,226.001" style="fill:rgb(169,0,0);fill-opacity:0;fill-rule:nonzero;stroke:rgb(169,0,0);stroke-width:0.43px;"/>
            <path d="M37.742,220.853L40.147,220.853" style="fill:none;fill-rule:nonzero;stroke:rgb(169,0,0);stroke-width:0.43px;"/>
            <path d="M36.374,221.71L38.945,222.566L38.945,220.342" style="fill:rgb(169,0,0);fill-opacity:0;fill-rule:nonzero;stroke:rgb(169,0,0);stroke-width:0.43px;"/>
        </g>
        <g transform="matrix(1,0,0,1,0,39.7856)">
            <path d="M49.262,-0.022L49.262,2.88L49.435,3.226L49.608,3.398L49.954,3.571L50.638,3.571L50.976,3.398L51.149,3.226L51.322,2.88L51.322,-0.022" style="fill:rgb(0,100,100);fill-opacity:0;fill-rule:nonzero;stroke:rgb(0,100,100);stroke-width:0.45px;"/>
            <path d="M53.554,3.226L53.719,3.398L53.554,3.571L53.381,3.398L53.554,3.226L53.554,3.571" style="fill:rgb(0,100,100);fill-opacity:0;fill-rule:nonzero;stroke:rgb(0,100,100);stroke-width:0.45px;"/>
            <path d="M52.862,0.144L53.208,-0.022L54.065,-0.022L54.41,0.144L54.576,0.482L54.576,0.828L54.41,1.166L54.238,1.339L53.892,1.512L53.719,1.685L53.554,2.023L53.554,2.196" style="fill:rgb(0,100,100);fill-opacity:0;fill-rule:nonzero;stroke:rgb(0,100,100);stroke-width:0.45px;"/>
        </g>
        <g transform="matrix(1,0,0,1,0,39.7856)">
            <path d="M31.694,-5.508L32.897,-5.508" style="fill:none;fill-rule:nonzero;stroke:rgb(0,100,100);stroke-width:0.45px;"/>
            <path d="M33.408,-3.622L31.694,-3.622L31.694,-7.222L33.408,-7.222" style="fill:rgb(0,100,100);fill-opacity:0;fill-rule:nonzero;stroke:rgb(0,100,100);stroke-width:0.45px;"/>
            <path d="M37.008,-3.622L35.806,-5.335" style="fill:none;fill-rule:nonzero;stroke:rgb(0,100,100);stroke-width:0.45px;"/>
            <path d="M34.949,-3.622L34.949,-7.222L36.324,-7.222L36.662,-7.056L36.835,-6.883L37.008,-6.538L37.008,-6.026L36.835,-5.681L36.662,-5.508L36.324,-5.335L34.949,-5.335" style="fill:rgb(0,100,100);fill-opacity:0;fill-rule:nonzero;stroke:rgb(0,100,100);stroke-width:0.45px;"/>
            <path d="M40.608,-3.967L40.435,-3.794L39.924,-3.622L39.578,-3.622L39.067,-3.794L38.722,-4.14L38.549,-4.478L38.376,-5.17L38.376,-5.681L38.549,-6.365L38.722,-6.71L39.067,-7.056L39.578,-7.222L39.924,-7.222L40.435,-7.056L40.608,-6.883" style="fill:rgb(0,100,100);fill-opacity:0;fill-rule:nonzero;stroke:rgb(0,100,100);stroke-width:0.45px;"/>
            <path d="M44.035,-3.622L41.976,-3.622" style="fill:none;fill-rule:nonzero;stroke:rgb(0,100,100);stroke-width:0.45px;"/>
            <path d="M43.006,-3.622L43.006,-7.222L42.667,-6.71L42.322,-6.365L41.976,-6.192" style="fill:rgb(0,100,100);fill-opacity:0;fill-rule:nonzero;stroke:rgb(0,100,100);stroke-width:0.45px;"/>
            <path d="M45.41,-6.883L45.576,-7.056L45.922,-7.222L46.778,-7.222L47.124,-7.056L47.297,-6.883L47.462,-6.538L47.462,-6.192L47.297,-5.681L45.238,-3.622L47.462,-3.622" style="fill:rgb(0,100,100);fill-opacity:0;fill-rule:nonzero;stroke:rgb(0,100,100);stroke-width:0.45px;"/>
            <path d="M49.522,-5.681L49.176,-5.854L49.01,-6.026L48.838,-6.365L48.838,-6.538L49.01,-6.883L49.176,-7.056L49.522,-7.222L50.206,-7.222L50.551,-7.056L50.724,-6.883L50.897,-6.538L50.897,-6.365L50.724,-6.026L50.551,-5.854L50.206,-5.681L49.522,-5.681L49.176,-5.508L49.01,-5.335L48.838,-4.997L48.838,-4.313L49.01,-3.967L49.176,-3.794L49.522,-3.622L50.206,-3.622L50.551,-3.794L50.724,-3.967L50.897,-4.313L50.897,-4.997L50.724,-5.335L50.551,-5.508L50.206,-5.681" style="fill:rgb(0,100,100);fill-opacity:0;fill-rule:nonzero;stroke:rgb(0,100,100);stroke-width:0.45px;"/>
            <path d="M53.978,-7.222L53.294,-7.222L52.949,-7.056L52.776,-6.883L52.438,-6.365L52.265,-5.681L52.265,-4.313L52.438,-3.967L52.61,-3.794L52.949,-3.622L53.633,-3.622L53.978,-3.794L54.151,-3.967L54.324,-4.313L54.324,-5.17L54.151,-5.508L53.978,-5.681L53.633,-5.854L52.949,-5.854L52.61,-5.681L52.438,-5.508L52.265,-5.17" style="fill:rgb(0,100,100);fill-opacity:0;fill-rule:nonzero;stroke:rgb(0,100,100);stroke-width:0.45px;"/>
            <path d="M57.406,-6.026L57.406,-3.622" style="fill:none;fill-rule:nonzero;stroke:rgb(0,100,100);stroke-width:0.45px;"/>
            <path d="M56.549,-7.394L55.692,-4.824L57.924,-4.824" style="fill:rgb(0,100,100);fill-opacity:0;fill-rule:nonzero;stroke:rgb(0,100,100);stroke-width:0.45px;"/>
            <path d="M60.494,-5.508L59.292,-5.508" style="fill:none;fill-rule:nonzero;stroke:rgb(0,100,100);stroke-width:0.45px;"/>
            <path d="M59.292,-3.622L59.292,-7.222L61.006,-7.222" style="fill:rgb(0,100,100);fill-opacity:0;fill-rule:nonzero;stroke:rgb(0,100,100);stroke-width:0.45px;"/>
            <path d="M62.035,-7.222L64.433,-7.222L62.892,-3.622" style="fill:rgb(0,100,100);fill-opacity:0;fill-rule:nonzero;stroke:rgb(0,100,100);stroke-width:0.45px;"/>
            <path d="M65.808,-4.997L68.551,-4.997" style="fill:none;fill-rule:nonzero;stroke:rgb(0,100,100);stroke-width:0.45px;"/>
            <path d="M72.151,-3.622L70.092,-3.622" style="fill:none;fill-rule:nonzero;stroke:rgb(0,100,100);stroke-width:0.45px;"/>
            <path d="M71.122,-3.622L71.122,-7.222L70.776,-6.71L70.438,-6.365L70.092,-6.192" style="fill:rgb(0,100,100);fill-opacity:0;fill-rule:nonzero;stroke:rgb(0,100,100);stroke-width:0.45px;"/>
        </g>
        <g transform="matrix(1,0,0,1,0,25.5613)">
            <path d="M60.718,227.628L60.718,225.914" style="fill:none;fill-rule:nonzero;stroke:rgb(169,0,0);stroke-width:0.43px;"/>
            <path d="M61.747,227.966L58.147,226.771L61.747,225.569" style="fill:rgb(169,0,0);fill-opacity:0;fill-rule:nonzero;stroke:rgb(169,0,0);stroke-width:0.43px;"/>
            <path d="M61.747,222.48L61.747,224.539" style="fill:none;fill-rule:nonzero;stroke:rgb(169,0,0);stroke-width:0.43px;"/>
            <path d="M61.747,223.51L58.147,223.51L58.658,223.855L59.004,224.201L59.177,224.539" style="fill:rgb(169,0,0);fill-opacity:0;fill-rule:nonzero;stroke:rgb(169,0,0);stroke-width:0.43px;"/>
            <path d="M58.147,219.398L58.147,220.082L58.32,220.428L58.486,220.601L59.004,220.939L59.688,221.112L61.056,221.112L61.402,220.939L61.574,220.766L61.747,220.428L61.747,219.744L61.574,219.398L61.402,219.226L61.056,219.053L60.199,219.053L59.861,219.226L59.688,219.398L59.515,219.744L59.515,220.428L59.688,220.766L59.861,220.939L60.199,221.112" style="fill:rgb(169,0,0);fill-opacity:0;fill-rule:nonzero;stroke:rgb(169,0,0);stroke-width:0.43px;"/>
        </g>
    </g>
</svg>
