<?xml version="1.0" standalone="no"?>
 <!DOCTYPE svg PUBLIC "-//W3C//DTD SVG 1.1//EN" 
 "http://www.w3.org/Graphics/SVG/1.1/DTD/svg11.dtd"> 
<svg
  xmlns:svg="http://www.w3.org/2000/svg"
  xmlns="http://www.w3.org/2000/svg"
  xmlns:xlink="http://www.w3.org/1999/xlink"
  version="1.1"
  width="3.352800cm" height="6.233160cm" viewBox="0 0 13200 24540">
<title>SVG Picture created as SSD1306.svg date 2022/12/22 19:41:25 </title>
  <desc>Picture generated by Eeschema-SVG </desc>
<g style="fill:#000000; fill-opacity:1.000000;stroke:#000000; stroke-opacity:1.000000;
stroke-linecap:round; stroke-linejoin:round;"
 transform="translate(0 0) scale(1 1)">
</g>
<g style="fill:#840000; fill-opacity:0.0; 
stroke:#840000; stroke-width:0.000000; stroke-opacity:1; 
stroke-linecap:round; stroke-linejoin:round;">
</g>
<g style="fill:#FFFFC2; fill-opacity:0.0; 
stroke:#FFFFC2; stroke-width:0.000000; stroke-opacity:1; 
stroke-linecap:round; stroke-linejoin:round;">
</g>
<g style="fill:#FFFFC2; fill-opacity:0.6; 
stroke:#FFFFC2; stroke-width:0.039370; stroke-opacity:1; 
stroke-linecap:round; stroke-linejoin:round;">
<rect x="2100.000000" y="4270.000000" width="9000.000000" height="17000.000000" rx="0.000000" />
</g>
<g style="fill:#840000; fill-opacity:0.6; 
stroke:#840000; stroke-width:0.039370; stroke-opacity:1; 
stroke-linecap:round; stroke-linejoin:round;">
</g>
<g style="fill:#840000; fill-opacity:0.0; 
stroke:#840000; stroke-width:60.000000; stroke-opacity:1; 
stroke-linecap:round; stroke-linejoin:round;">
<rect x="2100.000000" y="4270.000000" width="9000.000000" height="17000.000000" rx="0.000000" />
<rect x="2100.000000" y="4270.000000" width="9000.000000" height="17000.000000" rx="0.000000" />
<path d="M2100 18270
L1100 18270
" />
<path d="M950 18120
L1250 18420
" />
<path d="M1250 18120
L950 18420
" />
</g>
<g style="fill:#006464; fill-opacity:0.0; 
stroke:#006464; stroke-width:60.000000; stroke-opacity:1; 
stroke-linecap:round; stroke-linejoin:round;">
<text x="2300.000000" y="18520.000000"
textLength="1086.338583" font-size="666.653543" lengthAdjust="spacingAndGlyphs"
text-anchor="start" opacity="0">NC</text>
<g class="stroked-text"><desc>NC</desc>
<path d="M2449 18496
L2449 17996
L2734 18496
L2734 17996
" />
<path d="M3258 18448
L3234 18472
L3163 18496
L3115 18496
L3044 18472
L2996 18424
L2972 18377
L2949 18281
L2949 18210
L2972 18115
L2996 18067
L3044 18020
L3115 17996
L3163 17996
L3234 18020
L3258 18043
" />
</g></g>
<g style="fill:#A90000; fill-opacity:0.0; 
stroke:#A90000; stroke-width:60.000000; stroke-opacity:1; 
stroke-linecap:round; stroke-linejoin:round;">
<text x="1600.000000" y="18170.000000"
textLength="536.181102" font-size="666.653543" lengthAdjust="spacingAndGlyphs"
text-anchor="middle" opacity="0">1</text>
<g class="stroked-text"><desc>1</desc>
<path d="M1742 18146
L1457 18146
" />
<path d="M1600 18146
L1600 17646
L1552 17717
L1504 17765
L1457 17789
" />
</g></g>
<g style="fill:#840000; fill-opacity:0.0; 
stroke:#840000; stroke-width:60.000000; stroke-opacity:1; 
stroke-linecap:round; stroke-linejoin:round;">
<path d="M11100 6270
L12100 6270
" />
</g>
<g style="fill:#006464; fill-opacity:0.0; 
stroke:#006464; stroke-width:60.000000; stroke-opacity:1; 
stroke-linecap:round; stroke-linejoin:round;">
<text x="10900.000000" y="6520.000000"
textLength="1393.346457" font-size="666.653543" lengthAdjust="spacingAndGlyphs"
text-anchor="end" opacity="0">~CS</text>
<g class="stroked-text"><desc>~CS</desc>
<path d="M9584 6305
L9608 6281
L9655 6258
L9750 6305
L9798 6281
L9822 6258
" />
<path d="M10298 6448
L10274 6472
L10203 6496
L10155 6496
L10084 6472
L10036 6424
L10012 6377
L9989 6281
L9989 6210
L10012 6115
L10036 6067
L10084 6020
L10155 5996
L10203 5996
L10274 6020
L10298 6043
" />
<path d="M10489 6472
L10560 6496
L10679 6496
L10727 6472
L10750 6448
L10774 6400
L10774 6353
L10750 6305
L10727 6281
L10679 6258
L10584 6234
L10536 6210
L10512 6186
L10489 6139
L10489 6091
L10512 6043
L10536 6020
L10584 5996
L10703 5996
L10774 6020
" />
</g></g>
<g style="fill:#A90000; fill-opacity:0.0; 
stroke:#A90000; stroke-width:60.000000; stroke-opacity:1; 
stroke-linecap:round; stroke-linejoin:round;">
<text x="11600.000000" y="6170.000000"
textLength="1012.362205" font-size="666.653543" lengthAdjust="spacingAndGlyphs"
text-anchor="middle" opacity="0">13</text>
<g class="stroked-text"><desc>13</desc>
<path d="M11504 6146
L11219 6146
" />
<path d="M11361 6146
L11361 5646
L11314 5717
L11266 5765
L11219 5789
" />
<path d="M11671 5646
L11980 5646
L11814 5836
L11885 5836
L11933 5860
L11957 5884
L11980 5931
L11980 6050
L11957 6098
L11933 6122
L11885 6146
L11742 6146
L11695 6122
L11671 6098
" />
</g></g>
<g style="fill:#840000; fill-opacity:0.0; 
stroke:#840000; stroke-width:60.000000; stroke-opacity:1; 
stroke-linecap:round; stroke-linejoin:round;">
<path d="M11100 5270
L12100 5270
" />
</g>
<g style="fill:#006464; fill-opacity:0.0; 
stroke:#006464; stroke-width:60.000000; stroke-opacity:1; 
stroke-linecap:round; stroke-linejoin:round;">
<text x="10900.000000" y="5520.000000"
textLength="1845.708661" font-size="666.653543" lengthAdjust="spacingAndGlyphs"
text-anchor="end" opacity="0">~RES</text>
<g class="stroked-text"><desc>~RES</desc>
<path d="M9131 5305
L9155 5281
L9203 5258
L9298 5305
L9346 5281
L9370 5258
" />
<path d="M9846 5496
L9679 5258
" />
<path d="M9560 5496
L9560 4996
L9750 4996
L9798 5020
L9822 5043
L9846 5091
L9846 5162
L9822 5210
L9798 5234
L9750 5258
L9560 5258
" />
<path d="M10060 5234
L10227 5234
" />
<path d="M10298 5496
L10060 5496
L10060 4996
L10298 4996
" />
<path d="M10489 5472
L10560 5496
L10679 5496
L10727 5472
L10750 5448
L10774 5400
L10774 5353
L10750 5305
L10727 5281
L10679 5258
L10584 5234
L10536 5210
L10512 5186
L10489 5139
L10489 5091
L10512 5043
L10536 5020
L10584 4996
L10703 4996
L10774 5020
" />
</g></g>
<g style="fill:#A90000; fill-opacity:0.0; 
stroke:#A90000; stroke-width:60.000000; stroke-opacity:1; 
stroke-linecap:round; stroke-linejoin:round;">
<text x="11600.000000" y="5170.000000"
textLength="1012.362205" font-size="666.653543" lengthAdjust="spacingAndGlyphs"
text-anchor="middle" opacity="0">14</text>
<g class="stroked-text"><desc>14</desc>
<path d="M11504 5146
L11219 5146
" />
<path d="M11361 5146
L11361 4646
L11314 4717
L11266 4765
L11219 4789
" />
<path d="M11933 4812
L11933 5146
" />
<path d="M11814 4622
L11695 4979
L12004 4979
" />
</g></g>
<g style="fill:#840000; fill-opacity:0.0; 
stroke:#840000; stroke-width:60.000000; stroke-opacity:1; 
stroke-linecap:round; stroke-linejoin:round;">
<path d="M11100 11270
L12100 11270
" />
</g>
<g style="fill:#006464; fill-opacity:0.0; 
stroke:#006464; stroke-width:60.000000; stroke-opacity:1; 
stroke-linecap:round; stroke-linejoin:round;">
<text x="10900.000000" y="11520.000000"
textLength="1940.944882" font-size="666.653543" lengthAdjust="spacingAndGlyphs"
text-anchor="end" opacity="0">~C/D</text>
<g class="stroked-text"><desc>~C/D</desc>
<path d="M9036 11305
L9060 11281
L9108 11258
L9203 11305
L9250 11281
L9274 11258
" />
<path d="M9750 11448
L9727 11472
L9655 11496
L9608 11496
L9536 11472
L9489 11424
L9465 11377
L9441 11281
L9441 11210
L9465 11115
L9489 11067
L9536 11020
L9608 10996
L9655 10996
L9727 11020
L9750 11043
" />
<path d="M10322 10972
L9893 11615
" />
<path d="M10489 11496
L10489 10996
L10608 10996
L10679 11020
L10727 11067
L10750 11115
L10774 11210
L10774 11281
L10750 11377
L10727 11424
L10679 11472
L10608 11496
L10489 11496
" />
</g></g>
<g style="fill:#A90000; fill-opacity:0.0; 
stroke:#A90000; stroke-width:60.000000; stroke-opacity:1; 
stroke-linecap:round; stroke-linejoin:round;">
<text x="11600.000000" y="11170.000000"
textLength="1012.362205" font-size="666.653543" lengthAdjust="spacingAndGlyphs"
text-anchor="middle" opacity="0">15</text>
<g class="stroked-text"><desc>15</desc>
<path d="M11504 11146
L11219 11146
" />
<path d="M11361 11146
L11361 10646
L11314 10717
L11266 10765
L11219 10789
" />
<path d="M11957 10646
L11719 10646
L11695 10884
L11719 10860
L11766 10836
L11885 10836
L11933 10860
L11957 10884
L11980 10931
L11980 11050
L11957 11098
L11933 11122
L11885 11146
L11766 11146
L11719 11122
L11695 11098
" />
</g></g>
<g style="fill:#840000; fill-opacity:0.0; 
stroke:#840000; stroke-width:60.000000; stroke-opacity:1; 
stroke-linecap:round; stroke-linejoin:round;">
<path d="M11100 8270
L12100 8270
" />
</g>
<g style="fill:#006464; fill-opacity:0.0; 
stroke:#006464; stroke-width:60.000000; stroke-opacity:1; 
stroke-linecap:round; stroke-linejoin:round;">
<text x="10900.000000" y="8520.000000"
textLength="2012.362205" font-size="666.653543" lengthAdjust="spacingAndGlyphs"
text-anchor="end" opacity="0">~R/W</text>
<g class="stroked-text"><desc>~R/W</desc>
<path d="M8965 8305
L8989 8281
L9036 8258
L9131 8305
L9179 8281
L9203 8258
" />
<path d="M9679 8496
L9512 8258
" />
<path d="M9393 8496
L9393 7996
L9584 7996
L9631 8020
L9655 8043
L9679 8091
L9679 8162
L9655 8210
L9631 8234
L9584 8258
L9393 8258
" />
<path d="M10250 7972
L9822 8615
" />
<path d="M10370 7996
L10489 8496
L10584 8139
L10679 8496
L10798 7996
" />
</g></g>
<g style="fill:#A90000; fill-opacity:0.0; 
stroke:#A90000; stroke-width:60.000000; stroke-opacity:1; 
stroke-linecap:round; stroke-linejoin:round;">
<text x="11600.000000" y="8170.000000"
textLength="1012.362205" font-size="666.653543" lengthAdjust="spacingAndGlyphs"
text-anchor="middle" opacity="0">16</text>
<g class="stroked-text"><desc>16</desc>
<path d="M11504 8146
L11219 8146
" />
<path d="M11361 8146
L11361 7646
L11314 7717
L11266 7765
L11219 7789
" />
<path d="M11933 7646
L11838 7646
L11790 7670
L11766 7693
L11719 7765
L11695 7860
L11695 8050
L11719 8098
L11742 8122
L11790 8146
L11885 8146
L11933 8122
L11957 8098
L11980 8050
L11980 7931
L11957 7884
L11933 7860
L11885 7836
L11790 7836
L11742 7860
L11719 7884
L11695 7931
" />
</g></g>
<g style="fill:#840000; fill-opacity:0.0; 
stroke:#840000; stroke-width:60.000000; stroke-opacity:1; 
stroke-linecap:round; stroke-linejoin:round;">
<path d="M11100 9270
L12100 9270
" />
</g>
<g style="fill:#006464; fill-opacity:0.0; 
stroke:#006464; stroke-width:60.000000; stroke-opacity:1; 
stroke-linecap:round; stroke-linejoin:round;">
<text x="10900.000000" y="9520.000000"
textLength="2536.181102" font-size="666.653543" lengthAdjust="spacingAndGlyphs"
text-anchor="end" opacity="0">E(~RD)</text>
<g class="stroked-text"><desc>E(~RD)</desc>
<path d="M8512 9234
L8679 9234
" />
<path d="M8750 9496
L8512 9496
L8512 8996
L8750 8996
" />
<path d="M9108 9686
L9084 9662
L9036 9591
L9012 9543
L8989 9472
L8965 9353
L8965 9258
L8989 9139
L9012 9067
L9036 9020
L9084 8948
L9108 8924
" />
<path d="M9227 9305
L9250 9281
L9298 9258
L9393 9305
L9441 9281
L9465 9258
" />
<path d="M9941 9496
L9774 9258
" />
<path d="M9655 9496
L9655 8996
L9846 8996
L9893 9020
L9917 9043
L9941 9091
L9941 9162
L9917 9210
L9893 9234
L9846 9258
L9655 9258
" />
<path d="M10155 9496
L10155 8996
L10274 8996
L10346 9020
L10393 9067
L10417 9115
L10441 9210
L10441 9281
L10417 9377
L10393 9424
L10346 9472
L10274 9496
L10155 9496
" />
<path d="M10608 9686
L10631 9662
L10679 9591
L10703 9543
L10727 9472
L10750 9353
L10750 9258
L10727 9139
L10703 9067
L10679 9020
L10631 8948
L10608 8924
" />
</g></g>
<g style="fill:#A90000; fill-opacity:0.0; 
stroke:#A90000; stroke-width:60.000000; stroke-opacity:1; 
stroke-linecap:round; stroke-linejoin:round;">
<text x="11600.000000" y="9170.000000"
textLength="1012.362205" font-size="666.653543" lengthAdjust="spacingAndGlyphs"
text-anchor="middle" opacity="0">17</text>
<g class="stroked-text"><desc>17</desc>
<path d="M11504 9146
L11219 9146
" />
<path d="M11361 9146
L11361 8646
L11314 8717
L11266 8765
L11219 8789
" />
<path d="M11671 8646
L12004 8646
L11790 9146
" />
</g></g>
<g style="fill:#840000; fill-opacity:0.0; 
stroke:#840000; stroke-width:60.000000; stroke-opacity:1; 
stroke-linecap:round; stroke-linejoin:round;">
<path d="M11100 13270
L12100 13270
" />
</g>
<g style="fill:#006464; fill-opacity:0.0; 
stroke:#006464; stroke-width:60.000000; stroke-opacity:1; 
stroke-linecap:round; stroke-linejoin:round;">
<text x="10900.000000" y="13520.000000"
textLength="1536.181102" font-size="666.653543" lengthAdjust="spacingAndGlyphs"
text-anchor="end" opacity="0">DB0</text>
<g class="stroked-text"><desc>DB0</desc>
<path d="M9512 13496
L9512 12996
L9631 12996
L9703 13020
L9750 13067
L9774 13115
L9798 13210
L9798 13281
L9774 13377
L9750 13424
L9703 13472
L9631 13496
L9512 13496
" />
<path d="M10179 13234
L10250 13258
L10274 13281
L10298 13329
L10298 13400
L10274 13448
L10250 13472
L10203 13496
L10012 13496
L10012 12996
L10179 12996
L10227 13020
L10250 13043
L10274 13091
L10274 13139
L10250 13186
L10227 13210
L10179 13234
L10012 13234
" />
<path d="M10608 12996
L10655 12996
L10703 13020
L10727 13043
L10750 13091
L10774 13186
L10774 13305
L10750 13400
L10727 13448
L10703 13472
L10655 13496
L10608 13496
L10560 13472
L10536 13448
L10512 13400
L10489 13305
L10489 13186
L10512 13091
L10536 13043
L10560 13020
L10608 12996
" />
</g></g>
<g style="fill:#A90000; fill-opacity:0.0; 
stroke:#A90000; stroke-width:60.000000; stroke-opacity:1; 
stroke-linecap:round; stroke-linejoin:round;">
<text x="11600.000000" y="13170.000000"
textLength="1012.362205" font-size="666.653543" lengthAdjust="spacingAndGlyphs"
text-anchor="middle" opacity="0">18</text>
<g class="stroked-text"><desc>18</desc>
<path d="M11504 13146
L11219 13146
" />
<path d="M11361 13146
L11361 12646
L11314 12717
L11266 12765
L11219 12789
" />
<path d="M11790 12860
L11742 12836
L11719 12812
L11695 12765
L11695 12741
L11719 12693
L11742 12670
L11790 12646
L11885 12646
L11933 12670
L11957 12693
L11980 12741
L11980 12765
L11957 12812
L11933 12836
L11885 12860
L11790 12860
L11742 12884
L11719 12908
L11695 12955
L11695 13050
L11719 13098
L11742 13122
L11790 13146
L11885 13146
L11933 13122
L11957 13098
L11980 13050
L11980 12955
L11957 12908
L11933 12884
L11885 12860
" />
</g></g>
<g style="fill:#840000; fill-opacity:0.0; 
stroke:#840000; stroke-width:60.000000; stroke-opacity:1; 
stroke-linecap:round; stroke-linejoin:round;">
<path d="M11100 14270
L12100 14270
" />
</g>
<g style="fill:#006464; fill-opacity:0.0; 
stroke:#006464; stroke-width:60.000000; stroke-opacity:1; 
stroke-linecap:round; stroke-linejoin:round;">
<text x="10900.000000" y="14520.000000"
textLength="1536.181102" font-size="666.653543" lengthAdjust="spacingAndGlyphs"
text-anchor="end" opacity="0">DB1</text>
<g class="stroked-text"><desc>DB1</desc>
<path d="M9512 14496
L9512 13996
L9631 13996
L9703 14020
L9750 14067
L9774 14115
L9798 14210
L9798 14281
L9774 14377
L9750 14424
L9703 14472
L9631 14496
L9512 14496
" />
<path d="M10179 14234
L10250 14258
L10274 14281
L10298 14329
L10298 14400
L10274 14448
L10250 14472
L10203 14496
L10012 14496
L10012 13996
L10179 13996
L10227 14020
L10250 14043
L10274 14091
L10274 14139
L10250 14186
L10227 14210
L10179 14234
L10012 14234
" />
<path d="M10774 14496
L10489 14496
" />
<path d="M10631 14496
L10631 13996
L10584 14067
L10536 14115
L10489 14139
" />
</g></g>
<g style="fill:#A90000; fill-opacity:0.0; 
stroke:#A90000; stroke-width:60.000000; stroke-opacity:1; 
stroke-linecap:round; stroke-linejoin:round;">
<text x="11600.000000" y="14170.000000"
textLength="1012.362205" font-size="666.653543" lengthAdjust="spacingAndGlyphs"
text-anchor="middle" opacity="0">19</text>
<g class="stroked-text"><desc>19</desc>
<path d="M11504 14146
L11219 14146
" />
<path d="M11361 14146
L11361 13646
L11314 13717
L11266 13765
L11219 13789
" />
<path d="M11742 14146
L11838 14146
L11885 14122
L11909 14098
L11957 14027
L11980 13931
L11980 13741
L11957 13693
L11933 13670
L11885 13646
L11790 13646
L11742 13670
L11719 13693
L11695 13741
L11695 13860
L11719 13908
L11742 13931
L11790 13955
L11885 13955
L11933 13931
L11957 13908
L11980 13860
" />
</g></g>
<g style="fill:#840000; fill-opacity:0.0; 
stroke:#840000; stroke-width:60.000000; stroke-opacity:1; 
stroke-linecap:round; stroke-linejoin:round;">
<path d="M2100 5270
L1100 5270
" />
</g>
<g style="fill:#006464; fill-opacity:0.0; 
stroke:#006464; stroke-width:60.000000; stroke-opacity:1; 
stroke-linecap:round; stroke-linejoin:round;">
<text x="2300.000000" y="5520.000000"
textLength="2269.527559" font-size="666.653543" lengthAdjust="spacingAndGlyphs"
text-anchor="start" opacity="0">CAP_{2P}</text>
<g class="stroked-text"><desc>CAP_{2P}</desc>
<path d="M2734 5448
L2710 5472
L2639 5496
L2591 5496
L2520 5472
L2472 5424
L2449 5377
L2425 5281
L2425 5210
L2449 5115
L2472 5067
L2520 5020
L2591 4996
L2639 4996
L2710 5020
L2734 5043
" />
<path d="M2925 5353
L3163 5353
" />
<path d="M2877 5496
L3044 4996
L3210 5496
" />
<path d="M3377 5496
L3377 4996
L3568 4996
L3615 5020
L3639 5043
L3663 5091
L3663 5162
L3639 5210
L3615 5234
L3568 5258
L3377 5258
" />
<path d="M3834 5189
L3853 5170
L3891 5150
L3987 5150
L4025 5170
L4044 5189
L4063 5227
L4063 5265
L4044 5322
L3815 5550
L4063 5550
" />
<path d="M4234 5550
L4234 5150
L4387 5150
L4425 5170
L4444 5189
L4463 5227
L4463 5284
L4444 5322
L4425 5341
L4387 5360
L4234 5360
" />
</g></g>
<g style="fill:#A90000; fill-opacity:0.0; 
stroke:#A90000; stroke-width:60.000000; stroke-opacity:1; 
stroke-linecap:round; stroke-linejoin:round;">
<text x="1600.000000" y="5170.000000"
textLength="536.181102" font-size="666.653543" lengthAdjust="spacingAndGlyphs"
text-anchor="middle" opacity="0">2</text>
<g class="stroked-text"><desc>2</desc>
<path d="M1457 4693
L1480 4670
L1528 4646
L1647 4646
L1695 4670
L1719 4693
L1742 4741
L1742 4789
L1719 4860
L1433 5146
L1742 5146
" />
</g></g>
<g style="fill:#840000; fill-opacity:0.0; 
stroke:#840000; stroke-width:60.000000; stroke-opacity:1; 
stroke-linecap:round; stroke-linejoin:round;">
<path d="M11100 15270
L12100 15270
" />
</g>
<g style="fill:#006464; fill-opacity:0.0; 
stroke:#006464; stroke-width:60.000000; stroke-opacity:1; 
stroke-linecap:round; stroke-linejoin:round;">
<text x="10900.000000" y="15520.000000"
textLength="1536.181102" font-size="666.653543" lengthAdjust="spacingAndGlyphs"
text-anchor="end" opacity="0">DB2</text>
<g class="stroked-text"><desc>DB2</desc>
<path d="M9512 15496
L9512 14996
L9631 14996
L9703 15020
L9750 15067
L9774 15115
L9798 15210
L9798 15281
L9774 15377
L9750 15424
L9703 15472
L9631 15496
L9512 15496
" />
<path d="M10179 15234
L10250 15258
L10274 15281
L10298 15329
L10298 15400
L10274 15448
L10250 15472
L10203 15496
L10012 15496
L10012 14996
L10179 14996
L10227 15020
L10250 15043
L10274 15091
L10274 15139
L10250 15186
L10227 15210
L10179 15234
L10012 15234
" />
<path d="M10489 15043
L10512 15020
L10560 14996
L10679 14996
L10727 15020
L10750 15043
L10774 15091
L10774 15139
L10750 15210
L10465 15496
L10774 15496
" />
</g></g>
<g style="fill:#A90000; fill-opacity:0.0; 
stroke:#A90000; stroke-width:60.000000; stroke-opacity:1; 
stroke-linecap:round; stroke-linejoin:round;">
<text x="11600.000000" y="15170.000000"
textLength="1012.362205" font-size="666.653543" lengthAdjust="spacingAndGlyphs"
text-anchor="middle" opacity="0">20</text>
<g class="stroked-text"><desc>20</desc>
<path d="M11219 14693
L11242 14670
L11290 14646
L11409 14646
L11457 14670
L11480 14693
L11504 14741
L11504 14789
L11480 14860
L11195 15146
L11504 15146
" />
<path d="M11814 14646
L11861 14646
L11909 14670
L11933 14693
L11957 14741
L11980 14836
L11980 14955
L11957 15050
L11933 15098
L11909 15122
L11861 15146
L11814 15146
L11766 15122
L11742 15098
L11719 15050
L11695 14955
L11695 14836
L11719 14741
L11742 14693
L11766 14670
L11814 14646
" />
</g></g>
<g style="fill:#840000; fill-opacity:0.0; 
stroke:#840000; stroke-width:60.000000; stroke-opacity:1; 
stroke-linecap:round; stroke-linejoin:round;">
<path d="M11100 16270
L12100 16270
" />
</g>
<g style="fill:#006464; fill-opacity:0.0; 
stroke:#006464; stroke-width:60.000000; stroke-opacity:1; 
stroke-linecap:round; stroke-linejoin:round;">
<text x="10900.000000" y="16520.000000"
textLength="1536.181102" font-size="666.653543" lengthAdjust="spacingAndGlyphs"
text-anchor="end" opacity="0">DB3</text>
<g class="stroked-text"><desc>DB3</desc>
<path d="M9512 16496
L9512 15996
L9631 15996
L9703 16020
L9750 16067
L9774 16115
L9798 16210
L9798 16281
L9774 16377
L9750 16424
L9703 16472
L9631 16496
L9512 16496
" />
<path d="M10179 16234
L10250 16258
L10274 16281
L10298 16329
L10298 16400
L10274 16448
L10250 16472
L10203 16496
L10012 16496
L10012 15996
L10179 15996
L10227 16020
L10250 16043
L10274 16091
L10274 16139
L10250 16186
L10227 16210
L10179 16234
L10012 16234
" />
<path d="M10465 15996
L10774 15996
L10608 16186
L10679 16186
L10727 16210
L10750 16234
L10774 16281
L10774 16400
L10750 16448
L10727 16472
L10679 16496
L10536 16496
L10489 16472
L10465 16448
" />
</g></g>
<g style="fill:#A90000; fill-opacity:0.0; 
stroke:#A90000; stroke-width:60.000000; stroke-opacity:1; 
stroke-linecap:round; stroke-linejoin:round;">
<text x="11600.000000" y="16170.000000"
textLength="1012.362205" font-size="666.653543" lengthAdjust="spacingAndGlyphs"
text-anchor="middle" opacity="0">21</text>
<g class="stroked-text"><desc>21</desc>
<path d="M11219 15693
L11242 15670
L11290 15646
L11409 15646
L11457 15670
L11480 15693
L11504 15741
L11504 15789
L11480 15860
L11195 16146
L11504 16146
" />
<path d="M11980 16146
L11695 16146
" />
<path d="M11838 16146
L11838 15646
L11790 15717
L11742 15765
L11695 15789
" />
</g></g>
<g style="fill:#840000; fill-opacity:0.0; 
stroke:#840000; stroke-width:60.000000; stroke-opacity:1; 
stroke-linecap:round; stroke-linejoin:round;">
<path d="M11100 17270
L12100 17270
" />
</g>
<g style="fill:#006464; fill-opacity:0.0; 
stroke:#006464; stroke-width:60.000000; stroke-opacity:1; 
stroke-linecap:round; stroke-linejoin:round;">
<text x="10900.000000" y="17520.000000"
textLength="1536.181102" font-size="666.653543" lengthAdjust="spacingAndGlyphs"
text-anchor="end" opacity="0">DB4</text>
<g class="stroked-text"><desc>DB4</desc>
<path d="M9512 17496
L9512 16996
L9631 16996
L9703 17020
L9750 17067
L9774 17115
L9798 17210
L9798 17281
L9774 17377
L9750 17424
L9703 17472
L9631 17496
L9512 17496
" />
<path d="M10179 17234
L10250 17258
L10274 17281
L10298 17329
L10298 17400
L10274 17448
L10250 17472
L10203 17496
L10012 17496
L10012 16996
L10179 16996
L10227 17020
L10250 17043
L10274 17091
L10274 17139
L10250 17186
L10227 17210
L10179 17234
L10012 17234
" />
<path d="M10727 17162
L10727 17496
" />
<path d="M10608 16972
L10489 17329
L10798 17329
" />
</g></g>
<g style="fill:#A90000; fill-opacity:0.0; 
stroke:#A90000; stroke-width:60.000000; stroke-opacity:1; 
stroke-linecap:round; stroke-linejoin:round;">
<text x="11600.000000" y="17170.000000"
textLength="1012.362205" font-size="666.653543" lengthAdjust="spacingAndGlyphs"
text-anchor="middle" opacity="0">22</text>
<g class="stroked-text"><desc>22</desc>
<path d="M11219 16693
L11242 16670
L11290 16646
L11409 16646
L11457 16670
L11480 16693
L11504 16741
L11504 16789
L11480 16860
L11195 17146
L11504 17146
" />
<path d="M11695 16693
L11719 16670
L11766 16646
L11885 16646
L11933 16670
L11957 16693
L11980 16741
L11980 16789
L11957 16860
L11671 17146
L11980 17146
" />
</g></g>
<g style="fill:#840000; fill-opacity:0.0; 
stroke:#840000; stroke-width:60.000000; stroke-opacity:1; 
stroke-linecap:round; stroke-linejoin:round;">
<path d="M11100 18270
L12100 18270
" />
</g>
<g style="fill:#006464; fill-opacity:0.0; 
stroke:#006464; stroke-width:60.000000; stroke-opacity:1; 
stroke-linecap:round; stroke-linejoin:round;">
<text x="10900.000000" y="18520.000000"
textLength="1536.181102" font-size="666.653543" lengthAdjust="spacingAndGlyphs"
text-anchor="end" opacity="0">DB5</text>
<g class="stroked-text"><desc>DB5</desc>
<path d="M9512 18496
L9512 17996
L9631 17996
L9703 18020
L9750 18067
L9774 18115
L9798 18210
L9798 18281
L9774 18377
L9750 18424
L9703 18472
L9631 18496
L9512 18496
" />
<path d="M10179 18234
L10250 18258
L10274 18281
L10298 18329
L10298 18400
L10274 18448
L10250 18472
L10203 18496
L10012 18496
L10012 17996
L10179 17996
L10227 18020
L10250 18043
L10274 18091
L10274 18139
L10250 18186
L10227 18210
L10179 18234
L10012 18234
" />
<path d="M10750 17996
L10512 17996
L10489 18234
L10512 18210
L10560 18186
L10679 18186
L10727 18210
L10750 18234
L10774 18281
L10774 18400
L10750 18448
L10727 18472
L10679 18496
L10560 18496
L10512 18472
L10489 18448
" />
</g></g>
<g style="fill:#A90000; fill-opacity:0.0; 
stroke:#A90000; stroke-width:60.000000; stroke-opacity:1; 
stroke-linecap:round; stroke-linejoin:round;">
<text x="11600.000000" y="18170.000000"
textLength="1012.362205" font-size="666.653543" lengthAdjust="spacingAndGlyphs"
text-anchor="middle" opacity="0">23</text>
<g class="stroked-text"><desc>23</desc>
<path d="M11219 17693
L11242 17670
L11290 17646
L11409 17646
L11457 17670
L11480 17693
L11504 17741
L11504 17789
L11480 17860
L11195 18146
L11504 18146
" />
<path d="M11671 17646
L11980 17646
L11814 17836
L11885 17836
L11933 17860
L11957 17884
L11980 17931
L11980 18050
L11957 18098
L11933 18122
L11885 18146
L11742 18146
L11695 18122
L11671 18098
" />
</g></g>
<g style="fill:#840000; fill-opacity:0.0; 
stroke:#840000; stroke-width:60.000000; stroke-opacity:1; 
stroke-linecap:round; stroke-linejoin:round;">
<path d="M11100 19270
L12100 19270
" />
</g>
<g style="fill:#006464; fill-opacity:0.0; 
stroke:#006464; stroke-width:60.000000; stroke-opacity:1; 
stroke-linecap:round; stroke-linejoin:round;">
<text x="10900.000000" y="19520.000000"
textLength="1536.181102" font-size="666.653543" lengthAdjust="spacingAndGlyphs"
text-anchor="end" opacity="0">DB6</text>
<g class="stroked-text"><desc>DB6</desc>
<path d="M9512 19496
L9512 18996
L9631 18996
L9703 19020
L9750 19067
L9774 19115
L9798 19210
L9798 19281
L9774 19377
L9750 19424
L9703 19472
L9631 19496
L9512 19496
" />
<path d="M10179 19234
L10250 19258
L10274 19281
L10298 19329
L10298 19400
L10274 19448
L10250 19472
L10203 19496
L10012 19496
L10012 18996
L10179 18996
L10227 19020
L10250 19043
L10274 19091
L10274 19139
L10250 19186
L10227 19210
L10179 19234
L10012 19234
" />
<path d="M10727 18996
L10631 18996
L10584 19020
L10560 19043
L10512 19115
L10489 19210
L10489 19400
L10512 19448
L10536 19472
L10584 19496
L10679 19496
L10727 19472
L10750 19448
L10774 19400
L10774 19281
L10750 19234
L10727 19210
L10679 19186
L10584 19186
L10536 19210
L10512 19234
L10489 19281
" />
</g></g>
<g style="fill:#A90000; fill-opacity:0.0; 
stroke:#A90000; stroke-width:60.000000; stroke-opacity:1; 
stroke-linecap:round; stroke-linejoin:round;">
<text x="11600.000000" y="19170.000000"
textLength="1012.362205" font-size="666.653543" lengthAdjust="spacingAndGlyphs"
text-anchor="middle" opacity="0">24</text>
<g class="stroked-text"><desc>24</desc>
<path d="M11219 18693
L11242 18670
L11290 18646
L11409 18646
L11457 18670
L11480 18693
L11504 18741
L11504 18789
L11480 18860
L11195 19146
L11504 19146
" />
<path d="M11933 18812
L11933 19146
" />
<path d="M11814 18622
L11695 18979
L12004 18979
" />
</g></g>
<g style="fill:#840000; fill-opacity:0.0; 
stroke:#840000; stroke-width:60.000000; stroke-opacity:1; 
stroke-linecap:round; stroke-linejoin:round;">
<path d="M11100 20270
L12100 20270
" />
</g>
<g style="fill:#006464; fill-opacity:0.0; 
stroke:#006464; stroke-width:60.000000; stroke-opacity:1; 
stroke-linecap:round; stroke-linejoin:round;">
<text x="10900.000000" y="20520.000000"
textLength="1536.181102" font-size="666.653543" lengthAdjust="spacingAndGlyphs"
text-anchor="end" opacity="0">DB7</text>
<g class="stroked-text"><desc>DB7</desc>
<path d="M9512 20496
L9512 19996
L9631 19996
L9703 20020
L9750 20067
L9774 20115
L9798 20210
L9798 20281
L9774 20377
L9750 20424
L9703 20472
L9631 20496
L9512 20496
" />
<path d="M10179 20234
L10250 20258
L10274 20281
L10298 20329
L10298 20400
L10274 20448
L10250 20472
L10203 20496
L10012 20496
L10012 19996
L10179 19996
L10227 20020
L10250 20043
L10274 20091
L10274 20139
L10250 20186
L10227 20210
L10179 20234
L10012 20234
" />
<path d="M10465 19996
L10798 19996
L10584 20496
" />
</g></g>
<g style="fill:#A90000; fill-opacity:0.0; 
stroke:#A90000; stroke-width:60.000000; stroke-opacity:1; 
stroke-linecap:round; stroke-linejoin:round;">
<text x="11600.000000" y="20170.000000"
textLength="1012.362205" font-size="666.653543" lengthAdjust="spacingAndGlyphs"
text-anchor="middle" opacity="0">25</text>
<g class="stroked-text"><desc>25</desc>
<path d="M11219 19693
L11242 19670
L11290 19646
L11409 19646
L11457 19670
L11480 19693
L11504 19741
L11504 19789
L11480 19860
L11195 20146
L11504 20146
" />
<path d="M11957 19646
L11719 19646
L11695 19884
L11719 19860
L11766 19836
L11885 19836
L11933 19860
L11957 19884
L11980 19931
L11980 20050
L11957 20098
L11933 20122
L11885 20146
L11766 20146
L11719 20122
L11695 20098
" />
</g></g>
<g style="fill:#840000; fill-opacity:0.0; 
stroke:#840000; stroke-width:60.000000; stroke-opacity:1; 
stroke-linecap:round; stroke-linejoin:round;">
<path d="M2100 12270
L1100 12270
" />
</g>
<g style="fill:#006464; fill-opacity:0.0; 
stroke:#006464; stroke-width:60.000000; stroke-opacity:1; 
stroke-linecap:round; stroke-linejoin:round;">
<text x="2300.000000" y="12520.000000"
textLength="1402.874016" font-size="666.653543" lengthAdjust="spacingAndGlyphs"
text-anchor="start" opacity="0">I_{REF}</text>
<g class="stroked-text"><desc>I_{REF}</desc>
<path d="M2449 12496
L2449 11996
" />
<path d="M2891 12550
L2758 12360
" />
<path d="M2663 12550
L2663 12150
L2815 12150
L2853 12170
L2872 12189
L2891 12227
L2891 12284
L2872 12322
L2853 12341
L2815 12360
L2663 12360
" />
<path d="M3063 12341
L3196 12341
" />
<path d="M3253 12550
L3063 12550
L3063 12150
L3253 12150
" />
<path d="M3558 12341
L3425 12341
" />
<path d="M3425 12550
L3425 12150
L3615 12150
" />
</g></g>
<g style="fill:#A90000; fill-opacity:0.0; 
stroke:#A90000; stroke-width:60.000000; stroke-opacity:1; 
stroke-linecap:round; stroke-linejoin:round;">
<text x="1600.000000" y="12170.000000"
textLength="1012.362205" font-size="666.653543" lengthAdjust="spacingAndGlyphs"
text-anchor="middle" opacity="0">26</text>
<g class="stroked-text"><desc>26</desc>
<path d="M1219 11693
L1242 11670
L1290 11646
L1409 11646
L1457 11670
L1480 11693
L1504 11741
L1504 11789
L1480 11860
L1195 12146
L1504 12146
" />
<path d="M1933 11646
L1838 11646
L1790 11670
L1766 11693
L1719 11765
L1695 11860
L1695 12050
L1719 12098
L1742 12122
L1790 12146
L1885 12146
L1933 12122
L1957 12098
L1980 12050
L1980 11931
L1957 11884
L1933 11860
L1885 11836
L1790 11836
L1742 11860
L1719 11884
L1695 11931
" />
</g></g>
<g style="fill:#840000; fill-opacity:0.0; 
stroke:#840000; stroke-width:60.000000; stroke-opacity:1; 
stroke-linecap:round; stroke-linejoin:round;">
<path d="M2100 13270
L1100 13270
" />
</g>
<g style="fill:#006464; fill-opacity:0.0; 
stroke:#006464; stroke-width:60.000000; stroke-opacity:1; 
stroke-linecap:round; stroke-linejoin:round;">
<text x="2300.000000" y="13520.000000"
textLength="2183.818898" font-size="666.653543" lengthAdjust="spacingAndGlyphs"
text-anchor="start" opacity="0">V_{COMH}</text>
<g class="stroked-text"><desc>V_{COMH}</desc>
<path d="M2377 12996
L2544 13496
L2710 12996
" />
<path d="M3082 13512
L3063 13531
L3006 13550
L2968 13550
L2910 13531
L2872 13493
L2853 13455
L2834 13379
L2834 13322
L2853 13246
L2872 13208
L2910 13170
L2968 13150
L3006 13150
L3063 13170
L3082 13189
" />
<path d="M3330 13150
L3406 13150
L3444 13170
L3482 13208
L3501 13284
L3501 13417
L3482 13493
L3444 13531
L3406 13550
L3330 13550
L3291 13531
L3253 13493
L3234 13417
L3234 13284
L3253 13208
L3291 13170
L3330 13150
" />
<path d="M3672 13550
L3672 13150
L3806 13436
L3939 13150
L3939 13550
" />
<path d="M4130 13550
L4130 13150
" />
<path d="M4130 13341
L4358 13341
" />
<path d="M4358 13550
L4358 13150
" />
</g></g>
<g style="fill:#A90000; fill-opacity:0.0; 
stroke:#A90000; stroke-width:60.000000; stroke-opacity:1; 
stroke-linecap:round; stroke-linejoin:round;">
<text x="1600.000000" y="13170.000000"
textLength="1012.362205" font-size="666.653543" lengthAdjust="spacingAndGlyphs"
text-anchor="middle" opacity="0">27</text>
<g class="stroked-text"><desc>27</desc>
<path d="M1219 12693
L1242 12670
L1290 12646
L1409 12646
L1457 12670
L1480 12693
L1504 12741
L1504 12789
L1480 12860
L1195 13146
L1504 13146
" />
<path d="M1671 12646
L2004 12646
L1790 13146
" />
</g></g>
<g style="fill:#840000; fill-opacity:0.0; 
stroke:#840000; stroke-width:60.000000; stroke-opacity:1; 
stroke-linecap:round; stroke-linejoin:round;">
<path d="M2100 14270
L1100 14270
" />
</g>
<g style="fill:#006464; fill-opacity:0.0; 
stroke:#006464; stroke-width:60.000000; stroke-opacity:1; 
stroke-linecap:round; stroke-linejoin:round;">
<text x="2300.000000" y="14520.000000"
textLength="1288.582677" font-size="666.653543" lengthAdjust="spacingAndGlyphs"
text-anchor="start" opacity="0">V_{CC}</text>
<g class="stroked-text"><desc>V_{CC}</desc>
<path d="M2377 13996
L2544 14496
L2710 13996
" />
<path d="M3082 14512
L3063 14531
L3006 14550
L2968 14550
L2910 14531
L2872 14493
L2853 14455
L2834 14379
L2834 14322
L2853 14246
L2872 14208
L2910 14170
L2968 14150
L3006 14150
L3063 14170
L3082 14189
" />
<path d="M3482 14512
L3463 14531
L3406 14550
L3368 14550
L3310 14531
L3272 14493
L3253 14455
L3234 14379
L3234 14322
L3253 14246
L3272 14208
L3310 14170
L3368 14150
L3406 14150
L3463 14170
L3482 14189
" />
</g></g>
<g style="fill:#A90000; fill-opacity:0.0; 
stroke:#A90000; stroke-width:60.000000; stroke-opacity:1; 
stroke-linecap:round; stroke-linejoin:round;">
<text x="1600.000000" y="14170.000000"
textLength="1012.362205" font-size="666.653543" lengthAdjust="spacingAndGlyphs"
text-anchor="middle" opacity="0">28</text>
<g class="stroked-text"><desc>28</desc>
<path d="M1219 13693
L1242 13670
L1290 13646
L1409 13646
L1457 13670
L1480 13693
L1504 13741
L1504 13789
L1480 13860
L1195 14146
L1504 14146
" />
<path d="M1790 13860
L1742 13836
L1719 13812
L1695 13765
L1695 13741
L1719 13693
L1742 13670
L1790 13646
L1885 13646
L1933 13670
L1957 13693
L1980 13741
L1980 13765
L1957 13812
L1933 13836
L1885 13860
L1790 13860
L1742 13884
L1719 13908
L1695 13955
L1695 14050
L1719 14098
L1742 14122
L1790 14146
L1885 14146
L1933 14122
L1957 14098
L1980 14050
L1980 13955
L1957 13908
L1933 13884
L1885 13860
" />
</g></g>
<g style="fill:#840000; fill-opacity:0.0; 
stroke:#840000; stroke-width:60.000000; stroke-opacity:1; 
stroke-linecap:round; stroke-linejoin:round;">
<path d="M6100 21270
L6100 22270
" />
</g>
<g style="fill:#006464; fill-opacity:0.0; 
stroke:#006464; stroke-width:60.000000; stroke-opacity:1; 
stroke-linecap:round; stroke-linejoin:round;">
<g transform="rotate(-90.000000 6100.000000 21070.000000)">
<text x="6100.000000" y="21320.000000"
textLength="1574.291339" font-size="666.653543" lengthAdjust="spacingAndGlyphs"
text-anchor="start" opacity="0">V_{LSS}</text>
</g>
<g class="stroked-text"><desc>V_{LSS}</desc>
<path d="M5826 20992
L6326 20825
L5826 20659
" />
<path d="M6380 20325
L6380 20516
L5980 20516
" />
<path d="M6361 20211
L6380 20154
L6380 20059
L6361 20020
L6342 20001
L6304 19982
L6266 19982
L6228 20001
L6209 20020
L6190 20059
L6171 20135
L6152 20173
L6133 20192
L6095 20211
L6057 20211
L6019 20192
L6000 20173
L5980 20135
L5980 20040
L6000 19982
" />
<path d="M6361 19830
L6380 19773
L6380 19678
L6361 19640
L6342 19620
L6304 19601
L6266 19601
L6228 19620
L6209 19640
L6190 19678
L6171 19754
L6152 19792
L6133 19811
L6095 19830
L6057 19830
L6019 19811
L6000 19792
L5980 19754
L5980 19659
L6000 19601
" />
</g></g>
<g style="fill:#A90000; fill-opacity:0.0; 
stroke:#A90000; stroke-width:60.000000; stroke-opacity:1; 
stroke-linecap:round; stroke-linejoin:round;">
<g transform="rotate(-90.000000 6000.000000 21770.000000)">
<text x="6000.000000" y="21770.000000"
textLength="1012.362205" font-size="666.653543" lengthAdjust="spacingAndGlyphs"
text-anchor="middle" opacity="0">29</text>
</g>
<g class="stroked-text"><desc>29</desc>
<path d="M5523 22150
L5500 22127
L5476 22079
L5476 21960
L5500 21912
L5523 21889
L5571 21865
L5619 21865
L5690 21889
L5976 22174
L5976 21865
" />
<path d="M5976 21627
L5976 21531
L5952 21484
L5928 21460
L5857 21412
L5761 21389
L5571 21389
L5523 21412
L5500 21436
L5476 21484
L5476 21579
L5500 21627
L5523 21650
L5571 21674
L5690 21674
L5738 21650
L5761 21627
L5785 21579
L5785 21484
L5761 21436
L5738 21412
L5690 21389
" />
</g></g>
<g style="fill:#840000; fill-opacity:0.0; 
stroke:#840000; stroke-width:60.000000; stroke-opacity:1; 
stroke-linecap:round; stroke-linejoin:round;">
<path d="M2100 6270
L1100 6270
" />
</g>
<g style="fill:#006464; fill-opacity:0.0; 
stroke:#006464; stroke-width:60.000000; stroke-opacity:1; 
stroke-linecap:round; stroke-linejoin:round;">
<text x="2300.000000" y="6520.000000"
textLength="2288.582677" font-size="666.653543" lengthAdjust="spacingAndGlyphs"
text-anchor="start" opacity="0">CAP_{2N}</text>
<g class="stroked-text"><desc>CAP_{2N}</desc>
<path d="M2734 6448
L2710 6472
L2639 6496
L2591 6496
L2520 6472
L2472 6424
L2449 6377
L2425 6281
L2425 6210
L2449 6115
L2472 6067
L2520 6020
L2591 5996
L2639 5996
L2710 6020
L2734 6043
" />
<path d="M2925 6353
L3163 6353
" />
<path d="M2877 6496
L3044 5996
L3210 6496
" />
<path d="M3377 6496
L3377 5996
L3568 5996
L3615 6020
L3639 6043
L3663 6091
L3663 6162
L3639 6210
L3615 6234
L3568 6258
L3377 6258
" />
<path d="M3834 6189
L3853 6170
L3891 6150
L3987 6150
L4025 6170
L4044 6189
L4063 6227
L4063 6265
L4044 6322
L3815 6550
L4063 6550
" />
<path d="M4234 6550
L4234 6150
L4463 6550
L4463 6150
" />
</g></g>
<g style="fill:#A90000; fill-opacity:0.0; 
stroke:#A90000; stroke-width:60.000000; stroke-opacity:1; 
stroke-linecap:round; stroke-linejoin:round;">
<text x="1600.000000" y="6170.000000"
textLength="536.181102" font-size="666.653543" lengthAdjust="spacingAndGlyphs"
text-anchor="middle" opacity="0">3</text>
<g class="stroked-text"><desc>3</desc>
<path d="M1433 5646
L1742 5646
L1576 5836
L1647 5836
L1695 5860
L1719 5884
L1742 5931
L1742 6050
L1719 6098
L1695 6122
L1647 6146
L1504 6146
L1457 6122
L1433 6098
" />
</g></g>
<g style="fill:#840000; fill-opacity:0.0; 
stroke:#840000; stroke-width:60.000000; stroke-opacity:1; 
stroke-linecap:round; stroke-linejoin:round;">
<path d="M2100 20270
L1100 20270
" />
<path d="M950 20120
L1250 20420
" />
<path d="M1250 20120
L950 20420
" />
</g>
<g style="fill:#006464; fill-opacity:0.0; 
stroke:#006464; stroke-width:60.000000; stroke-opacity:1; 
stroke-linecap:round; stroke-linejoin:round;">
<text x="2300.000000" y="20520.000000"
textLength="1083.818898" font-size="666.653543" lengthAdjust="spacingAndGlyphs"
text-anchor="start" opacity="0">NC</text>
<g class="stroked-text"><desc>NC</desc>
<path d="M2449 20496
L2449 19996
L2734 20496
L2734 19996
" />
<path d="M3258 20448
L3234 20472
L3163 20496
L3115 20496
L3044 20472
L2996 20424
L2972 20377
L2949 20281
L2949 20210
L2972 20115
L2996 20067
L3044 20020
L3115 19996
L3163 19996
L3234 20020
L3258 20043
" />
</g></g>
<g style="fill:#A90000; fill-opacity:0.0; 
stroke:#A90000; stroke-width:60.000000; stroke-opacity:1; 
stroke-linecap:round; stroke-linejoin:round;">
<text x="1600.000000" y="20170.000000"
textLength="1012.362205" font-size="666.653543" lengthAdjust="spacingAndGlyphs"
text-anchor="middle" opacity="0">30</text>
<g class="stroked-text"><desc>30</desc>
<path d="M1195 19646
L1504 19646
L1338 19836
L1409 19836
L1457 19860
L1480 19884
L1504 19931
L1504 20050
L1480 20098
L1457 20122
L1409 20146
L1266 20146
L1219 20122
L1195 20098
" />
<path d="M1814 19646
L1861 19646
L1909 19670
L1933 19693
L1957 19741
L1980 19836
L1980 19955
L1957 20050
L1933 20098
L1909 20122
L1861 20146
L1814 20146
L1766 20122
L1742 20098
L1719 20050
L1695 19955
L1695 19836
L1719 19741
L1742 19693
L1766 19670
L1814 19646
" />
</g></g>
<g style="fill:#840000; fill-opacity:0.0; 
stroke:#840000; stroke-width:60.000000; stroke-opacity:1; 
stroke-linecap:round; stroke-linejoin:round;">
<path d="M2100 7270
L1100 7270
" />
</g>
<g style="fill:#006464; fill-opacity:0.0; 
stroke:#006464; stroke-width:60.000000; stroke-opacity:1; 
stroke-linecap:round; stroke-linejoin:round;">
<text x="2300.000000" y="7520.000000"
textLength="2269.527559" font-size="666.653543" lengthAdjust="spacingAndGlyphs"
text-anchor="start" opacity="0">CAP_{1P}</text>
<g class="stroked-text"><desc>CAP_{1P}</desc>
<path d="M2734 7448
L2710 7472
L2639 7496
L2591 7496
L2520 7472
L2472 7424
L2449 7377
L2425 7281
L2425 7210
L2449 7115
L2472 7067
L2520 7020
L2591 6996
L2639 6996
L2710 7020
L2734 7043
" />
<path d="M2925 7353
L3163 7353
" />
<path d="M2877 7496
L3044 6996
L3210 7496
" />
<path d="M3377 7496
L3377 6996
L3568 6996
L3615 7020
L3639 7043
L3663 7091
L3663 7162
L3639 7210
L3615 7234
L3568 7258
L3377 7258
" />
<path d="M4063 7550
L3834 7550
" />
<path d="M3949 7550
L3949 7150
L3910 7208
L3872 7246
L3834 7265
" />
<path d="M4234 7550
L4234 7150
L4387 7150
L4425 7170
L4444 7189
L4463 7227
L4463 7284
L4444 7322
L4425 7341
L4387 7360
L4234 7360
" />
</g></g>
<g style="fill:#A90000; fill-opacity:0.0; 
stroke:#A90000; stroke-width:60.000000; stroke-opacity:1; 
stroke-linecap:round; stroke-linejoin:round;">
<text x="1600.000000" y="7170.000000"
textLength="536.181102" font-size="666.653543" lengthAdjust="spacingAndGlyphs"
text-anchor="middle" opacity="0">4</text>
<g class="stroked-text"><desc>4</desc>
<path d="M1695 6812
L1695 7146
" />
<path d="M1576 6622
L1457 6979
L1766 6979
" />
</g></g>
<g style="fill:#840000; fill-opacity:0.0; 
stroke:#840000; stroke-width:60.000000; stroke-opacity:1; 
stroke-linecap:round; stroke-linejoin:round;">
<path d="M2100 8270
L1100 8270
" />
</g>
<g style="fill:#006464; fill-opacity:0.0; 
stroke:#006464; stroke-width:60.000000; stroke-opacity:1; 
stroke-linecap:round; stroke-linejoin:round;">
<text x="2300.000000" y="8520.000000"
textLength="2288.582677" font-size="666.653543" lengthAdjust="spacingAndGlyphs"
text-anchor="start" opacity="0">CAP_{1N}</text>
<g class="stroked-text"><desc>CAP_{1N}</desc>
<path d="M2734 8448
L2710 8472
L2639 8496
L2591 8496
L2520 8472
L2472 8424
L2449 8377
L2425 8281
L2425 8210
L2449 8115
L2472 8067
L2520 8020
L2591 7996
L2639 7996
L2710 8020
L2734 8043
" />
<path d="M2925 8353
L3163 8353
" />
<path d="M2877 8496
L3044 7996
L3210 8496
" />
<path d="M3377 8496
L3377 7996
L3568 7996
L3615 8020
L3639 8043
L3663 8091
L3663 8162
L3639 8210
L3615 8234
L3568 8258
L3377 8258
" />
<path d="M4063 8550
L3834 8550
" />
<path d="M3949 8550
L3949 8150
L3910 8208
L3872 8246
L3834 8265
" />
<path d="M4234 8550
L4234 8150
L4463 8550
L4463 8150
" />
</g></g>
<g style="fill:#A90000; fill-opacity:0.0; 
stroke:#A90000; stroke-width:60.000000; stroke-opacity:1; 
stroke-linecap:round; stroke-linejoin:round;">
<text x="1600.000000" y="8170.000000"
textLength="536.181102" font-size="666.653543" lengthAdjust="spacingAndGlyphs"
text-anchor="middle" opacity="0">5</text>
<g class="stroked-text"><desc>5</desc>
<path d="M1719 7646
L1480 7646
L1457 7884
L1480 7860
L1528 7836
L1647 7836
L1695 7860
L1719 7884
L1742 7931
L1742 8050
L1719 8098
L1695 8122
L1647 8146
L1528 8146
L1480 8122
L1457 8098
" />
</g></g>
<g style="fill:#840000; fill-opacity:0.0; 
stroke:#840000; stroke-width:60.000000; stroke-opacity:1; 
stroke-linecap:round; stroke-linejoin:round;">
<path d="M6100 4270
L6100 3270
" />
</g>
<g style="fill:#006464; fill-opacity:0.0; 
stroke:#006464; stroke-width:60.000000; stroke-opacity:1; 
stroke-linecap:round; stroke-linejoin:round;">
<g transform="rotate(-90.000000 6100.000000 4470.000000)">
<text x="6100.000000" y="4720.000000"
textLength="1536.181102" font-size="666.653543" lengthAdjust="spacingAndGlyphs"
text-anchor="end" opacity="0">V_{BAT}</text>
</g>
<g class="stroked-text"><desc>V_{BAT}</desc>
<path d="M5826 5928
L6326 5761
L5826 5595
" />
<path d="M6171 5319
L6190 5261
L6209 5242
L6247 5223
L6304 5223
L6342 5242
L6361 5261
L6380 5300
L6380 5452
L5980 5452
L5980 5319
L6000 5280
L6019 5261
L6057 5242
L6095 5242
L6133 5261
L6152 5280
L6171 5319
L6171 5452
" />
<path d="M6266 5071
L6266 4880
" />
<path d="M6380 5109
L5980 4976
L6380 4842
" />
<path d="M5980 4766
L5980 4538
" />
<path d="M6380 4652
L5980 4652
" />
</g></g>
<g style="fill:#A90000; fill-opacity:0.0; 
stroke:#A90000; stroke-width:60.000000; stroke-opacity:1; 
stroke-linecap:round; stroke-linejoin:round;">
<g transform="rotate(-90.000000 6000.000000 3770.000000)">
<text x="6000.000000" y="3770.000000"
textLength="536.181102" font-size="666.653543" lengthAdjust="spacingAndGlyphs"
text-anchor="middle" opacity="0">6</text>
</g>
<g class="stroked-text"><desc>6</desc>
<path d="M5476 3674
L5476 3770
L5500 3817
L5523 3841
L5595 3889
L5690 3912
L5880 3912
L5928 3889
L5952 3865
L5976 3817
L5976 3722
L5952 3674
L5928 3650
L5880 3627
L5761 3627
L5714 3650
L5690 3674
L5666 3722
L5666 3817
L5690 3865
L5714 3889
L5761 3912
" />
</g></g>
<g style="fill:#840000; fill-opacity:0.0; 
stroke:#840000; stroke-width:60.000000; stroke-opacity:1; 
stroke-linecap:round; stroke-linejoin:round;">
<path d="M2100 19270
L1100 19270
" />
<path d="M950 19120
L1250 19420
" />
<path d="M1250 19120
L950 19420
" />
</g>
<g style="fill:#006464; fill-opacity:0.0; 
stroke:#006464; stroke-width:60.000000; stroke-opacity:1; 
stroke-linecap:round; stroke-linejoin:round;">
<text x="2300.000000" y="19520.000000"
textLength="1083.818898" font-size="666.653543" lengthAdjust="spacingAndGlyphs"
text-anchor="start" opacity="0">NC</text>
<g class="stroked-text"><desc>NC</desc>
<path d="M2449 19496
L2449 18996
L2734 19496
L2734 18996
" />
<path d="M3258 19448
L3234 19472
L3163 19496
L3115 19496
L3044 19472
L2996 19424
L2972 19377
L2949 19281
L2949 19210
L2972 19115
L2996 19067
L3044 19020
L3115 18996
L3163 18996
L3234 19020
L3258 19043
" />
</g></g>
<g style="fill:#A90000; fill-opacity:0.0; 
stroke:#A90000; stroke-width:60.000000; stroke-opacity:1; 
stroke-linecap:round; stroke-linejoin:round;">
<text x="1600.000000" y="19170.000000"
textLength="536.181102" font-size="666.653543" lengthAdjust="spacingAndGlyphs"
text-anchor="middle" opacity="0">7</text>
<g class="stroked-text"><desc>7</desc>
<path d="M1433 18646
L1766 18646
L1552 19146
" />
</g></g>
<g style="fill:#840000; fill-opacity:0.0; 
stroke:#840000; stroke-width:60.000000; stroke-opacity:1; 
stroke-linecap:round; stroke-linejoin:round;">
<path d="M7100 21270
L7100 22270
" />
</g>
<g style="fill:#006464; fill-opacity:0.0; 
stroke:#006464; stroke-width:60.000000; stroke-opacity:1; 
stroke-linecap:round; stroke-linejoin:round;">
<g transform="rotate(-90.000000 7100.000000 21070.000000)">
<text x="7100.000000" y="21320.000000"
textLength="1250.472441" font-size="666.653543" lengthAdjust="spacingAndGlyphs"
text-anchor="start" opacity="0">V_{SS}</text>
</g>
<g class="stroked-text"><desc>V_{SS}</desc>
<path d="M6826 20992
L7326 20825
L6826 20659
" />
<path d="M7361 20535
L7380 20478
L7380 20382
L7361 20344
L7342 20325
L7304 20306
L7266 20306
L7228 20325
L7209 20344
L7190 20382
L7171 20459
L7152 20497
L7133 20516
L7095 20535
L7057 20535
L7019 20516
L7000 20497
L6980 20459
L6980 20363
L7000 20306
" />
<path d="M7361 20154
L7380 20097
L7380 20001
L7361 19963
L7342 19944
L7304 19925
L7266 19925
L7228 19944
L7209 19963
L7190 20001
L7171 20078
L7152 20116
L7133 20135
L7095 20154
L7057 20154
L7019 20135
L7000 20116
L6980 20078
L6980 19982
L7000 19925
" />
</g></g>
<g style="fill:#A90000; fill-opacity:0.0; 
stroke:#A90000; stroke-width:60.000000; stroke-opacity:1; 
stroke-linecap:round; stroke-linejoin:round;">
<g transform="rotate(-90.000000 7000.000000 21770.000000)">
<text x="7000.000000" y="21770.000000"
textLength="536.181102" font-size="666.653543" lengthAdjust="spacingAndGlyphs"
text-anchor="middle" opacity="0">8</text>
</g>
<g class="stroked-text"><desc>8</desc>
<path d="M6690 21817
L6666 21865
L6642 21889
L6595 21912
L6571 21912
L6523 21889
L6500 21865
L6476 21817
L6476 21722
L6500 21674
L6523 21650
L6571 21627
L6595 21627
L6642 21650
L6666 21674
L6690 21722
L6690 21817
L6714 21865
L6738 21889
L6785 21912
L6880 21912
L6928 21889
L6952 21865
L6976 21817
L6976 21722
L6952 21674
L6928 21650
L6880 21627
L6785 21627
L6738 21650
L6714 21674
L6690 21722
" />
</g></g>
<g style="fill:#840000; fill-opacity:0.0; 
stroke:#840000; stroke-width:60.000000; stroke-opacity:1; 
stroke-linecap:round; stroke-linejoin:round;">
<path d="M7100 4270
L7100 3270
" />
</g>
<g style="fill:#006464; fill-opacity:0.0; 
stroke:#006464; stroke-width:60.000000; stroke-opacity:1; 
stroke-linecap:round; stroke-linejoin:round;">
<g transform="rotate(-90.000000 7100.000000 4470.000000)">
<text x="7100.000000" y="4720.000000"
textLength="1288.582677" font-size="666.653543" lengthAdjust="spacingAndGlyphs"
text-anchor="end" opacity="0">V_{DD}</text>
</g>
<g class="stroked-text"><desc>V_{DD}</desc>
<path d="M6826 5680
L7326 5514
L6826 5347
" />
<path d="M7380 5204
L6980 5204
L6980 5109
L7000 5052
L7038 5014
L7076 4995
L7152 4976
L7209 4976
L7285 4995
L7323 5014
L7361 5052
L7380 5109
L7380 5204
" />
<path d="M7380 4804
L6980 4804
L6980 4709
L7000 4652
L7038 4614
L7076 4595
L7152 4576
L7209 4576
L7285 4595
L7323 4614
L7361 4652
L7380 4709
L7380 4804
" />
</g></g>
<g style="fill:#A90000; fill-opacity:0.0; 
stroke:#A90000; stroke-width:60.000000; stroke-opacity:1; 
stroke-linecap:round; stroke-linejoin:round;">
<g transform="rotate(-90.000000 7000.000000 3770.000000)">
<text x="7000.000000" y="3770.000000"
textLength="536.181102" font-size="666.653543" lengthAdjust="spacingAndGlyphs"
text-anchor="middle" opacity="0">9</text>
</g>
<g class="stroked-text"><desc>9</desc>
<path d="M6976 3865
L6976 3770
L6952 3722
L6928 3698
L6857 3650
L6761 3627
L6571 3627
L6523 3650
L6500 3674
L6476 3722
L6476 3817
L6500 3865
L6523 3889
L6571 3912
L6690 3912
L6738 3889
L6761 3865
L6785 3817
L6785 3722
L6761 3674
L6738 3650
L6690 3627
" />
</g></g>
<g style="fill:#840084; fill-opacity:0.0; 
stroke:#840084; stroke-width:60.000000; stroke-opacity:1; 
stroke-linecap:round; stroke-linejoin:round;">
</g>
<g style="fill:#006464; fill-opacity:0.0; 
stroke:#006464; stroke-width:60.000000; stroke-opacity:1; 
stroke-linecap:round; stroke-linejoin:round;">
</g>
<g style="fill:#006464; fill-opacity:0.0; 
stroke:#006464; stroke-width:62.519685; stroke-opacity:1; 
stroke-linecap:round; stroke-linejoin:round;">
<text x="9036.023622" y="22520.000000"
textLength="869.527559" font-size="666.653543" lengthAdjust="spacingAndGlyphs"
text-anchor="middle" opacity="0">J?</text>
<g class="stroked-text"><desc>J?</desc>
<path d="M8893 21996
L8893 22353
L8869 22424
L8821 22472
L8750 22496
L8702 22496
" />
<path d="M9202 22448
L9226 22472
L9202 22496
L9178 22472
L9202 22448
L9202 22496
" />
<path d="M9107 22020
L9155 21996
L9274 21996
L9321 22020
L9345 22067
L9345 22115
L9321 22162
L9297 22186
L9250 22210
L9226 22234
L9202 22281
L9202 22305
" />
</g><text x="10309.803150" y="23520.000000"
textLength="3419.645669" font-size="666.653543" lengthAdjust="spacingAndGlyphs"
text-anchor="middle" opacity="0">SSD1306</text>
<g class="stroked-text"><desc>SSD1306</desc>
<path d="M8726 23472
L8797 23496
L8916 23496
L8964 23472
L8988 23448
L9012 23400
L9012 23353
L8988 23305
L8964 23281
L8916 23258
L8821 23234
L8774 23210
L8750 23186
L8726 23139
L8726 23091
L8750 23043
L8774 23020
L8821 22996
L8940 22996
L9012 23020
" />
<path d="M9202 23472
L9274 23496
L9393 23496
L9440 23472
L9464 23448
L9488 23400
L9488 23353
L9464 23305
L9440 23281
L9393 23258
L9297 23234
L9250 23210
L9226 23186
L9202 23139
L9202 23091
L9226 23043
L9250 23020
L9297 22996
L9416 22996
L9488 23020
" />
<path d="M9702 23496
L9702 22996
L9821 22996
L9893 23020
L9940 23067
L9964 23115
L9988 23210
L9988 23281
L9964 23377
L9940 23424
L9893 23472
L9821 23496
L9702 23496
" />
<path d="M10464 23496
L10178 23496
" />
<path d="M10321 23496
L10321 22996
L10274 23067
L10226 23115
L10178 23139
" />
<path d="M10631 22996
L10940 22996
L10774 23186
L10845 23186
L10893 23210
L10916 23234
L10940 23281
L10940 23400
L10916 23448
L10893 23472
L10845 23496
L10702 23496
L10655 23472
L10631 23448
" />
<path d="M11250 22996
L11297 22996
L11345 23020
L11369 23043
L11393 23091
L11416 23186
L11416 23305
L11393 23400
L11369 23448
L11345 23472
L11297 23496
L11250 23496
L11202 23472
L11178 23448
L11155 23400
L11131 23305
L11131 23186
L11155 23091
L11178 23043
L11202 23020
L11250 22996
" />
<path d="M11845 22996
L11750 22996
L11702 23020
L11678 23043
L11631 23115
L11607 23210
L11607 23400
L11631 23448
L11655 23472
L11702 23496
L11797 23496
L11845 23472
L11869 23448
L11893 23400
L11893 23281
L11869 23234
L11845 23210
L11797 23186
L11702 23186
L11655 23210
L11631 23234
L11607 23281
" />
</g></g>
<g style="fill:#840084; fill-opacity:0.0; 
stroke:#840084; stroke-width:62.519685; stroke-opacity:1; 
stroke-linecap:round; stroke-linejoin:round;">
<text x="6600.000000" y="27520.000000"
textLength="21276.811024" font-size="666.653543" lengthAdjust="spacingAndGlyphs"
text-anchor="middle" opacity="0">https://www.buydisplay.com/download/ic/SSD1306.pdf</text>
<g class="stroked-text"><desc>https://www.buydisplay.com/download/ic/SSD1306.pdf</desc>
<path d="M-3888 27496
L-3888 26996
" />
<path d="M-3673 27496
L-3673 27234
L-3697 27186
L-3745 27162
L-3816 27162
L-3864 27186
L-3888 27210
" />
<path d="M-3507 27162
L-3316 27162
" />
<path d="M-3435 26996
L-3435 27424
L-3411 27472
L-3364 27496
L-3316 27496
" />
<path d="M-3221 27162
L-3030 27162
" />
<path d="M-3149 26996
L-3149 27424
L-3126 27472
L-3078 27496
L-3030 27496
" />
<path d="M-2864 27162
L-2864 27662
" />
<path d="M-2864 27186
L-2816 27162
L-2721 27162
L-2673 27186
L-2649 27210
L-2626 27258
L-2626 27400
L-2649 27448
L-2673 27472
L-2721 27496
L-2816 27496
L-2864 27472
" />
<path d="M-2435 27472
L-2388 27496
L-2292 27496
L-2245 27472
L-2221 27424
L-2221 27400
L-2245 27353
L-2292 27329
L-2364 27329
L-2411 27305
L-2435 27258
L-2435 27234
L-2411 27186
L-2364 27162
L-2292 27162
L-2245 27186
" />
<path d="M-2007 27448
L-1983 27472
L-2007 27496
L-2030 27472
L-2007 27448
L-2007 27496
" />
<path d="M-2007 27186
L-1983 27210
L-2007 27234
L-2030 27210
L-2007 27186
L-2007 27234
" />
<path d="M-1411 26972
L-1840 27615
" />
<path d="M-888 26972
L-1316 27615
" />
<path d="M-769 27162
L-673 27496
L-578 27258
L-483 27496
L-388 27162
" />
<path d="M-245 27162
L-149 27496
L-54 27258
L40 27496
L135 27162
" />
<path d="M278 27162
L373 27496
L469 27258
L564 27496
L659 27162
" />
<path d="M850 27448
L873 27472
L850 27496
L826 27472
L850 27448
L850 27496
" />
<path d="M1088 27496
L1088 26996
" />
<path d="M1088 27186
L1135 27162
L1230 27162
L1278 27186
L1302 27210
L1326 27258
L1326 27400
L1302 27448
L1278 27472
L1230 27496
L1135 27496
L1088 27472
" />
<path d="M1754 27162
L1754 27496
" />
<path d="M1540 27162
L1540 27424
L1564 27472
L1611 27496
L1683 27496
L1730 27472
L1754 27448
" />
<path d="M1945 27162
L2064 27496
" />
<path d="M2183 27162
L2064 27496
L2016 27615
L1992 27639
L1945 27662
" />
<path d="M2588 27496
L2588 26996
" />
<path d="M2588 27472
L2540 27496
L2445 27496
L2397 27472
L2373 27448
L2350 27400
L2350 27258
L2373 27210
L2397 27186
L2445 27162
L2540 27162
L2588 27186
" />
<path d="M2826 27496
L2826 27162
" />
<path d="M2826 26996
L2802 27020
L2826 27043
L2850 27020
L2826 26996
L2826 27043
" />
<path d="M3040 27472
L3088 27496
L3183 27496
L3230 27472
L3254 27424
L3254 27400
L3230 27353
L3183 27329
L3111 27329
L3064 27305
L3040 27258
L3040 27234
L3064 27186
L3111 27162
L3183 27162
L3230 27186
" />
<path d="M3469 27162
L3469 27662
" />
<path d="M3469 27186
L3516 27162
L3611 27162
L3659 27186
L3683 27210
L3707 27258
L3707 27400
L3683 27448
L3659 27472
L3611 27496
L3516 27496
L3469 27472
" />
<path d="M3992 27496
L3945 27472
L3921 27424
L3921 26996
" />
<path d="M4397 27496
L4397 27234
L4373 27186
L4326 27162
L4230 27162
L4183 27186
" />
<path d="M4397 27472
L4350 27496
L4230 27496
L4183 27472
L4159 27424
L4159 27377
L4183 27329
L4230 27305
L4350 27305
L4397 27281
" />
<path d="M4588 27162
L4707 27496
" />
<path d="M4826 27162
L4707 27496
L4659 27615
L4635 27639
L4588 27662
" />
<path d="M5016 27448
L5040 27472
L5016 27496
L4992 27472
L5016 27448
L5016 27496
" />
<path d="M5469 27472
L5421 27496
L5326 27496
L5278 27472
L5254 27448
L5230 27400
L5230 27258
L5254 27210
L5278 27186
L5326 27162
L5421 27162
L5469 27186
" />
<path d="M5754 27496
L5707 27472
L5683 27448
L5659 27400
L5659 27258
L5683 27210
L5707 27186
L5754 27162
L5826 27162
L5873 27186
L5897 27210
L5921 27258
L5921 27400
L5897 27448
L5873 27472
L5826 27496
L5754 27496
" />
<path d="M6135 27496
L6135 27162
" />
<path d="M6135 27210
L6159 27186
L6207 27162
L6278 27162
L6326 27186
L6350 27234
L6350 27496
" />
<path d="M6350 27234
L6373 27186
L6421 27162
L6492 27162
L6540 27186
L6564 27234
L6564 27496
" />
<path d="M7159 26972
L6730 27615
" />
<path d="M7540 27496
L7540 26996
" />
<path d="M7540 27472
L7492 27496
L7397 27496
L7350 27472
L7326 27448
L7302 27400
L7302 27258
L7326 27210
L7350 27186
L7397 27162
L7492 27162
L7540 27186
" />
<path d="M7850 27496
L7802 27472
L7778 27448
L7754 27400
L7754 27258
L7778 27210
L7802 27186
L7850 27162
L7921 27162
L7969 27186
L7992 27210
L8016 27258
L8016 27400
L7992 27448
L7969 27472
L7921 27496
L7850 27496
" />
<path d="M8183 27162
L8278 27496
L8373 27258
L8469 27496
L8564 27162
" />
<path d="M8754 27162
L8754 27496
" />
<path d="M8754 27210
L8778 27186
L8826 27162
L8897 27162
L8945 27186
L8969 27234
L8969 27496
" />
<path d="M9278 27496
L9230 27472
L9207 27424
L9207 26996
" />
<path d="M9540 27496
L9492 27472
L9469 27448
L9445 27400
L9445 27258
L9469 27210
L9492 27186
L9540 27162
L9611 27162
L9659 27186
L9683 27210
L9707 27258
L9707 27400
L9683 27448
L9659 27472
L9611 27496
L9540 27496
" />
<path d="M10135 27496
L10135 27234
L10111 27186
L10064 27162
L9969 27162
L9921 27186
" />
<path d="M10135 27472
L10088 27496
L9969 27496
L9921 27472
L9897 27424
L9897 27377
L9921 27329
L9969 27305
L10088 27305
L10135 27281
" />
<path d="M10588 27496
L10588 26996
" />
<path d="M10588 27472
L10540 27496
L10445 27496
L10397 27472
L10373 27448
L10350 27400
L10350 27258
L10373 27210
L10397 27186
L10445 27162
L10540 27162
L10588 27186
" />
<path d="M11183 26972
L10754 27615
" />
<path d="M11350 27496
L11350 27162
" />
<path d="M11350 26996
L11326 27020
L11350 27043
L11373 27020
L11350 26996
L11350 27043
" />
<path d="M11802 27472
L11754 27496
L11659 27496
L11611 27472
L11588 27448
L11564 27400
L11564 27258
L11588 27210
L11611 27186
L11659 27162
L11754 27162
L11802 27186
" />
<path d="M12373 26972
L11945 27615
" />
<path d="M12516 27472
L12588 27496
L12707 27496
L12754 27472
L12778 27448
L12802 27400
L12802 27353
L12778 27305
L12754 27281
L12707 27258
L12611 27234
L12564 27210
L12540 27186
L12516 27139
L12516 27091
L12540 27043
L12564 27020
L12611 26996
L12730 26996
L12802 27020
" />
<path d="M12992 27472
L13064 27496
L13183 27496
L13230 27472
L13254 27448
L13278 27400
L13278 27353
L13254 27305
L13230 27281
L13183 27258
L13088 27234
L13040 27210
L13016 27186
L12992 27139
L12992 27091
L13016 27043
L13040 27020
L13088 26996
L13207 26996
L13278 27020
" />
<path d="M13492 27496
L13492 26996
L13611 26996
L13683 27020
L13730 27067
L13754 27115
L13778 27210
L13778 27281
L13754 27377
L13730 27424
L13683 27472
L13611 27496
L13492 27496
" />
<path d="M14254 27496
L13969 27496
" />
<path d="M14111 27496
L14111 26996
L14064 27067
L14016 27115
L13969 27139
" />
<path d="M14421 26996
L14730 26996
L14564 27186
L14635 27186
L14683 27210
L14707 27234
L14730 27281
L14730 27400
L14707 27448
L14683 27472
L14635 27496
L14492 27496
L14445 27472
L14421 27448
" />
<path d="M15040 26996
L15088 26996
L15135 27020
L15159 27043
L15183 27091
L15207 27186
L15207 27305
L15183 27400
L15159 27448
L15135 27472
L15088 27496
L15040 27496
L14992 27472
L14969 27448
L14945 27400
L14921 27305
L14921 27186
L14945 27091
L14969 27043
L14992 27020
L15040 26996
" />
<path d="M15635 26996
L15540 26996
L15492 27020
L15469 27043
L15421 27115
L15397 27210
L15397 27400
L15421 27448
L15445 27472
L15492 27496
L15588 27496
L15635 27472
L15659 27448
L15683 27400
L15683 27281
L15659 27234
L15635 27210
L15588 27186
L15492 27186
L15445 27210
L15421 27234
L15397 27281
" />
<path d="M15897 27448
L15921 27472
L15897 27496
L15873 27472
L15897 27448
L15897 27496
" />
<path d="M16135 27162
L16135 27662
" />
<path d="M16135 27186
L16183 27162
L16278 27162
L16326 27186
L16350 27210
L16373 27258
L16373 27400
L16350 27448
L16326 27472
L16278 27496
L16183 27496
L16135 27472
" />
<path d="M16802 27496
L16802 26996
" />
<path d="M16802 27472
L16754 27496
L16659 27496
L16611 27472
L16588 27448
L16564 27400
L16564 27258
L16588 27210
L16611 27186
L16659 27162
L16754 27162
L16802 27186
" />
<path d="M16969 27162
L17159 27162
" />
<path d="M17040 27496
L17040 27067
L17064 27020
L17111 26996
L17159 26996
" />
</g></g> 
</svg>
