<?xml version="1.0" standalone="no"?>
 <!DOCTYPE svg PUBLIC "-//W3C//DTD SVG 1.1//EN" 
 "http://www.w3.org/Graphics/SVG/1.1/DTD/svg11.dtd"> 
<svg
  xmlns:svg="http://www.w3.org/2000/svg"
  xmlns="http://www.w3.org/2000/svg"
  xmlns:xlink="http://www.w3.org/1999/xlink"
  version="1.1"
  width="3.459480cm" height="2.743200cm" viewBox="0 0 13620 10800">
<title>SVG Picture created as TC2030.svg date 2022/12/22 19:40:54 </title>
  <desc>Picture generated by Eeschema-SVG </desc>
<g style="fill:#000000; fill-opacity:1.000000;stroke:#000000; stroke-opacity:1.000000;
stroke-linecap:round; stroke-linejoin:round;"
 transform="translate(0 0) scale(1 1)">
</g>
<g style="fill:#840000; fill-opacity:0.0; 
stroke:#840000; stroke-width:0.000000; stroke-opacity:1; 
stroke-linecap:round; stroke-linejoin:round;">
</g>
<g style="fill:#FFFFC2; fill-opacity:0.0; 
stroke:#FFFFC2; stroke-width:0.000000; stroke-opacity:1; 
stroke-linecap:round; stroke-linejoin:round;">
</g>
<g style="fill:#FFFFC2; fill-opacity:0.6; 
stroke:#FFFFC2; stroke-width:0.039370; stroke-opacity:1; 
stroke-linecap:round; stroke-linejoin:round;">
<rect x="3810.000000" y="1900.000000" width="7000.000000" height="7000.000000" rx="0.000000" />
</g>
<g style="fill:#840000; fill-opacity:0.6; 
stroke:#840000; stroke-width:0.039370; stroke-opacity:1; 
stroke-linecap:round; stroke-linejoin:round;">
</g>
<g style="fill:#840000; fill-opacity:0.0; 
stroke:#840000; stroke-width:60.000000; stroke-opacity:1; 
stroke-linecap:round; stroke-linejoin:round;">
<rect x="3810.000000" y="1900.000000" width="7000.000000" height="7000.000000" rx="0.000000" />
<rect x="3810.000000" y="1900.000000" width="7000.000000" height="7000.000000" rx="0.000000" />
<path d="M9810 1900
L9810 900
" />
</g>
<g style="fill:#006464; fill-opacity:0.0; 
stroke:#006464; stroke-width:60.000000; stroke-opacity:1; 
stroke-linecap:round; stroke-linejoin:round;">
<g transform="rotate(-90.000000 9810.000000 2100.000000)">
<text x="9810.000000" y="2350.000000"
textLength="1291.102362" font-size="666.653543" lengthAdjust="spacingAndGlyphs"
text-anchor="end" opacity="0">V_{CC}</text>
</g>
<g class="stroked-text"><desc>V_{CC}</desc>
<path d="M9536 3310
L10036 3144
L9536 2977
" />
<path d="M10052 2606
L10071 2625
L10090 2682
L10090 2720
L10071 2777
L10033 2815
L9995 2834
L9919 2853
L9862 2853
L9786 2834
L9748 2815
L9710 2777
L9690 2720
L9690 2682
L9710 2625
L9729 2606
" />
<path d="M10052 2206
L10071 2225
L10090 2282
L10090 2320
L10071 2377
L10033 2415
L9995 2434
L9919 2453
L9862 2453
L9786 2434
L9748 2415
L9710 2377
L9690 2320
L9690 2282
L9710 2225
L9729 2206
" />
</g></g>
<g style="fill:#A90000; fill-opacity:0.0; 
stroke:#A90000; stroke-width:60.000000; stroke-opacity:1; 
stroke-linecap:round; stroke-linejoin:round;">
<g transform="rotate(-90.000000 9710.000000 1400.000000)">
<text x="9710.000000" y="1400.000000"
textLength="536.181102" font-size="666.653543" lengthAdjust="spacingAndGlyphs"
text-anchor="middle" opacity="0">1</text>
</g>
<g class="stroked-text"><desc>1</desc>
<path d="M9686 1257
L9686 1542
" />
<path d="M9686 1400
L9186 1400
L9257 1447
L9305 1495
L9329 1542
" />
</g></g>
<g style="fill:#840000; fill-opacity:0.0; 
stroke:#840000; stroke-width:60.000000; stroke-opacity:1; 
stroke-linecap:round; stroke-linejoin:round;">
<path d="M3810 2900
L2810 2900
" />
</g>
<g style="fill:#006464; fill-opacity:0.0; 
stroke:#006464; stroke-width:60.000000; stroke-opacity:1; 
stroke-linecap:round; stroke-linejoin:round;">
<text x="4010.000000" y="3150.000000"
textLength="4321.889764" font-size="666.653543" lengthAdjust="spacingAndGlyphs"
text-anchor="start" opacity="0">SWDIO/TMS</text>
<g class="stroked-text"><desc>SWDIO/TMS</desc>
<path d="M4135 3102
L4206 3126
L4325 3126
L4373 3102
L4397 3078
L4420 3030
L4420 2983
L4397 2935
L4373 2911
L4325 2888
L4230 2864
L4182 2840
L4159 2816
L4135 2769
L4135 2721
L4159 2673
L4182 2650
L4230 2626
L4349 2626
L4420 2650
" />
<path d="M4587 2626
L4706 3126
L4801 2769
L4897 3126
L5016 2626
" />
<path d="M5206 3126
L5206 2626
L5325 2626
L5397 2650
L5444 2697
L5468 2745
L5492 2840
L5492 2911
L5468 3007
L5444 3054
L5397 3102
L5325 3126
L5206 3126
" />
<path d="M5706 3126
L5706 2626
" />
<path d="M6040 2626
L6135 2626
L6182 2650
L6230 2697
L6254 2792
L6254 2959
L6230 3054
L6182 3102
L6135 3126
L6040 3126
L5992 3102
L5944 3054
L5920 2959
L5920 2792
L5944 2697
L5992 2650
L6040 2626
" />
<path d="M6825 2602
L6397 3245
" />
<path d="M6920 2626
L7206 2626
" />
<path d="M7063 3126
L7063 2626
" />
<path d="M7373 3126
L7373 2626
L7540 2983
L7706 2626
L7706 3126
" />
<path d="M7920 3102
L7992 3126
L8111 3126
L8159 3102
L8182 3078
L8206 3030
L8206 2983
L8182 2935
L8159 2911
L8111 2888
L8016 2864
L7968 2840
L7944 2816
L7920 2769
L7920 2721
L7944 2673
L7968 2650
L8016 2626
L8135 2626
L8206 2650
" />
</g></g>
<g style="fill:#A90000; fill-opacity:0.0; 
stroke:#A90000; stroke-width:60.000000; stroke-opacity:1; 
stroke-linecap:round; stroke-linejoin:round;">
<text x="3310.000000" y="2800.000000"
textLength="536.181102" font-size="666.653543" lengthAdjust="spacingAndGlyphs"
text-anchor="middle" opacity="0">2</text>
<g class="stroked-text"><desc>2</desc>
<path d="M3167 2323
L3190 2300
L3238 2276
L3357 2276
L3405 2300
L3429 2323
L3452 2371
L3452 2419
L3429 2490
L3143 2776
L3452 2776
" />
</g></g>
<g style="fill:#840000; fill-opacity:0.0; 
stroke:#840000; stroke-width:60.000000; stroke-opacity:1; 
stroke-linecap:round; stroke-linejoin:round;">
<path d="M3810 7900
L2810 7900
" />
</g>
<g style="fill:#006464; fill-opacity:0.0; 
stroke:#006464; stroke-width:60.000000; stroke-opacity:1; 
stroke-linecap:round; stroke-linejoin:round;">
<text x="4010.000000" y="8150.000000"
textLength="1774.291339" font-size="666.653543" lengthAdjust="spacingAndGlyphs"
text-anchor="start" opacity="0">~RST</text>
<g class="stroked-text"><desc>~RST</desc>
<path d="M4087 7935
L4111 7911
L4159 7888
L4254 7935
L4301 7911
L4325 7888
" />
<path d="M4801 8126
L4635 7888
" />
<path d="M4516 8126
L4516 7626
L4706 7626
L4754 7650
L4778 7673
L4801 7721
L4801 7792
L4778 7840
L4754 7864
L4706 7888
L4516 7888
" />
<path d="M4992 8102
L5063 8126
L5182 8126
L5230 8102
L5254 8078
L5278 8030
L5278 7983
L5254 7935
L5230 7911
L5182 7888
L5087 7864
L5040 7840
L5016 7816
L4992 7769
L4992 7721
L5016 7673
L5040 7650
L5087 7626
L5206 7626
L5278 7650
" />
<path d="M5420 7626
L5706 7626
" />
<path d="M5563 8126
L5563 7626
" />
</g></g>
<g style="fill:#A90000; fill-opacity:0.0; 
stroke:#A90000; stroke-width:60.000000; stroke-opacity:1; 
stroke-linecap:round; stroke-linejoin:round;">
<text x="3310.000000" y="7800.000000"
textLength="536.181102" font-size="666.653543" lengthAdjust="spacingAndGlyphs"
text-anchor="middle" opacity="0">3</text>
<g class="stroked-text"><desc>3</desc>
<path d="M3143 7276
L3452 7276
L3286 7466
L3357 7466
L3405 7490
L3429 7514
L3452 7561
L3452 7680
L3429 7728
L3405 7752
L3357 7776
L3214 7776
L3167 7752
L3143 7728
" />
</g></g>
<g style="fill:#840000; fill-opacity:0.0; 
stroke:#840000; stroke-width:60.000000; stroke-opacity:1; 
stroke-linecap:round; stroke-linejoin:round;">
<path d="M3810 3900
L2810 3900
" />
</g>
<g style="fill:#006464; fill-opacity:0.0; 
stroke:#006464; stroke-width:60.000000; stroke-opacity:1; 
stroke-linecap:round; stroke-linejoin:round;">
<text x="4010.000000" y="4150.000000"
textLength="4417.125984" font-size="666.653543" lengthAdjust="spacingAndGlyphs"
text-anchor="start" opacity="0">SWCLK/TCK</text>
<g class="stroked-text"><desc>SWCLK/TCK</desc>
<path d="M4135 4102
L4206 4126
L4325 4126
L4373 4102
L4397 4078
L4420 4030
L4420 3983
L4397 3935
L4373 3911
L4325 3888
L4230 3864
L4182 3840
L4159 3816
L4135 3769
L4135 3721
L4159 3673
L4182 3650
L4230 3626
L4349 3626
L4420 3650
" />
<path d="M4587 3626
L4706 4126
L4801 3769
L4897 4126
L5016 3626
" />
<path d="M5492 4078
L5468 4102
L5397 4126
L5349 4126
L5278 4102
L5230 4054
L5206 4007
L5182 3911
L5182 3840
L5206 3745
L5230 3697
L5278 3650
L5349 3626
L5397 3626
L5468 3650
L5492 3673
" />
<path d="M5944 4126
L5706 4126
L5706 3626
" />
<path d="M6111 4126
L6111 3626
" />
<path d="M6397 4126
L6182 3840
" />
<path d="M6397 3626
L6111 3911
" />
<path d="M6968 3602
L6540 4245
" />
<path d="M7063 3626
L7349 3626
" />
<path d="M7206 4126
L7206 3626
" />
<path d="M7801 4078
L7778 4102
L7706 4126
L7659 4126
L7587 4102
L7540 4054
L7516 4007
L7492 3911
L7492 3840
L7516 3745
L7540 3697
L7587 3650
L7659 3626
L7706 3626
L7778 3650
L7801 3673
" />
<path d="M8016 4126
L8016 3626
" />
<path d="M8301 4126
L8087 3840
" />
<path d="M8301 3626
L8016 3911
" />
</g></g>
<g style="fill:#A90000; fill-opacity:0.0; 
stroke:#A90000; stroke-width:60.000000; stroke-opacity:1; 
stroke-linecap:round; stroke-linejoin:round;">
<text x="3310.000000" y="3800.000000"
textLength="536.181102" font-size="666.653543" lengthAdjust="spacingAndGlyphs"
text-anchor="middle" opacity="0">4</text>
<g class="stroked-text"><desc>4</desc>
<path d="M3405 3442
L3405 3776
" />
<path d="M3286 3252
L3167 3609
L3476 3609
" />
</g></g>
<g style="fill:#840000; fill-opacity:0.0; 
stroke:#840000; stroke-width:60.000000; stroke-opacity:1; 
stroke-linecap:round; stroke-linejoin:round;">
<path d="M9810 8900
L9810 9900
" />
</g>
<g style="fill:#006464; fill-opacity:0.0; 
stroke:#006464; stroke-width:60.000000; stroke-opacity:1; 
stroke-linecap:round; stroke-linejoin:round;">
<g transform="rotate(-90.000000 9810.000000 8700.000000)">
<text x="9810.000000" y="8950.000000"
textLength="1583.818898" font-size="666.653543" lengthAdjust="spacingAndGlyphs"
text-anchor="start" opacity="0">GND</text>
</g>
<g class="stroked-text"><desc>GND</desc>
<path d="M9560 8289
L9536 8336
L9536 8408
L9560 8479
L9607 8527
L9655 8550
L9750 8574
L9821 8574
L9917 8550
L9964 8527
L10012 8479
L10036 8408
L10036 8360
L10012 8289
L9988 8265
L9821 8265
L9821 8360
" />
<path d="M10036 8050
L9536 8050
L10036 7765
L9536 7765
" />
<path d="M10036 7527
L9536 7527
L9536 7408
L9560 7336
L9607 7289
L9655 7265
L9750 7241
L9821 7241
L9917 7265
L9964 7289
L10012 7336
L10036 7408
L10036 7527
" />
</g></g>
<g style="fill:#A90000; fill-opacity:0.0; 
stroke:#A90000; stroke-width:60.000000; stroke-opacity:1; 
stroke-linecap:round; stroke-linejoin:round;">
<g transform="rotate(-90.000000 9710.000000 9400.000000)">
<text x="9710.000000" y="9400.000000"
textLength="536.181102" font-size="666.653543" lengthAdjust="spacingAndGlyphs"
text-anchor="middle" opacity="0">5</text>
</g>
<g class="stroked-text"><desc>5</desc>
<path d="M9186 9280
L9186 9519
L9424 9542
L9400 9519
L9376 9471
L9376 9352
L9400 9304
L9424 9280
L9471 9257
L9590 9257
L9638 9280
L9662 9304
L9686 9352
L9686 9471
L9662 9519
L9638 9542
" />
</g></g>
<g style="fill:#840000; fill-opacity:0.0; 
stroke:#840000; stroke-width:60.000000; stroke-opacity:1; 
stroke-linecap:round; stroke-linejoin:round;">
<path d="M3810 5900
L2810 5900
" />
</g>
<g style="fill:#006464; fill-opacity:0.0; 
stroke:#006464; stroke-width:60.000000; stroke-opacity:1; 
stroke-linecap:round; stroke-linejoin:round;">
<text x="4010.000000" y="6150.000000"
textLength="3560.000000" font-size="666.653543" lengthAdjust="spacingAndGlyphs"
text-anchor="start" opacity="0">SWO/TDO</text>
<g class="stroked-text"><desc>SWO/TDO</desc>
<path d="M4135 6102
L4206 6126
L4325 6126
L4373 6102
L4397 6078
L4420 6030
L4420 5983
L4397 5935
L4373 5911
L4325 5888
L4230 5864
L4182 5840
L4159 5816
L4135 5769
L4135 5721
L4159 5673
L4182 5650
L4230 5626
L4349 5626
L4420 5650
" />
<path d="M4587 5626
L4706 6126
L4801 5769
L4897 6126
L5016 5626
" />
<path d="M5301 5626
L5397 5626
L5444 5650
L5492 5697
L5516 5792
L5516 5959
L5492 6054
L5444 6102
L5397 6126
L5301 6126
L5254 6102
L5206 6054
L5182 5959
L5182 5792
L5206 5697
L5254 5650
L5301 5626
" />
<path d="M6087 5602
L5659 6245
" />
<path d="M6182 5626
L6468 5626
" />
<path d="M6325 6126
L6325 5626
" />
<path d="M6635 6126
L6635 5626
L6754 5626
L6825 5650
L6873 5697
L6897 5745
L6920 5840
L6920 5911
L6897 6007
L6873 6054
L6825 6102
L6754 6126
L6635 6126
" />
<path d="M7230 5626
L7325 5626
L7373 5650
L7420 5697
L7444 5792
L7444 5959
L7420 6054
L7373 6102
L7325 6126
L7230 6126
L7182 6102
L7135 6054
L7111 5959
L7111 5792
L7135 5697
L7182 5650
L7230 5626
" />
</g></g>
<g style="fill:#A90000; fill-opacity:0.0; 
stroke:#A90000; stroke-width:60.000000; stroke-opacity:1; 
stroke-linecap:round; stroke-linejoin:round;">
<text x="3310.000000" y="5800.000000"
textLength="536.181102" font-size="666.653543" lengthAdjust="spacingAndGlyphs"
text-anchor="middle" opacity="0">6</text>
<g class="stroked-text"><desc>6</desc>
<path d="M3405 5276
L3310 5276
L3262 5300
L3238 5323
L3190 5395
L3167 5490
L3167 5680
L3190 5728
L3214 5752
L3262 5776
L3357 5776
L3405 5752
L3429 5728
L3452 5680
L3452 5561
L3429 5514
L3405 5490
L3357 5466
L3262 5466
L3214 5490
L3190 5514
L3167 5561
" />
</g></g>
<g style="fill:#840084; fill-opacity:0.0; 
stroke:#840084; stroke-width:60.000000; stroke-opacity:1; 
stroke-linecap:round; stroke-linejoin:round;">
</g>
<g style="fill:#006464; fill-opacity:0.0; 
stroke:#006464; stroke-width:60.000000; stroke-opacity:1; 
stroke-linecap:round; stroke-linejoin:round;">
</g>
<g style="fill:#006464; fill-opacity:0.0; 
stroke:#006464; stroke-width:62.519685; stroke-opacity:1; 
stroke-linecap:round; stroke-linejoin:round;">
<text x="11746.023622" y="5150.000000"
textLength="869.527559" font-size="666.653543" lengthAdjust="spacingAndGlyphs"
text-anchor="middle" opacity="0">J?</text>
<g class="stroked-text"><desc>J?</desc>
<path d="M11603 4626
L11603 4983
L11579 5054
L11531 5102
L11460 5126
L11412 5126
" />
<path d="M11912 5078
L11936 5102
L11912 5126
L11888 5102
L11912 5078
L11912 5126
" />
<path d="M11817 4650
L11865 4626
L11984 4626
L12031 4650
L12055 4697
L12055 4745
L12031 4792
L12007 4816
L11960 4840
L11936 4864
L11912 4911
L11912 4935
" />
</g><text x="12734.094488" y="6150.000000"
textLength="2848.228346" font-size="666.653543" lengthAdjust="spacingAndGlyphs"
text-anchor="middle" opacity="0">TC2030</text>
<g class="stroked-text"><desc>TC2030</desc>
<path d="M11388 5626
L11674 5626
" />
<path d="M11531 6126
L11531 5626
" />
<path d="M12126 6078
L12103 6102
L12031 6126
L11984 6126
L11912 6102
L11865 6054
L11841 6007
L11817 5911
L11817 5840
L11841 5745
L11865 5697
L11912 5650
L11984 5626
L12031 5626
L12103 5650
L12126 5673
" />
<path d="M12317 5673
L12341 5650
L12388 5626
L12507 5626
L12555 5650
L12579 5673
L12603 5721
L12603 5769
L12579 5840
L12293 6126
L12603 6126
" />
<path d="M12912 5626
L12960 5626
L13007 5650
L13031 5673
L13055 5721
L13079 5816
L13079 5935
L13055 6030
L13031 6078
L13007 6102
L12960 6126
L12912 6126
L12865 6102
L12841 6078
L12817 6030
L12793 5935
L12793 5816
L12817 5721
L12841 5673
L12865 5650
L12912 5626
" />
<path d="M13245 5626
L13555 5626
L13388 5816
L13460 5816
L13507 5840
L13531 5864
L13555 5911
L13555 6030
L13531 6078
L13507 6102
L13460 6126
L13317 6126
L13269 6102
L13245 6078
" />
<path d="M13865 5626
L13912 5626
L13960 5650
L13984 5673
L14007 5721
L14031 5816
L14031 5935
L14007 6030
L13984 6078
L13960 6102
L13912 6126
L13865 6126
L13817 6102
L13793 6078
L13769 6030
L13745 5935
L13745 5816
L13769 5721
L13793 5673
L13817 5650
L13865 5626
" />
</g></g>
<g style="fill:#840084; fill-opacity:0.0; 
stroke:#840084; stroke-width:62.519685; stroke-opacity:1; 
stroke-linecap:round; stroke-linejoin:round;">
<text x="7310.000000" y="16650.000000"
textLength="34919.645669" font-size="666.653543" lengthAdjust="spacingAndGlyphs"
text-anchor="middle" opacity="0">https://www.tag-connect.com/wp-content/uploads/bsk-pdf-manager/TC2030-CTX_1.pdf</text>
<g class="stroked-text"><desc>https://www.tag-connect.com/wp-content/uploads/bsk-pdf-manager/TC2030-CTX_1.pdf</desc>
<path d="M-9999 16626
L-9999 16126
" />
<path d="M-9785 16626
L-9785 16364
L-9809 16316
L-9856 16292
L-9928 16292
L-9975 16316
L-9999 16340
" />
<path d="M-9618 16292
L-9428 16292
" />
<path d="M-9547 16126
L-9547 16554
L-9523 16602
L-9475 16626
L-9428 16626
" />
<path d="M-9332 16292
L-9142 16292
" />
<path d="M-9261 16126
L-9261 16554
L-9237 16602
L-9189 16626
L-9142 16626
" />
<path d="M-8975 16292
L-8975 16792
" />
<path d="M-8975 16316
L-8928 16292
L-8832 16292
L-8785 16316
L-8761 16340
L-8737 16388
L-8737 16530
L-8761 16578
L-8785 16602
L-8832 16626
L-8928 16626
L-8975 16602
" />
<path d="M-8547 16602
L-8499 16626
L-8404 16626
L-8356 16602
L-8332 16554
L-8332 16530
L-8356 16483
L-8404 16459
L-8475 16459
L-8523 16435
L-8547 16388
L-8547 16364
L-8523 16316
L-8475 16292
L-8404 16292
L-8356 16316
" />
<path d="M-8118 16578
L-8094 16602
L-8118 16626
L-8142 16602
L-8118 16578
L-8118 16626
" />
<path d="M-8118 16316
L-8094 16340
L-8118 16364
L-8142 16340
L-8118 16316
L-8118 16364
" />
<path d="M-7523 16102
L-7951 16745
" />
<path d="M-6999 16102
L-7428 16745
" />
<path d="M-6880 16292
L-6785 16626
L-6689 16388
L-6594 16626
L-6499 16292
" />
<path d="M-6356 16292
L-6261 16626
L-6166 16388
L-6070 16626
L-5975 16292
" />
<path d="M-5832 16292
L-5737 16626
L-5642 16388
L-5547 16626
L-5451 16292
" />
<path d="M-5261 16578
L-5237 16602
L-5261 16626
L-5285 16602
L-5261 16578
L-5261 16626
" />
<path d="M-5094 16292
L-4904 16292
" />
<path d="M-5023 16126
L-5023 16554
L-4999 16602
L-4951 16626
L-4904 16626
" />
<path d="M-4523 16626
L-4523 16364
L-4547 16316
L-4594 16292
L-4689 16292
L-4737 16316
" />
<path d="M-4523 16602
L-4570 16626
L-4689 16626
L-4737 16602
L-4761 16554
L-4761 16507
L-4737 16459
L-4689 16435
L-4570 16435
L-4523 16411
" />
<path d="M-4070 16292
L-4070 16697
L-4094 16745
L-4118 16769
L-4166 16792
L-4237 16792
L-4285 16769
" />
<path d="M-4070 16602
L-4118 16626
L-4213 16626
L-4261 16602
L-4285 16578
L-4309 16530
L-4309 16388
L-4285 16340
L-4261 16316
L-4213 16292
L-4118 16292
L-4070 16316
" />
<path d="M-3832 16435
L-3451 16435
" />
<path d="M-2999 16602
L-3047 16626
L-3142 16626
L-3189 16602
L-3213 16578
L-3237 16530
L-3237 16388
L-3213 16340
L-3189 16316
L-3142 16292
L-3047 16292
L-2999 16316
" />
<path d="M-2713 16626
L-2761 16602
L-2785 16578
L-2809 16530
L-2809 16388
L-2785 16340
L-2761 16316
L-2713 16292
L-2642 16292
L-2594 16316
L-2570 16340
L-2547 16388
L-2547 16530
L-2570 16578
L-2594 16602
L-2642 16626
L-2713 16626
" />
<path d="M-2332 16292
L-2332 16626
" />
<path d="M-2332 16340
L-2309 16316
L-2261 16292
L-2189 16292
L-2142 16316
L-2118 16364
L-2118 16626
" />
<path d="M-1880 16292
L-1880 16626
" />
<path d="M-1880 16340
L-1856 16316
L-1809 16292
L-1737 16292
L-1689 16316
L-1666 16364
L-1666 16626
" />
<path d="M-1237 16602
L-1285 16626
L-1380 16626
L-1428 16602
L-1451 16554
L-1451 16364
L-1428 16316
L-1380 16292
L-1285 16292
L-1237 16316
L-1213 16364
L-1213 16411
L-1451 16459
" />
<path d="M-785 16602
L-832 16626
L-928 16626
L-975 16602
L-999 16578
L-1023 16530
L-1023 16388
L-999 16340
L-975 16316
L-928 16292
L-832 16292
L-785 16316
" />
<path d="M-642 16292
L-451 16292
" />
<path d="M-570 16126
L-570 16554
L-547 16602
L-499 16626
L-451 16626
" />
<path d="M-285 16578
L-261 16602
L-285 16626
L-309 16602
L-285 16578
L-285 16626
" />
<path d="M167 16602
L119 16626
L24 16626
L-23 16602
L-47 16578
L-70 16530
L-70 16388
L-47 16340
L-23 16316
L24 16292
L119 16292
L167 16316
" />
<path d="M452 16626
L405 16602
L381 16578
L357 16530
L357 16388
L381 16340
L405 16316
L452 16292
L524 16292
L571 16316
L595 16340
L619 16388
L619 16530
L595 16578
L571 16602
L524 16626
L452 16626
" />
<path d="M833 16626
L833 16292
" />
<path d="M833 16340
L857 16316
L905 16292
L976 16292
L1024 16316
L1048 16364
L1048 16626
" />
<path d="M1048 16364
L1071 16316
L1119 16292
L1190 16292
L1238 16316
L1262 16364
L1262 16626
" />
<path d="M1857 16102
L1429 16745
" />
<path d="M1976 16292
L2071 16626
L2167 16388
L2262 16626
L2357 16292
" />
<path d="M2548 16292
L2548 16792
" />
<path d="M2548 16316
L2595 16292
L2690 16292
L2738 16316
L2762 16340
L2786 16388
L2786 16530
L2762 16578
L2738 16602
L2690 16626
L2595 16626
L2548 16602
" />
<path d="M3000 16435
L3381 16435
" />
<path d="M3833 16602
L3786 16626
L3690 16626
L3643 16602
L3619 16578
L3595 16530
L3595 16388
L3619 16340
L3643 16316
L3690 16292
L3786 16292
L3833 16316
" />
<path d="M4119 16626
L4071 16602
L4048 16578
L4024 16530
L4024 16388
L4048 16340
L4071 16316
L4119 16292
L4190 16292
L4238 16316
L4262 16340
L4286 16388
L4286 16530
L4262 16578
L4238 16602
L4190 16626
L4119 16626
" />
<path d="M4500 16292
L4500 16626
" />
<path d="M4500 16340
L4524 16316
L4571 16292
L4643 16292
L4690 16316
L4714 16364
L4714 16626
" />
<path d="M4881 16292
L5071 16292
" />
<path d="M4952 16126
L4952 16554
L4976 16602
L5024 16626
L5071 16626
" />
<path d="M5429 16602
L5381 16626
L5286 16626
L5238 16602
L5214 16554
L5214 16364
L5238 16316
L5286 16292
L5381 16292
L5429 16316
L5452 16364
L5452 16411
L5214 16459
" />
<path d="M5667 16292
L5667 16626
" />
<path d="M5667 16340
L5690 16316
L5738 16292
L5810 16292
L5857 16316
L5881 16364
L5881 16626
" />
<path d="M6048 16292
L6238 16292
" />
<path d="M6119 16126
L6119 16554
L6143 16602
L6190 16626
L6238 16626
" />
<path d="M6762 16102
L6333 16745
" />
<path d="M7143 16292
L7143 16626
" />
<path d="M6929 16292
L6929 16554
L6952 16602
L7000 16626
L7071 16626
L7119 16602
L7143 16578
" />
<path d="M7381 16292
L7381 16792
" />
<path d="M7381 16316
L7429 16292
L7524 16292
L7571 16316
L7595 16340
L7619 16388
L7619 16530
L7595 16578
L7571 16602
L7524 16626
L7429 16626
L7381 16602
" />
<path d="M7905 16626
L7857 16602
L7833 16554
L7833 16126
" />
<path d="M8167 16626
L8119 16602
L8095 16578
L8071 16530
L8071 16388
L8095 16340
L8119 16316
L8167 16292
L8238 16292
L8286 16316
L8310 16340
L8333 16388
L8333 16530
L8310 16578
L8286 16602
L8238 16626
L8167 16626
" />
<path d="M8762 16626
L8762 16364
L8738 16316
L8690 16292
L8595 16292
L8548 16316
" />
<path d="M8762 16602
L8714 16626
L8595 16626
L8548 16602
L8524 16554
L8524 16507
L8548 16459
L8595 16435
L8714 16435
L8762 16411
" />
<path d="M9214 16626
L9214 16126
" />
<path d="M9214 16602
L9167 16626
L9071 16626
L9024 16602
L9000 16578
L8976 16530
L8976 16388
L9000 16340
L9024 16316
L9071 16292
L9167 16292
L9214 16316
" />
<path d="M9429 16602
L9476 16626
L9571 16626
L9619 16602
L9643 16554
L9643 16530
L9619 16483
L9571 16459
L9500 16459
L9452 16435
L9429 16388
L9429 16364
L9452 16316
L9500 16292
L9571 16292
L9619 16316
" />
<path d="M10214 16102
L9786 16745
" />
<path d="M10381 16626
L10381 16126
" />
<path d="M10381 16316
L10429 16292
L10524 16292
L10571 16316
L10595 16340
L10619 16388
L10619 16530
L10595 16578
L10571 16602
L10524 16626
L10429 16626
L10381 16602
" />
<path d="M10810 16602
L10857 16626
L10952 16626
L11000 16602
L11024 16554
L11024 16530
L11000 16483
L10952 16459
L10881 16459
L10833 16435
L10810 16388
L10810 16364
L10833 16316
L10881 16292
L10952 16292
L11000 16316
" />
<path d="M11238 16626
L11238 16126
" />
<path d="M11286 16435
L11429 16626
" />
<path d="M11429 16292
L11238 16483
" />
<path d="M11643 16435
L12024 16435
" />
<path d="M12262 16292
L12262 16792
" />
<path d="M12262 16316
L12310 16292
L12405 16292
L12452 16316
L12476 16340
L12500 16388
L12500 16530
L12476 16578
L12452 16602
L12405 16626
L12310 16626
L12262 16602
" />
<path d="M12929 16626
L12929 16126
" />
<path d="M12929 16602
L12881 16626
L12786 16626
L12738 16602
L12714 16578
L12690 16530
L12690 16388
L12714 16340
L12738 16316
L12786 16292
L12881 16292
L12929 16316
" />
<path d="M13095 16292
L13286 16292
" />
<path d="M13167 16626
L13167 16197
L13190 16150
L13238 16126
L13286 16126
" />
<path d="M13452 16435
L13833 16435
" />
<path d="M14071 16626
L14071 16292
" />
<path d="M14071 16340
L14095 16316
L14143 16292
L14214 16292
L14262 16316
L14286 16364
L14286 16626
" />
<path d="M14286 16364
L14310 16316
L14357 16292
L14429 16292
L14476 16316
L14500 16364
L14500 16626
" />
<path d="M14952 16626
L14952 16364
L14929 16316
L14881 16292
L14786 16292
L14738 16316
" />
<path d="M14952 16602
L14905 16626
L14786 16626
L14738 16602
L14714 16554
L14714 16507
L14738 16459
L14786 16435
L14905 16435
L14952 16411
" />
<path d="M15190 16292
L15190 16626
" />
<path d="M15190 16340
L15214 16316
L15262 16292
L15333 16292
L15381 16316
L15405 16364
L15405 16626
" />
<path d="M15857 16626
L15857 16364
L15833 16316
L15786 16292
L15690 16292
L15643 16316
" />
<path d="M15857 16602
L15810 16626
L15690 16626
L15643 16602
L15619 16554
L15619 16507
L15643 16459
L15690 16435
L15810 16435
L15857 16411
" />
<path d="M16310 16292
L16310 16697
L16286 16745
L16262 16769
L16214 16792
L16143 16792
L16095 16769
" />
<path d="M16310 16602
L16262 16626
L16167 16626
L16119 16602
L16095 16578
L16071 16530
L16071 16388
L16095 16340
L16119 16316
L16167 16292
L16262 16292
L16310 16316
" />
<path d="M16738 16602
L16690 16626
L16595 16626
L16548 16602
L16524 16554
L16524 16364
L16548 16316
L16595 16292
L16690 16292
L16738 16316
L16762 16364
L16762 16411
L16524 16459
" />
<path d="M16976 16626
L16976 16292
" />
<path d="M16976 16388
L17000 16340
L17024 16316
L17071 16292
L17119 16292
" />
<path d="M17643 16102
L17214 16745
" />
<path d="M17738 16126
L18024 16126
" />
<path d="M17881 16626
L17881 16126
" />
<path d="M18476 16578
L18452 16602
L18381 16626
L18333 16626
L18262 16602
L18214 16554
L18190 16507
L18167 16411
L18167 16340
L18190 16245
L18214 16197
L18262 16150
L18333 16126
L18381 16126
L18452 16150
L18476 16173
" />
<path d="M18667 16173
L18690 16150
L18738 16126
L18857 16126
L18905 16150
L18929 16173
L18952 16221
L18952 16269
L18929 16340
L18643 16626
L18952 16626
" />
<path d="M19262 16126
L19310 16126
L19357 16150
L19381 16173
L19405 16221
L19429 16316
L19429 16435
L19405 16530
L19381 16578
L19357 16602
L19310 16626
L19262 16626
L19214 16602
L19190 16578
L19167 16530
L19143 16435
L19143 16316
L19167 16221
L19190 16173
L19214 16150
L19262 16126
" />
<path d="M19595 16126
L19905 16126
L19738 16316
L19810 16316
L19857 16340
L19881 16364
L19905 16411
L19905 16530
L19881 16578
L19857 16602
L19810 16626
L19667 16626
L19619 16602
L19595 16578
" />
<path d="M20214 16126
L20262 16126
L20310 16150
L20333 16173
L20357 16221
L20381 16316
L20381 16435
L20357 16530
L20333 16578
L20310 16602
L20262 16626
L20214 16626
L20167 16602
L20143 16578
L20119 16530
L20095 16435
L20095 16316
L20119 16221
L20143 16173
L20167 16150
L20214 16126
" />
<path d="M20595 16435
L20976 16435
" />
<path d="M21500 16578
L21476 16602
L21405 16626
L21357 16626
L21286 16602
L21238 16554
L21214 16507
L21190 16411
L21190 16340
L21214 16245
L21238 16197
L21286 16150
L21357 16126
L21405 16126
L21476 16150
L21500 16173
" />
<path d="M21643 16126
L21929 16126
" />
<path d="M21786 16626
L21786 16126
" />
<path d="M22048 16126
L22381 16626
" />
<path d="M22381 16126
L22048 16626
" />
<path d="M22452 16673
L22833 16673
" />
<path d="M23214 16626
L22929 16626
" />
<path d="M23071 16626
L23071 16126
L23024 16197
L22976 16245
L22929 16269
" />
<path d="M23429 16578
L23452 16602
L23429 16626
L23405 16602
L23429 16578
L23429 16626
" />
<path d="M23667 16292
L23667 16792
" />
<path d="M23667 16316
L23714 16292
L23810 16292
L23857 16316
L23881 16340
L23905 16388
L23905 16530
L23881 16578
L23857 16602
L23810 16626
L23714 16626
L23667 16602
" />
<path d="M24333 16626
L24333 16126
" />
<path d="M24333 16602
L24286 16626
L24190 16626
L24143 16602
L24119 16578
L24095 16530
L24095 16388
L24119 16340
L24143 16316
L24190 16292
L24286 16292
L24333 16316
" />
<path d="M24500 16292
L24690 16292
" />
<path d="M24571 16626
L24571 16197
L24595 16150
L24643 16126
L24690 16126
" />
</g></g> 
</svg>
