<?xml version="1.0" standalone="no"?>
 <!DOCTYPE svg PUBLIC "-//W3C//DTD SVG 1.1//EN" 
 "http://www.w3.org/Graphics/SVG/1.1/DTD/svg11.dtd"> 
<svg
  xmlns:svg="http://www.w3.org/2000/svg"
  xmlns="http://www.w3.org/2000/svg"
  xmlns:xlink="http://www.w3.org/1999/xlink"
  version="1.1"
  width="2.369820cm" height="2.270760cm" viewBox="0 0 9330 8940">
<title>SVG Picture created as XL2012E1.svg date 2022/12/22 19:40:35 </title>
  <desc>Picture generated by Eeschema-SVG </desc>
<g style="fill:#000000; fill-opacity:1.000000;stroke:#000000; stroke-opacity:1.000000;
stroke-linecap:round; stroke-linejoin:round;"
 transform="translate(0 0) scale(1 1)">
</g>
<g style="fill:#840000; fill-opacity:0.0; 
stroke:#840000; stroke-width:0.000000; stroke-opacity:1; 
stroke-linecap:round; stroke-linejoin:round;">
</g>
<g style="fill:#FFFFC2; fill-opacity:0.0; 
stroke:#FFFFC2; stroke-width:0.000000; stroke-opacity:1; 
stroke-linecap:round; stroke-linejoin:round;">
</g>
<g style="fill:#FFFFC2; fill-opacity:0.6; 
stroke:#FFFFC2; stroke-width:0.039370; stroke-opacity:1; 
stroke-linecap:round; stroke-linejoin:round;">
<rect x="2165.000000" y="2470.000000" width="5000.000000" height="4000.000000" rx="0.000000" />
</g>
<g style="fill:#840000; fill-opacity:0.6; 
stroke:#840000; stroke-width:0.039370; stroke-opacity:1; 
stroke-linecap:round; stroke-linejoin:round;">
</g>
<g style="fill:#840000; fill-opacity:0.0; 
stroke:#840000; stroke-width:60.000000; stroke-opacity:1; 
stroke-linecap:round; stroke-linejoin:round;">
<rect x="2165.000000" y="2470.000000" width="5000.000000" height="4000.000000" rx="0.000000" />
<rect x="2165.000000" y="2470.000000" width="5000.000000" height="4000.000000" rx="0.000000" />
<path d="M2165 5470
L1165 5470
" />
</g>
<g style="fill:#006464; fill-opacity:0.0; 
stroke:#006464; stroke-width:60.000000; stroke-opacity:1; 
stroke-linecap:round; stroke-linejoin:round;">
<text x="2365.000000" y="5720.000000"
textLength="1058.582677" font-size="666.653543" lengthAdjust="spacingAndGlyphs"
text-anchor="start" opacity="0">FB</text>
<g class="stroked-text"><desc>FB</desc>
<path d="M2680 5434
L2514 5434
" />
<path d="M2514 5696
L2514 5196
L2752 5196
" />
<path d="M3109 5434
L3180 5458
L3204 5481
L3228 5529
L3228 5600
L3204 5648
L3180 5672
L3133 5696
L2942 5696
L2942 5196
L3109 5196
L3156 5220
L3180 5243
L3204 5291
L3204 5339
L3180 5386
L3156 5410
L3109 5434
L2942 5434
" />
</g></g>
<g style="fill:#A90000; fill-opacity:0.0; 
stroke:#A90000; stroke-width:60.000000; stroke-opacity:1; 
stroke-linecap:round; stroke-linejoin:round;">
<text x="1665.000000" y="5370.000000"
textLength="536.181102" font-size="666.653543" lengthAdjust="spacingAndGlyphs"
text-anchor="middle" opacity="0">1</text>
<g class="stroked-text"><desc>1</desc>
<path d="M1807 5346
L1522 5346
" />
<path d="M1665 5346
L1665 4846
L1617 4917
L1569 4965
L1522 4989
" />
</g></g>
<g style="fill:#840000; fill-opacity:0.0; 
stroke:#840000; stroke-width:60.000000; stroke-opacity:1; 
stroke-linecap:round; stroke-linejoin:round;">
<path d="M2165 3470
L1165 3470
" />
</g>
<g style="fill:#006464; fill-opacity:0.0; 
stroke:#006464; stroke-width:60.000000; stroke-opacity:1; 
stroke-linecap:round; stroke-linejoin:round;">
<text x="2365.000000" y="3720.000000"
textLength="988.582677" font-size="666.653543" lengthAdjust="spacingAndGlyphs"
text-anchor="start" opacity="0">VC</text>
<g class="stroked-text"><desc>VC</desc>
<path d="M2442 3196
L2609 3696
L2775 3196
" />
<path d="M3228 3648
L3204 3672
L3133 3696
L3085 3696
L3014 3672
L2966 3624
L2942 3577
L2918 3481
L2918 3410
L2942 3315
L2966 3267
L3014 3220
L3085 3196
L3133 3196
L3204 3220
L3228 3243
" />
</g></g>
<g style="fill:#A90000; fill-opacity:0.0; 
stroke:#A90000; stroke-width:60.000000; stroke-opacity:1; 
stroke-linecap:round; stroke-linejoin:round;">
<text x="1665.000000" y="3370.000000"
textLength="536.181102" font-size="666.653543" lengthAdjust="spacingAndGlyphs"
text-anchor="middle" opacity="0">3</text>
<g class="stroked-text"><desc>3</desc>
<path d="M1498 2846
L1807 2846
L1641 3036
L1712 3036
L1760 3060
L1784 3084
L1807 3131
L1807 3250
L1784 3298
L1760 3322
L1712 3346
L1569 3346
L1522 3322
L1498 3298
" />
</g></g>
<g style="fill:#840000; fill-opacity:0.0; 
stroke:#840000; stroke-width:60.000000; stroke-opacity:1; 
stroke-linecap:round; stroke-linejoin:round;">
<path d="M4665 2470
L4665 1470
" />
</g>
<g style="fill:#006464; fill-opacity:0.0; 
stroke:#006464; stroke-width:60.000000; stroke-opacity:1; 
stroke-linecap:round; stroke-linejoin:round;">
<g transform="rotate(-90.000000 4665.000000 2670.000000)">
<text x="4665.000000" y="2920.000000"
textLength="1098.110236" font-size="666.653543" lengthAdjust="spacingAndGlyphs"
text-anchor="end" opacity="0">V_{IN}</text>
</g>
<g class="stroked-text"><desc>V_{IN}</desc>
<path d="M4391 3690
L4891 3523
L4391 3357
" />
<path d="M4945 3214
L4545 3214
" />
<path d="M4945 3023
L4545 3023
L4945 2795
L4545 2795
" />
</g></g>
<g style="fill:#A90000; fill-opacity:0.0; 
stroke:#A90000; stroke-width:60.000000; stroke-opacity:1; 
stroke-linecap:round; stroke-linejoin:round;">
<g transform="rotate(-90.000000 4565.000000 1970.000000)">
<text x="4565.000000" y="1970.000000"
textLength="536.181102" font-size="666.653543" lengthAdjust="spacingAndGlyphs"
text-anchor="middle" opacity="0">4</text>
</g>
<g class="stroked-text"><desc>4</desc>
<path d="M4207 1874
L4541 1874
" />
<path d="M4017 1993
L4374 2112
L4374 1803
" />
</g></g>
<g style="fill:#840000; fill-opacity:0.0; 
stroke:#840000; stroke-width:60.000000; stroke-opacity:1; 
stroke-linecap:round; stroke-linejoin:round;">
<path d="M7165 3970
L8165 3970
" />
</g>
<g style="fill:#006464; fill-opacity:0.0; 
stroke:#006464; stroke-width:60.000000; stroke-opacity:1; 
stroke-linecap:round; stroke-linejoin:round;">
<text x="6965.000000" y="4220.000000"
textLength="1107.637795" font-size="666.653543" lengthAdjust="spacingAndGlyphs"
text-anchor="end" opacity="0">SW</text>
<g class="stroked-text"><desc>SW</desc>
<path d="M5982 4172
L6054 4196
L6173 4196
L6220 4172
L6244 4148
L6268 4100
L6268 4053
L6244 4005
L6220 3981
L6173 3958
L6077 3934
L6030 3910
L6006 3886
L5982 3839
L5982 3791
L6006 3743
L6030 3720
L6077 3696
L6196 3696
L6268 3720
" />
<path d="M6435 3696
L6554 4196
L6649 3839
L6744 4196
L6863 3696
" />
</g></g>
<g style="fill:#A90000; fill-opacity:0.0; 
stroke:#A90000; stroke-width:60.000000; stroke-opacity:1; 
stroke-linecap:round; stroke-linejoin:round;">
<text x="7665.000000" y="3870.000000"
textLength="536.181102" font-size="666.653543" lengthAdjust="spacingAndGlyphs"
text-anchor="middle" opacity="0">5</text>
<g class="stroked-text"><desc>5</desc>
<path d="M7784 3346
L7545 3346
L7522 3584
L7545 3560
L7593 3536
L7712 3536
L7760 3560
L7784 3584
L7807 3631
L7807 3750
L7784 3798
L7760 3822
L7712 3846
L7593 3846
L7545 3822
L7522 3798
" />
</g></g>
<g style="fill:#840000; fill-opacity:0.0; 
stroke:#840000; stroke-width:60.000000; stroke-opacity:1; 
stroke-linecap:round; stroke-linejoin:round;">
<path d="M7165 4970
L8165 4970
" />
</g>
<g style="fill:#006464; fill-opacity:0.0; 
stroke:#006464; stroke-width:60.000000; stroke-opacity:1; 
stroke-linecap:round; stroke-linejoin:round;">
<text x="6965.000000" y="5220.000000"
textLength="1107.637795" font-size="666.653543" lengthAdjust="spacingAndGlyphs"
text-anchor="end" opacity="0">SW</text>
<g class="stroked-text"><desc>SW</desc>
<path d="M5982 5172
L6054 5196
L6173 5196
L6220 5172
L6244 5148
L6268 5100
L6268 5053
L6244 5005
L6220 4981
L6173 4958
L6077 4934
L6030 4910
L6006 4886
L5982 4839
L5982 4791
L6006 4743
L6030 4720
L6077 4696
L6196 4696
L6268 4720
" />
<path d="M6435 4696
L6554 5196
L6649 4839
L6744 5196
L6863 4696
" />
</g></g>
<g style="fill:#A90000; fill-opacity:0.0; 
stroke:#A90000; stroke-width:60.000000; stroke-opacity:1; 
stroke-linecap:round; stroke-linejoin:round;">
<text x="7665.000000" y="4870.000000"
textLength="536.181102" font-size="666.653543" lengthAdjust="spacingAndGlyphs"
text-anchor="middle" opacity="0">6</text>
<g class="stroked-text"><desc>6</desc>
<path d="M7760 4346
L7665 4346
L7617 4370
L7593 4393
L7545 4465
L7522 4560
L7522 4750
L7545 4798
L7569 4822
L7617 4846
L7712 4846
L7760 4822
L7784 4798
L7807 4750
L7807 4631
L7784 4584
L7760 4560
L7712 4536
L7617 4536
L7569 4560
L7545 4584
L7522 4631
" />
</g></g>
<g style="fill:#840000; fill-opacity:0.0; 
stroke:#840000; stroke-width:60.000000; stroke-opacity:1; 
stroke-linecap:round; stroke-linejoin:round;">
<path d="M4165 6470
L4165 7470
" />
</g>
<g style="fill:#006464; fill-opacity:0.0; 
stroke:#006464; stroke-width:60.000000; stroke-opacity:1; 
stroke-linecap:round; stroke-linejoin:round;">
<g transform="rotate(-90.000000 4165.000000 6270.000000)">
<text x="4165.000000" y="6520.000000"
textLength="1583.818898" font-size="666.653543" lengthAdjust="spacingAndGlyphs"
text-anchor="start" opacity="0">GND</text>
</g>
<g class="stroked-text"><desc>GND</desc>
<path d="M3915 5859
L3891 5906
L3891 5978
L3915 6049
L3962 6097
L4010 6120
L4105 6144
L4176 6144
L4272 6120
L4319 6097
L4367 6049
L4391 5978
L4391 5930
L4367 5859
L4343 5835
L4176 5835
L4176 5930
" />
<path d="M4391 5620
L3891 5620
L4391 5335
L3891 5335
" />
<path d="M4391 5097
L3891 5097
L3891 4978
L3915 4906
L3962 4859
L4010 4835
L4105 4811
L4176 4811
L4272 4835
L4319 4859
L4367 4906
L4391 4978
L4391 5097
" />
</g></g>
<g style="fill:#A90000; fill-opacity:0.0; 
stroke:#A90000; stroke-width:60.000000; stroke-opacity:1; 
stroke-linecap:round; stroke-linejoin:round;">
<g transform="rotate(-90.000000 4065.000000 6970.000000)">
<text x="4065.000000" y="6970.000000"
textLength="536.181102" font-size="666.653543" lengthAdjust="spacingAndGlyphs"
text-anchor="middle" opacity="0">7</text>
</g>
<g class="stroked-text"><desc>7</desc>
<path d="M3541 7136
L3541 6803
L4041 7017
" />
</g></g>
<g style="fill:#840000; fill-opacity:0.0; 
stroke:#840000; stroke-width:60.000000; stroke-opacity:1; 
stroke-linecap:round; stroke-linejoin:round;">
<path d="M5165 6470
L5165 7470
" />
</g>
<g style="fill:#006464; fill-opacity:0.0; 
stroke:#006464; stroke-width:60.000000; stroke-opacity:1; 
stroke-linecap:round; stroke-linejoin:round;">
<g transform="rotate(-90.000000 5165.000000 6270.000000)">
<text x="5165.000000" y="6520.000000"
textLength="1583.818898" font-size="666.653543" lengthAdjust="spacingAndGlyphs"
text-anchor="start" opacity="0">GND</text>
</g>
<g class="stroked-text"><desc>GND</desc>
<path d="M4915 5859
L4891 5906
L4891 5978
L4915 6049
L4962 6097
L5010 6120
L5105 6144
L5176 6144
L5272 6120
L5319 6097
L5367 6049
L5391 5978
L5391 5930
L5367 5859
L5343 5835
L5176 5835
L5176 5930
" />
<path d="M5391 5620
L4891 5620
L5391 5335
L4891 5335
" />
<path d="M5391 5097
L4891 5097
L4891 4978
L4915 4906
L4962 4859
L5010 4835
L5105 4811
L5176 4811
L5272 4835
L5319 4859
L5367 4906
L5391 4978
L5391 5097
" />
</g></g>
<g style="fill:#A90000; fill-opacity:0.0; 
stroke:#A90000; stroke-width:60.000000; stroke-opacity:1; 
stroke-linecap:round; stroke-linejoin:round;">
<g transform="rotate(-90.000000 5065.000000 6970.000000)">
<text x="5065.000000" y="6970.000000"
textLength="536.181102" font-size="666.653543" lengthAdjust="spacingAndGlyphs"
text-anchor="middle" opacity="0">8</text>
</g>
<g class="stroked-text"><desc>8</desc>
<path d="M4755 7017
L4731 7065
L4707 7089
L4660 7112
L4636 7112
L4588 7089
L4565 7065
L4541 7017
L4541 6922
L4565 6874
L4588 6850
L4636 6827
L4660 6827
L4707 6850
L4731 6874
L4755 6922
L4755 7017
L4779 7065
L4803 7089
L4850 7112
L4945 7112
L4993 7089
L5017 7065
L5041 7017
L5041 6922
L5017 6874
L4993 6850
L4945 6827
L4850 6827
L4803 6850
L4779 6874
L4755 6922
" />
</g></g>
<g style="fill:#840084; fill-opacity:0.0; 
stroke:#840084; stroke-width:60.000000; stroke-opacity:1; 
stroke-linecap:round; stroke-linejoin:round;">
</g>
<g style="fill:#006464; fill-opacity:0.0; 
stroke:#006464; stroke-width:60.000000; stroke-opacity:1; 
stroke-linecap:round; stroke-linejoin:round;">
</g>
<g style="fill:#006464; fill-opacity:0.0; 
stroke:#006464; stroke-width:62.519685; stroke-opacity:1; 
stroke-linecap:round; stroke-linejoin:round;">
<text x="5672.440945" y="720.000000"
textLength="1012.362205" font-size="666.653543" lengthAdjust="spacingAndGlyphs"
text-anchor="middle" opacity="0">U?</text>
<g class="stroked-text"><desc>U?</desc>
<path d="M5315 196
L5315 600
L5339 648
L5362 672
L5410 696
L5505 696
L5553 672
L5577 648
L5600 600
L5600 196
" />
<path d="M5910 648
L5934 672
L5910 696
L5886 672
L5910 648
L5910 696
" />
<path d="M5815 220
L5862 196
L5981 196
L6029 220
L6053 267
L6053 315
L6029 362
L6005 386
L5958 410
L5934 434
L5910 481
L5910 505
" />
</g><text x="7053.385827" y="1720.000000"
textLength="3776.811024" font-size="666.653543" lengthAdjust="spacingAndGlyphs"
text-anchor="middle" opacity="0">XL2012E1</text>
<g class="stroked-text"><desc>XL2012E1</desc>
<path d="M5267 1196
L5600 1696
" />
<path d="M5600 1196
L5267 1696
" />
<path d="M6029 1696
L5791 1696
L5791 1196
" />
<path d="M6172 1243
L6196 1220
L6243 1196
L6362 1196
L6410 1220
L6434 1243
L6458 1291
L6458 1339
L6434 1410
L6148 1696
L6458 1696
" />
<path d="M6767 1196
L6815 1196
L6862 1220
L6886 1243
L6910 1291
L6934 1386
L6934 1505
L6910 1600
L6886 1648
L6862 1672
L6815 1696
L6767 1696
L6720 1672
L6696 1648
L6672 1600
L6648 1505
L6648 1386
L6672 1291
L6696 1243
L6720 1220
L6767 1196
" />
<path d="M7410 1696
L7124 1696
" />
<path d="M7267 1696
L7267 1196
L7220 1267
L7172 1315
L7124 1339
" />
<path d="M7600 1243
L7624 1220
L7672 1196
L7791 1196
L7839 1220
L7862 1243
L7886 1291
L7886 1339
L7862 1410
L7577 1696
L7886 1696
" />
<path d="M8100 1434
L8267 1434
" />
<path d="M8339 1696
L8100 1696
L8100 1196
L8339 1196
" />
<path d="M8815 1696
L8529 1696
" />
<path d="M8672 1696
L8672 1196
L8624 1267
L8577 1315
L8529 1339
" />
</g></g> 
</svg>
